{"glyphs":{"0":{"ha":782,"x_min":60,"x_max":722,"o":"m 390 -11 q 149 110 239 -11 q 60 461 60 231 q 149 808 60 690 q 390 926 237 926 q 632 808 543 926 q 722 461 722 690 q 632 110 722 231 q 390 -11 543 -11 m 390 21 q 518 126 480 21 q 557 461 557 232 q 519 792 557 689 q 390 895 481 895 q 262 792 300 895 q 225 461 225 690 q 262 126 225 232 q 390 21 300 21 z "},"1":{"ha":435,"x_min":45,"x_max":401,"o":"m 385 32 q 401 17 401 32 q 385 0 401 0 l 60 0 q 45 17 44 0 q 60 32 45 33 l 119 32 q 147 43 136 32 q 158 69 158 54 l 158 827 l 60 827 q 45 842 44 827 q 60 857 45 857 l 90 857 q 191 869 153 857 q 262 904 229 880 q 275 913 268 908 q 285 920 282 918 q 292 924 288 922 q 300 926 296 926 q 315 909 315 926 l 315 69 q 327 43 315 54 q 354 32 338 32 l 385 32 z "},"2":{"ha":764,"x_min":69,"x_max":694,"o":"m 694 245 l 694 201 q 507 -9 694 -9 q 338 20 445 -9 q 187 50 232 50 q 146 40 162 50 q 126 19 131 31 q 113 -1 121 8 q 96 -9 106 -9 q 81 5 80 -9 l 81 57 q 99 195 81 132 q 149 299 118 257 q 219 377 180 340 q 300 439 258 414 q 380 495 342 465 q 451 553 419 525 q 501 621 482 581 q 519 708 519 661 q 471 844 519 795 q 338 892 422 892 q 219 860 264 892 q 174 787 174 828 q 203 730 174 762 q 232 668 232 697 q 210 615 232 635 q 155 596 187 596 q 94 624 119 596 q 69 701 69 652 q 149 860 69 793 q 368 926 229 926 q 598 867 511 926 q 685 692 685 807 q 661 580 685 629 q 598 499 637 530 q 508 440 558 468 q 404 392 457 412 q 301 342 351 371 q 210 282 250 314 q 144 199 170 250 q 117 82 118 147 q 261 174 155 174 q 394 154 301 174 q 533 135 486 135 q 629 164 595 135 q 663 248 663 193 q 679 262 663 263 q 694 245 694 262 z "},"3":{"ha":770,"x_min":69,"x_max":701,"o":"m 389 498 q 544 472 480 493 q 640 416 607 450 q 687 345 673 382 q 701 261 701 307 q 614 66 701 143 q 374 -11 528 -11 q 152 53 235 -11 q 69 214 69 117 q 94 291 69 264 q 154 318 119 318 q 210 297 186 318 q 235 243 235 277 q 207 186 235 215 q 179 136 179 158 q 224 60 179 94 q 347 26 269 26 q 486 90 436 26 q 536 257 536 153 q 484 417 536 366 q 364 469 432 469 l 359 469 q 344 475 350 469 q 338 489 338 481 q 359 517 338 500 q 524 639 473 592 q 631 781 595 703 q 515 742 592 742 q 386 761 475 742 q 249 781 296 781 q 153 751 186 781 q 119 668 119 721 q 103 653 119 652 q 87 668 87 653 l 87 714 q 275 925 87 925 q 438 895 338 925 q 585 865 539 865 q 626 876 610 865 q 647 899 642 886 q 659 921 652 911 q 676 932 667 932 q 692 916 692 932 l 692 892 q 613 683 692 774 q 389 498 534 591 z "},"4":{"ha":737,"x_min":16,"x_max":700,"o":"m 684 208 q 700 192 701 208 q 684 176 700 176 l 586 176 l 586 69 q 597 43 586 54 q 625 32 608 32 l 656 32 q 672 17 673 32 q 656 0 672 0 l 359 0 q 343 17 342 0 q 359 32 343 33 l 390 32 q 418 43 407 32 q 429 69 429 54 l 429 176 l 16 176 l 16 207 q 182 369 113 282 q 287 540 252 456 q 337 696 322 624 q 353 838 353 768 q 378 904 353 880 q 437 928 403 928 q 496 904 471 928 q 521 838 521 880 q 494 690 521 768 q 415 528 468 611 q 274 360 363 444 q 72 208 186 277 l 429 208 l 429 467 q 553 639 514 549 q 572 654 558 654 q 586 639 586 654 l 586 208 l 684 208 z "},"5":{"ha":770,"x_min":65,"x_max":692,"o":"m 370 -11 q 149 53 232 -11 q 65 214 65 117 q 90 291 65 264 q 151 318 115 318 q 207 297 183 318 q 231 243 231 277 q 203 186 231 215 q 175 136 175 158 q 220 60 175 94 q 343 26 265 26 q 478 90 432 26 q 525 257 525 153 q 465 423 525 368 q 306 478 406 478 q 187 460 246 478 l 127 441 q 111 461 109 441 l 160 900 q 296 924 228 924 q 449 904 361 924 q 574 884 536 884 q 618 892 600 884 q 642 912 636 901 q 655 930 647 922 q 671 939 663 939 q 686 921 686 939 q 645 790 686 833 q 529 746 603 746 q 398 763 479 746 q 272 781 317 781 q 176 757 220 781 l 146 481 q 349 518 243 518 q 516 491 440 518 q 642 404 591 464 q 692 261 692 345 q 608 66 692 143 q 370 -11 524 -11 z "},"6":{"ha":747,"x_min":60,"x_max":692,"o":"m 389 -11 q 147 108 235 -11 q 60 454 60 227 q 154 805 60 684 q 427 926 248 926 q 605 871 531 926 q 679 726 679 817 q 655 650 679 676 q 596 624 631 624 q 542 644 566 624 q 518 697 518 664 q 546 753 518 725 q 574 803 574 781 q 532 870 574 843 q 427 897 490 897 q 260 770 309 897 q 221 393 211 643 q 303 508 241 470 q 431 546 366 546 q 527 530 481 546 q 610 482 572 514 q 669 397 647 450 q 692 277 692 343 q 602 67 692 144 q 389 -11 512 -11 m 387 21 q 534 261 534 21 q 500 444 534 380 q 400 507 467 507 q 282 443 332 507 q 231 268 232 378 q 273 90 231 159 q 387 21 315 21 z "},"7":{"ha":658,"x_min":45,"x_max":631,"o":"m 45 669 l 45 714 q 233 926 45 926 q 387 897 294 926 q 525 867 479 867 q 565 876 549 867 q 586 896 581 885 q 598 917 591 907 q 615 926 606 926 q 631 909 631 926 l 631 860 q 606 679 631 762 q 545 535 581 596 q 472 412 509 473 q 406 264 435 350 q 374 75 378 178 q 347 12 371 35 q 292 -11 323 -11 q 232 13 257 -11 q 207 78 207 36 q 228 236 207 164 q 283 358 249 309 q 357 451 317 408 q 438 534 397 494 q 514 615 479 574 q 571 713 549 657 q 595 833 593 768 q 450 743 556 743 q 332 763 410 743 q 207 782 253 782 q 110 753 143 782 q 77 669 77 724 q 60 654 77 654 q 45 669 45 654 z "},"8":{"ha":725,"x_min":60,"x_max":665,"o":"m 484 484 q 617 395 568 457 q 665 253 665 334 q 582 62 665 135 q 362 -11 498 -11 q 143 62 227 -11 q 60 253 60 135 q 108 395 60 334 q 241 484 157 457 q 114 562 159 506 q 69 701 69 618 q 149 865 69 804 q 362 926 228 926 q 576 865 497 926 q 656 701 656 804 q 611 562 656 618 q 484 484 566 506 m 363 893 q 232 699 232 893 q 261 553 232 604 q 363 501 290 501 q 465 553 435 501 q 494 699 494 604 q 363 893 495 893 m 363 22 q 471 79 438 22 q 504 245 504 135 q 363 468 504 468 q 221 245 221 468 q 255 79 221 136 q 363 22 289 22 z "},"9":{"ha":747,"x_min":56,"x_max":688,"o":"m 358 926 q 600 808 512 926 q 688 461 688 689 q 594 111 688 232 q 321 -11 500 -11 q 142 44 216 -11 q 68 189 68 98 q 92 266 68 239 q 151 292 117 292 q 205 272 182 292 q 229 218 229 252 q 201 163 229 191 q 174 113 174 135 q 215 45 174 73 q 321 18 257 18 q 488 145 439 18 q 528 522 536 272 q 444 408 507 446 q 317 370 382 370 q 221 386 267 370 q 137 433 175 401 q 78 519 100 465 q 56 639 56 572 q 146 849 56 771 q 358 926 236 926 m 361 895 q 212 654 212 895 q 247 472 212 535 q 347 408 281 408 q 465 473 415 408 q 517 647 515 538 q 474 825 517 755 q 361 895 431 895 z "}," ":{"ha":326,"x_min":0,"x_max":0,"o":""},"!":{"ha":307,"x_min":81,"x_max":228,"o":"m 160 1029 q 208 1008 188 1029 q 228 956 228 987 q 203 704 228 917 q 179 347 179 492 q 173 331 179 338 q 157 325 167 325 q 142 331 149 325 q 135 347 135 338 q 113 703 135 490 q 90 956 90 916 q 111 1008 90 987 q 160 1029 131 1029 m 101 -2 q 91 8 101 -2 q 81 47 81 18 q 101 95 81 75 q 149 115 121 115 q 198 95 178 115 q 218 47 218 75 q 198 -2 218 18 q 149 -22 178 -22 q 101 -2 121 -22 z "},"\"":{"ha":389,"x_min":57,"x_max":319,"o":"m 142 990 q 123 618 142 990 q 115 601 122 607 q 98 595 109 595 q 75 618 76 595 l 57 990 q 69 1022 56 1008 q 99 1035 82 1035 q 130 1022 117 1035 q 142 990 143 1008 m 319 990 l 300 618 q 293 601 300 607 q 277 595 286 595 q 252 618 254 595 l 233 990 q 246 1022 233 1008 q 276 1035 258 1035 q 308 1022 294 1035 q 319 990 321 1008 z "},"#":{"ha":729,"x_min":18,"x_max":711,"o":"m 707 449 l 558 449 l 522 196 l 671 196 l 667 164 l 518 164 l 494 0 l 463 0 l 486 164 l 233 164 l 210 0 l 178 0 l 201 164 l 18 164 l 22 196 l 205 196 l 241 449 l 58 449 l 62 481 l 245 481 l 269 648 l 301 648 l 278 481 l 530 481 l 554 648 l 586 648 l 562 481 l 711 481 l 707 449 m 490 196 l 526 449 l 273 449 l 237 196 l 490 196 z "},"$":{"ha":783,"x_min":61,"x_max":715,"o":"m 715 253 q 647 92 715 165 q 456 -4 579 18 l 456 -126 q 450 -139 456 -134 q 437 -144 444 -144 q 424 -140 429 -144 q 418 -126 418 -135 l 418 -8 q 363 -11 391 -11 q 336 -11 351 -11 l 336 -126 q 331 -139 336 -134 q 318 -144 326 -144 q 306 -140 311 -144 q 300 -126 300 -135 l 300 -7 q 127 67 194 9 q 61 201 61 126 q 83 267 61 243 q 135 290 104 290 q 181 274 161 290 q 201 227 201 257 q 177 174 201 201 q 153 131 153 146 q 216 54 153 86 q 347 22 279 22 q 512 72 446 22 q 579 210 579 121 q 552 293 579 258 q 481 350 525 328 q 384 392 437 372 q 278 433 330 411 q 181 486 225 456 q 110 565 138 515 q 82 679 82 614 q 144 837 82 773 q 313 920 205 900 l 313 1036 q 318 1049 313 1044 q 330 1054 323 1054 q 343 1049 338 1054 q 349 1036 349 1044 l 349 925 q 400 926 374 926 q 431 926 416 926 l 431 1036 q 436 1049 431 1044 q 450 1054 441 1054 q 463 1049 457 1054 q 468 1036 468 1044 l 468 921 q 630 851 565 905 q 696 726 696 798 q 674 660 696 685 q 623 635 653 635 q 576 652 596 635 q 555 700 555 669 q 580 752 555 726 q 604 793 604 778 q 541 864 604 836 q 410 893 478 893 q 332 885 368 893 q 264 858 296 876 q 215 805 233 839 q 197 725 197 771 q 226 649 197 682 q 300 594 254 615 q 401 553 346 572 q 512 509 457 533 q 613 454 567 485 q 687 372 659 422 q 715 253 715 321 z "},"%":{"ha":1136,"x_min":33,"x_max":1104,"o":"m 296 -123 l 256 -123 l 823 1013 l 863 1013 l 296 -123 m 257 399 q 92 468 151 399 q 33 663 33 536 q 92 856 33 787 q 257 924 151 924 q 421 856 361 924 q 481 663 481 787 q 421 468 481 536 q 257 399 361 399 m 191 476 q 200 450 191 476 q 257 424 208 424 q 323 476 306 424 q 340 663 340 528 q 323 847 340 796 q 257 899 306 899 q 191 847 208 899 q 174 663 174 796 q 191 476 174 528 m 879 -9 q 715 59 774 -9 q 656 254 656 127 q 715 447 656 379 q 879 515 775 515 q 1044 447 985 515 q 1104 254 1104 379 q 1044 59 1104 128 q 879 -9 985 -9 m 815 67 q 823 42 815 67 q 880 16 832 16 q 945 67 928 16 q 962 254 962 119 q 945 439 962 388 q 880 490 928 490 q 815 439 832 490 q 798 254 798 387 q 815 67 798 119 z "},"&":{"ha":937,"x_min":86,"x_max":904,"o":"m 888 490 q 904 473 905 490 q 888 458 904 458 l 843 458 q 815 447 826 458 q 804 419 804 435 l 804 258 q 711 65 804 140 q 456 -11 618 -11 q 181 63 275 -11 q 86 254 86 136 q 151 401 86 345 q 313 475 215 457 q 162 551 221 493 q 103 697 103 608 q 152 827 103 774 q 276 903 201 880 q 441 926 350 926 q 659 863 576 926 q 741 704 741 799 q 714 631 741 658 q 650 604 688 604 q 599 622 621 604 q 578 672 578 640 q 605 732 578 703 q 632 782 632 761 q 588 861 632 829 q 464 892 543 892 q 316 841 368 892 q 264 697 264 790 q 315 548 264 606 q 453 490 367 490 l 461 490 q 478 473 478 490 q 461 458 478 458 l 453 458 q 311 408 367 458 q 254 250 254 358 q 306 84 254 142 q 456 26 357 26 q 661 258 661 26 l 661 419 q 650 447 661 435 q 623 458 639 458 l 562 458 q 546 473 545 458 q 562 490 546 490 l 888 490 z "},"'":{"ha":191,"x_min":53,"x_max":139,"o":"m 139 990 q 119 618 139 990 q 113 601 119 607 q 96 595 106 595 q 71 618 73 595 l 53 990 q 65 1022 53 1008 q 96 1035 78 1035 q 127 1022 114 1035 q 139 990 140 1008 z "},"(":{"ha":515,"x_min":36,"x_max":446,"o":"m 56 110 q 46 159 56 110 q 36 318 36 208 q 56 526 36 428 q 105 693 75 624 q 174 821 135 762 q 251 915 212 879 q 327 977 290 951 q 390 1013 364 1003 q 428 1023 415 1023 q 446 1007 446 1023 q 432 989 446 1000 q 395 959 418 978 q 345 912 372 940 q 290 832 318 884 q 240 714 262 781 q 204 546 218 648 q 189 318 189 443 q 204 91 189 193 q 240 -78 218 -12 q 290 -196 262 -144 q 345 -276 318 -248 q 395 -323 372 -304 q 432 -353 418 -342 q 446 -371 446 -364 q 428 -387 446 -388 q 390 -377 416 -387 q 327 -341 364 -367 q 251 -279 290 -315 q 174 -184 212 -243 q 105 -57 135 -126 q 56 110 75 12 z "},")":{"ha":526,"x_min":47,"x_max":457,"o":"m 438 526 q 448 477 438 526 q 457 318 457 428 q 438 110 457 208 q 389 -57 419 12 q 319 -184 358 -126 q 242 -279 281 -243 q 166 -341 203 -315 q 103 -377 129 -367 q 65 -387 78 -387 q 47 -371 47 -387 q 62 -353 47 -364 q 99 -323 77 -342 q 149 -276 121 -304 q 203 -196 176 -248 q 254 -78 231 -144 q 291 91 277 -12 q 304 318 304 193 q 291 546 304 443 q 254 714 277 648 q 203 832 231 781 q 149 912 176 884 q 99 959 121 940 q 62 989 77 978 q 47 1007 47 1000 q 65 1023 47 1024 q 103 1013 77 1023 q 166 977 129 1003 q 242 915 203 951 q 319 821 281 879 q 389 693 358 762 q 438 526 419 624 z "},"*":{"ha":559,"x_min":35,"x_max":525,"o":"m 279 669 l 151 494 q 138 486 146 486 q 126 491 131 486 q 121 501 121 496 q 125 514 121 509 l 253 689 l 46 755 q 35 771 35 760 q 41 785 35 779 q 57 786 47 790 l 264 720 l 264 936 q 281 954 264 954 q 296 936 296 954 l 296 720 l 500 786 q 509 787 507 787 q 520 783 515 787 q 525 772 525 779 q 511 755 525 760 l 306 689 l 433 514 q 437 501 437 509 q 433 490 437 494 q 422 485 429 485 q 407 494 414 485 l 279 669 z "},"+":{"ha":504,"x_min":40,"x_max":464,"o":"m 447 358 q 464 343 464 358 q 447 326 464 326 l 267 326 l 267 147 q 252 131 267 130 q 236 147 236 131 l 236 326 l 56 326 q 40 343 40 326 q 56 358 40 359 l 236 358 l 236 539 q 252 555 236 556 q 267 539 267 555 l 267 358 l 447 358 z "},",":{"ha":313,"x_min":86,"x_max":254,"o":"m 164 134 q 230 103 205 134 q 254 20 254 72 q 217 -126 254 -58 q 118 -241 180 -193 q 105 -243 111 -245 q 99 -235 100 -241 q 104 -222 98 -229 q 178 -116 153 -174 q 200 -5 203 -58 q 160 -18 183 -18 q 108 3 130 -18 q 86 56 86 24 q 109 111 86 89 q 164 134 131 134 z "},"-":{"ha":427,"x_min":35,"x_max":393,"o":"m 378 349 q 393 332 393 349 q 378 317 393 316 l 52 317 q 35 334 35 317 q 52 349 35 349 l 378 349 z "},".":{"ha":304,"x_min":78,"x_max":227,"o":"m 100 8 q 89 19 100 8 q 78 61 78 31 q 100 113 78 92 q 153 135 122 135 q 205 113 183 135 q 227 60 227 92 q 205 8 227 29 q 153 -14 183 -14 q 100 8 122 -14 z "},"/":{"ha":304,"x_min":62,"x_max":325,"o":"m 94 -82 l 62 -82 l 292 1010 l 325 1010 l 94 -82 z "},":":{"ha":330,"x_min":78,"x_max":227,"o":"m 100 465 q 89 476 100 465 q 78 518 78 488 q 100 570 78 549 q 153 591 122 591 q 205 570 183 591 q 227 517 227 549 q 205 465 227 486 q 153 443 183 443 q 100 465 122 443 m 100 15 q 89 26 100 15 q 78 68 78 37 q 100 120 78 98 q 153 142 122 142 q 205 120 183 142 q 227 68 227 98 q 205 15 227 37 q 153 -7 183 -7 q 100 15 122 -7 z "},";":{"ha":337,"x_min":93,"x_max":262,"o":"m 232 466 q 221 455 232 466 q 179 444 210 444 q 126 467 149 444 q 104 519 104 489 q 126 571 104 550 q 179 593 149 593 q 232 571 210 593 q 254 519 254 550 q 232 466 254 488 m 171 134 q 237 103 212 134 q 262 20 262 72 q 225 -126 262 -58 q 125 -241 187 -193 q 113 -243 119 -245 q 106 -235 107 -241 q 113 -222 106 -229 q 185 -116 160 -174 q 207 -5 210 -58 q 167 -18 191 -18 q 115 3 138 -18 q 93 56 93 24 q 116 111 93 89 q 171 134 139 134 z "},"<":{"ha":464,"x_min":37,"x_max":395,"o":"m 37 371 l 368 579 q 386 582 378 586 q 395 569 395 578 q 385 554 395 561 l 93 371 l 385 189 q 394 174 394 184 q 387 161 395 164 q 368 164 379 158 l 37 371 z "},"=":{"ha":619,"x_min":49,"x_max":549,"o":"m 65 432 q 49 447 48 432 q 65 463 49 463 l 533 463 q 549 447 549 463 q 533 432 549 431 l 65 432 m 533 297 q 549 281 549 297 q 533 265 549 265 l 65 265 q 49 282 48 265 q 65 297 49 298 l 533 297 z "},">":{"ha":464,"x_min":69,"x_max":427,"o":"m 427 371 l 96 164 q 78 161 86 157 q 69 174 69 165 q 79 189 69 182 l 371 371 l 79 554 q 70 569 70 559 q 77 582 69 579 q 96 579 85 585 l 427 371 z "},"?":{"ha":658,"x_min":57,"x_max":596,"o":"m 294 990 q 197 960 239 990 q 155 889 155 930 q 185 834 155 864 q 215 778 215 804 q 194 724 215 745 q 142 704 172 704 q 80 732 103 704 q 57 810 57 761 q 133 972 57 914 q 314 1029 208 1029 q 513 977 429 1029 q 596 829 596 924 q 578 742 596 783 q 535 669 561 701 q 476 604 509 636 q 410 537 443 572 q 351 462 378 501 q 307 368 323 422 q 290 249 290 313 l 290 178 q 286 165 290 171 q 272 160 281 160 q 259 165 264 160 q 254 178 254 171 l 254 279 q 274 433 254 363 q 323 551 294 503 q 382 643 353 600 q 431 733 411 686 q 452 831 452 781 q 407 951 452 913 q 294 990 362 990 m 196 -155 q 218 -101 196 -123 q 273 -79 240 -79 q 326 -101 304 -79 q 349 -155 349 -123 q 327 -208 349 -186 q 273 -231 304 -231 q 218 -208 240 -231 q 196 -155 196 -186 z "},"@":{"ha":1291,"x_min":54,"x_max":1236,"o":"m 958 17 q 821 63 879 17 q 762 186 762 109 q 561 35 701 35 q 391 106 459 35 q 322 313 322 178 q 392 518 322 445 q 561 591 461 591 q 684 551 633 591 q 762 439 734 510 l 762 582 l 878 582 l 878 187 q 904 84 878 119 q 974 49 930 49 q 1088 122 1040 49 q 1136 351 1136 196 q 1001 712 1136 576 q 646 848 865 848 q 290 705 427 848 q 154 323 154 561 q 290 -58 154 86 q 646 -201 427 -201 q 661 -209 656 -201 q 661 -224 665 -216 q 646 -232 657 -232 q 424 -192 530 -232 q 235 -80 317 -151 q 103 96 153 -9 q 54 323 54 201 q 103 551 54 446 q 235 728 153 657 q 424 839 317 799 q 646 879 530 879 q 868 841 761 879 q 1057 735 975 803 q 1187 567 1139 668 q 1236 351 1236 467 q 1211 192 1236 260 q 1144 88 1186 125 q 1056 34 1101 52 q 958 17 1010 17 m 595 71 q 714 143 663 71 q 765 313 765 216 q 713 482 765 410 q 595 554 661 554 q 486 496 527 554 q 446 312 446 439 q 486 128 446 186 q 595 71 527 71 z "},"A":{"ha":951,"x_min":5,"x_max":947,"o":"m 930 32 q 942 27 937 32 q 947 16 947 22 q 942 4 947 9 q 930 0 937 0 l 578 0 q 566 4 571 0 q 561 16 561 8 q 566 27 561 22 q 578 32 571 32 l 628 32 q 659 46 649 32 q 661 81 668 60 l 578 288 l 237 288 l 155 81 q 158 46 149 61 q 189 32 168 32 l 239 32 q 251 27 245 32 q 256 16 256 22 q 251 4 256 9 q 239 0 245 0 l 21 0 q 10 4 14 0 q 5 16 5 8 q 9 27 5 22 q 21 32 14 32 l 54 32 q 118 81 100 32 l 453 921 l 494 921 l 832 79 q 900 32 852 32 l 930 32 m 250 318 l 566 318 l 407 717 l 250 318 z "},"B":{"ha":880,"x_min":37,"x_max":818,"o":"m 518 476 l 517 476 q 818 254 818 458 q 722 65 818 131 q 450 0 627 0 l 54 0 q 37 17 37 0 q 54 32 37 33 l 85 32 q 113 43 102 32 q 123 69 123 54 l 123 846 q 113 872 123 861 q 85 884 102 884 l 54 884 q 37 899 37 884 q 54 916 37 916 l 419 916 q 550 904 491 916 q 658 867 610 892 q 733 800 707 843 q 760 699 760 757 q 699 554 760 614 q 518 476 637 494 m 282 846 l 282 485 l 387 485 q 532 541 473 485 q 590 689 590 596 q 539 831 590 778 q 383 884 489 884 l 319 884 q 292 872 302 884 q 282 846 282 861 m 411 32 q 585 92 524 32 q 647 253 647 153 q 585 398 647 345 q 411 452 524 452 l 282 452 l 282 69 q 292 43 282 54 q 321 32 302 32 l 411 32 z "},"C":{"ha":916,"x_min":66,"x_max":847,"o":"m 753 772 q 691 854 753 817 q 534 892 629 892 q 419 868 471 892 q 325 795 367 844 q 260 660 283 746 q 237 457 237 574 q 315 146 237 260 q 538 33 393 33 q 704 80 631 33 q 807 187 777 126 q 829 207 818 207 q 841 202 836 207 q 844 189 846 197 q 778 94 835 146 q 510 -11 671 -12 q 185 120 303 -11 q 66 457 66 250 q 190 799 66 672 q 510 926 314 926 q 754 858 661 926 q 847 699 847 790 q 823 620 847 647 q 765 593 799 593 q 714 612 736 593 q 693 664 693 632 q 723 722 693 692 q 753 772 753 753 z "},"D":{"ha":983,"x_min":37,"x_max":917,"o":"m 390 916 q 917 464 916 916 q 775 131 917 261 q 390 0 633 0 l 54 0 q 37 17 37 0 q 54 32 37 33 l 85 32 q 113 42 102 32 q 123 66 123 53 l 123 847 q 113 873 123 863 q 85 884 102 884 l 54 884 q 37 899 37 884 q 54 916 37 916 l 390 916 m 390 32 q 526 60 462 32 q 640 140 590 87 q 718 276 689 192 q 746 464 746 359 q 649 779 746 673 q 390 884 553 884 l 319 884 q 292 873 302 884 q 281 848 281 863 l 281 68 q 292 42 281 52 q 319 32 302 32 l 390 32 z "},"E":{"ha":826,"x_min":39,"x_max":718,"o":"m 703 260 q 718 244 718 260 l 718 0 l 54 0 q 39 17 39 0 q 54 32 39 33 l 85 32 q 113 42 102 32 q 123 66 123 53 l 123 847 q 113 873 123 863 q 85 884 102 884 l 54 884 q 39 899 39 884 q 54 916 39 916 l 715 916 l 715 671 q 699 656 715 655 q 684 671 683 656 l 684 711 q 639 835 684 787 q 513 884 595 884 l 321 884 q 292 873 302 884 q 282 848 282 863 l 282 493 l 359 493 q 467 520 439 493 q 494 607 494 547 l 494 616 q 499 628 494 623 q 510 633 504 633 q 522 629 517 633 q 526 616 526 624 l 526 338 q 522 326 526 331 q 510 321 517 321 q 494 339 494 321 l 494 349 q 467 433 494 407 q 359 460 439 460 l 282 460 l 282 68 q 292 42 282 52 q 319 32 302 32 l 517 32 q 643 80 599 32 q 688 205 688 129 l 688 244 q 703 260 687 260 z "},"F":{"ha":770,"x_min":37,"x_max":688,"o":"m 54 916 l 688 916 l 688 671 q 672 656 688 655 q 657 671 656 656 l 657 710 q 613 835 657 787 q 486 884 568 884 l 319 884 q 292 873 302 884 q 281 848 281 863 l 281 493 l 370 493 q 476 520 448 493 q 504 607 504 547 l 504 616 q 509 628 504 623 q 520 633 514 633 q 531 629 526 633 q 536 616 536 624 l 536 338 q 531 326 536 331 q 519 321 526 321 q 504 339 504 321 l 504 349 q 476 433 504 407 q 370 460 449 460 l 281 460 l 281 68 q 292 42 281 52 q 319 32 302 32 l 390 32 q 407 16 407 32 q 390 0 407 0 l 54 0 q 37 17 37 0 q 54 32 37 33 l 85 32 q 113 42 102 32 q 123 66 123 53 l 123 847 q 113 873 123 863 q 85 884 102 884 l 54 884 q 37 899 37 884 q 54 916 37 916 z "},"G":{"ha":977,"x_min":66,"x_max":865,"o":"m 865 79 q 528 -11 701 -11 q 194 116 322 -11 q 66 457 66 243 q 103 657 66 567 q 203 806 140 747 q 349 895 267 864 q 524 926 431 926 q 759 861 664 926 q 854 699 854 796 q 831 620 854 647 q 774 593 807 593 q 723 612 745 593 q 701 664 701 632 q 730 722 701 692 q 760 772 760 753 q 695 856 760 820 q 545 892 631 892 q 457 879 498 892 q 374 835 415 867 q 303 755 334 803 q 255 630 273 707 q 237 457 237 554 q 326 143 237 256 q 558 31 414 31 q 708 58 632 31 l 708 340 q 697 368 708 356 q 669 379 686 379 l 589 379 q 572 395 572 379 q 589 410 572 410 l 865 410 l 865 79 z "},"H":{"ha":994,"x_min":37,"x_max":957,"o":"m 940 32 q 957 17 957 32 q 940 0 957 0 l 644 0 q 628 17 627 0 q 644 32 628 33 l 675 32 q 703 42 692 32 q 714 66 714 53 l 714 467 l 282 467 l 282 68 q 292 42 282 52 q 319 32 302 32 l 350 32 q 367 17 367 32 q 350 0 367 0 l 54 0 q 37 17 37 0 q 54 32 37 33 l 85 32 q 113 42 102 32 q 123 66 123 53 l 123 847 q 113 873 123 863 q 85 884 102 884 l 54 884 q 39 899 39 884 q 54 916 39 916 l 350 916 q 367 899 367 916 q 350 884 367 883 l 321 884 q 292 873 302 884 q 282 847 282 863 l 282 498 l 714 498 l 714 847 q 703 873 714 863 q 675 884 692 884 l 644 884 q 628 899 627 884 q 644 916 628 916 l 940 916 q 957 899 957 916 q 940 884 957 883 l 909 884 q 882 873 892 884 q 871 848 871 863 l 871 68 q 882 42 871 52 q 909 32 893 32 l 940 32 z "},"I":{"ha":404,"x_min":39,"x_max":367,"o":"m 350 32 q 367 17 367 32 q 350 0 367 0 l 54 0 q 39 17 39 0 q 54 32 39 33 l 85 32 q 113 42 102 32 q 123 66 123 53 l 123 847 q 113 873 123 863 q 85 884 102 884 l 54 884 q 39 899 39 884 q 54 916 39 916 l 350 916 q 367 899 367 916 q 350 884 367 883 l 321 884 q 292 873 302 884 q 282 848 282 863 l 282 68 q 292 42 282 52 q 319 32 302 32 l 350 32 z "},"J":{"ha":402,"x_min":-122,"x_max":366,"o":"m 349 916 q 366 899 366 916 q 349 884 366 883 l 319 884 q 290 872 301 884 q 279 846 279 861 l 279 -139 q 218 -278 279 -228 q 68 -328 157 -328 q -66 -287 -10 -328 q -122 -176 -122 -245 q -101 -115 -122 -136 q -49 -93 -81 -93 q -1 -110 -20 -93 q 20 -158 18 -127 q 1 -204 20 -179 q -17 -245 -17 -229 q 2 -280 -17 -267 q 50 -294 21 -294 q 134 -155 134 -294 q 128 -70 134 -126 q 122 28 122 -14 l 122 846 q 111 872 122 861 q 83 884 100 884 l 53 884 q 36 899 36 884 q 53 916 36 916 l 349 916 z "},"K":{"ha":895,"x_min":39,"x_max":889,"o":"m 350 32 q 367 17 367 32 q 350 0 367 0 l 54 0 q 39 17 39 0 q 54 32 39 33 l 85 32 q 113 42 102 32 q 123 66 123 53 l 123 847 q 113 873 123 863 q 85 884 102 884 l 54 884 q 39 899 39 884 q 54 916 39 916 l 350 916 q 367 899 367 916 q 350 884 367 883 l 321 884 q 292 873 302 884 q 282 848 282 863 l 282 68 q 292 42 282 52 q 319 32 302 32 l 350 32 m 873 32 q 889 16 889 32 q 873 0 889 0 l 555 0 q 541 17 540 0 q 555 32 541 33 l 576 32 q 604 44 599 32 q 597 71 610 56 l 304 450 l 708 847 q 716 871 720 858 q 690 884 711 884 l 635 884 q 619 900 619 884 q 635 916 619 916 l 863 916 q 879 899 880 916 q 863 884 879 883 l 848 884 q 799 876 818 884 q 757 847 779 868 l 436 529 l 794 64 q 857 32 818 32 l 873 32 z "},"L":{"ha":709,"x_min":37,"x_max":696,"o":"m 681 253 q 696 237 696 253 l 696 0 l 54 0 q 37 17 37 0 q 54 32 37 33 l 85 32 q 113 42 102 32 q 123 66 123 53 l 123 847 q 113 873 123 863 q 85 884 102 884 l 54 884 q 39 899 39 884 q 54 916 39 916 l 350 916 q 367 899 367 916 q 350 884 367 883 l 321 884 q 292 873 302 884 q 282 848 282 863 l 282 68 q 292 42 282 52 q 319 32 302 32 l 494 32 q 620 87 574 32 q 665 215 665 142 l 665 237 q 681 253 665 253 z "},"M":{"ha":1161,"x_min":37,"x_max":1124,"o":"m 551 -5 l 510 -5 l 160 835 l 160 69 q 171 43 160 54 q 200 32 182 32 l 229 32 q 245 16 246 32 q 229 0 245 0 l 54 0 q 37 16 37 0 q 54 32 37 33 l 85 32 q 113 43 102 32 q 123 69 123 54 l 123 846 q 113 872 123 861 q 85 884 102 884 l 54 884 q 37 900 37 884 q 54 916 37 916 l 296 916 l 593 199 l 872 916 l 1107 916 q 1124 899 1124 916 q 1107 884 1124 883 l 1076 884 q 1048 872 1059 884 q 1038 846 1038 861 l 1038 69 q 1049 43 1038 54 q 1076 32 1060 32 l 1107 32 q 1124 17 1124 32 q 1107 0 1124 0 l 811 0 q 794 17 794 0 q 811 32 794 33 l 842 32 q 869 43 859 32 q 880 69 879 54 l 880 839 l 551 -5 z "},"N":{"ha":894,"x_min":37,"x_max":857,"o":"m 840 916 q 857 900 857 916 q 840 884 857 883 l 810 884 q 782 872 793 884 q 771 846 771 861 l 771 0 l 696 0 l 160 755 l 160 69 q 171 43 160 54 q 200 32 182 32 l 229 32 q 245 16 246 32 q 229 0 245 0 l 54 0 q 37 16 37 0 q 54 32 37 33 l 85 32 q 113 43 102 32 q 123 69 123 54 l 123 846 q 113 872 123 861 q 85 884 102 884 l 54 884 q 37 900 37 884 q 54 916 37 916 l 229 916 l 734 203 l 734 846 q 724 872 734 861 q 694 884 713 884 l 665 884 q 648 900 648 884 q 665 916 648 916 l 840 916 z "},"O":{"ha":1019,"x_min":66,"x_max":953,"o":"m 510 926 q 833 795 713 926 q 953 461 953 664 q 900 221 953 328 q 746 52 847 114 q 510 -11 644 -11 q 274 52 375 -11 q 119 221 172 114 q 66 461 66 328 q 187 795 66 664 q 510 926 307 926 m 382 56 q 409 39 382 56 q 510 21 436 21 q 638 56 583 21 q 724 154 693 92 q 768 293 754 216 q 782 461 782 370 q 768 628 782 553 q 723 764 754 703 q 637 859 692 825 q 510 893 583 893 q 382 859 436 893 q 297 764 328 825 q 252 628 267 703 q 237 461 237 553 q 252 293 237 370 q 297 154 267 216 q 382 56 328 92 z "},"P":{"ha":814,"x_min":37,"x_max":766,"o":"m 766 654 q 672 447 766 527 q 411 367 578 367 l 281 367 l 281 68 q 292 42 281 52 q 319 32 302 32 l 385 32 q 401 16 401 32 q 385 0 401 0 l 54 0 q 37 17 37 0 q 54 32 37 33 l 85 32 q 113 42 102 32 q 123 66 123 53 l 123 847 q 113 873 123 863 q 85 884 102 884 l 54 884 q 37 899 37 884 q 54 916 37 916 l 411 916 q 672 843 578 916 q 766 654 766 770 m 281 399 l 376 399 q 541 468 482 399 q 599 654 599 538 q 544 820 599 756 q 376 884 489 884 l 319 884 q 292 873 302 884 q 281 848 281 863 l 281 399 z "},"Q":{"ha":1019,"x_min":66,"x_max":1057,"o":"m 510 926 q 833 795 713 926 q 953 461 953 664 q 900 221 953 328 q 746 52 847 114 q 510 -11 644 -11 q 274 52 375 -11 q 119 221 172 114 q 66 461 66 328 q 187 795 66 664 q 510 926 307 926 m 382 56 q 409 39 382 56 q 510 21 436 21 q 638 56 583 21 q 724 154 693 92 q 768 293 754 216 q 782 461 782 370 q 768 628 782 553 q 723 764 754 703 q 637 859 692 825 q 510 893 583 893 q 382 859 436 893 q 297 764 328 825 q 252 628 267 703 q 237 461 237 553 q 252 293 237 370 q 297 154 267 216 q 382 56 328 92 m 835 -350 q 703 -323 768 -350 q 587 -260 637 -297 q 490 -185 536 -222 q 396 -121 443 -147 q 310 -94 350 -94 q 241 -124 269 -94 q 214 -201 214 -154 q 198 -217 214 -217 q 183 -201 183 -216 q 238 -83 183 -130 q 371 -36 293 -36 q 483 -64 425 -36 q 590 -131 541 -92 q 688 -210 640 -171 q 786 -277 736 -249 q 878 -304 836 -304 q 958 -277 930 -304 q 986 -215 986 -249 q 969 -172 986 -190 q 937 -137 953 -154 q 921 -97 921 -121 q 940 -51 921 -68 q 986 -33 958 -33 q 1037 -57 1017 -33 q 1057 -125 1057 -81 q 1045 -199 1057 -162 q 1009 -271 1034 -236 q 939 -328 985 -306 q 835 -350 893 -350 z "},"R":{"ha":859,"x_min":37,"x_max":864,"o":"m 851 61 l 850 61 q 864 49 863 61 q 826 9 864 29 q 741 -11 789 -11 q 648 8 685 -11 q 596 58 611 26 q 570 129 581 89 q 556 210 559 168 q 540 292 553 252 q 508 362 528 332 q 443 413 488 393 q 332 432 399 432 l 281 432 l 281 68 q 292 42 281 52 q 319 32 302 32 l 350 32 q 367 17 367 32 q 350 0 367 0 l 54 0 q 37 17 37 0 q 54 32 37 33 l 85 32 q 113 42 102 32 q 123 66 123 53 l 123 847 q 113 873 123 863 q 85 884 102 884 l 54 884 q 37 899 37 884 q 54 916 37 916 l 410 916 q 649 858 564 916 q 734 690 734 800 q 665 533 734 596 q 471 452 596 471 q 591 411 543 441 q 663 345 640 382 q 700 264 686 307 q 716 181 713 221 q 724 107 720 140 q 743 54 729 74 q 783 33 757 33 q 826 47 807 33 q 851 61 846 61 m 281 464 l 361 464 q 460 483 418 464 q 525 536 503 503 q 558 606 547 570 q 570 686 570 643 q 519 831 570 778 q 358 884 468 884 l 319 884 q 292 873 302 884 q 281 848 281 863 l 281 464 z "},"S":{"ha":783,"x_min":61,"x_max":715,"o":"m 363 -11 q 148 52 235 -11 q 61 201 61 114 q 83 267 61 243 q 135 290 104 290 q 181 274 161 290 q 201 227 201 257 q 177 174 201 201 q 153 131 153 146 q 216 54 153 86 q 347 22 279 22 q 512 72 446 22 q 579 210 579 121 q 552 293 579 258 q 481 350 525 328 q 384 392 437 372 q 278 433 330 411 q 181 486 225 456 q 110 565 138 515 q 82 679 82 614 q 169 859 82 791 q 400 926 256 926 q 608 868 521 926 q 696 726 696 810 q 674 660 696 685 q 623 635 653 635 q 576 652 596 635 q 555 700 555 669 q 580 752 555 726 q 604 793 604 778 q 541 864 604 836 q 410 893 478 893 q 332 885 368 893 q 264 858 296 876 q 215 805 233 839 q 197 725 197 771 q 226 649 197 682 q 300 594 254 615 q 401 553 346 572 q 512 509 457 533 q 613 454 567 485 q 687 372 659 422 q 715 253 715 321 q 693 158 715 204 q 628 74 671 113 q 517 12 586 35 q 363 -11 449 -11 z "},"T":{"ha":798,"x_min":25,"x_max":774,"o":"m 774 916 l 774 671 q 757 656 774 655 q 742 671 741 656 l 742 710 q 697 835 742 787 q 571 884 653 884 l 517 884 q 489 873 500 884 q 478 848 478 863 l 478 68 q 489 42 478 52 q 517 32 500 32 l 547 32 q 564 17 564 32 q 547 0 564 0 l 252 0 q 235 17 235 0 q 252 32 235 33 l 282 32 q 310 42 299 32 q 321 66 321 53 l 321 847 q 310 873 321 863 q 282 884 298 884 l 241 884 q 103 834 151 884 q 56 696 56 785 l 56 671 q 40 656 56 655 q 25 671 24 656 l 25 916 l 774 916 z "},"U":{"ha":935,"x_min":37,"x_max":897,"o":"m 880 916 q 897 900 897 916 q 880 884 897 883 l 851 884 q 822 872 833 884 q 811 846 811 861 l 811 334 q 785 174 811 242 q 712 66 760 106 q 606 8 665 26 q 475 -11 547 -11 q 375 -1 423 -11 q 280 33 328 8 q 199 97 233 58 q 144 197 165 135 q 123 338 123 258 l 123 846 q 113 872 123 861 q 85 884 102 884 l 54 884 q 37 899 37 884 q 54 916 37 916 l 350 916 q 367 899 367 916 q 350 884 367 883 l 321 884 q 292 872 302 884 q 281 846 281 861 l 281 318 q 345 104 281 172 q 517 36 408 36 q 703 108 631 36 q 775 326 775 180 l 775 846 q 764 872 775 861 q 736 884 753 884 l 705 884 q 689 900 688 884 q 705 916 689 916 l 880 916 z "},"V":{"ha":951,"x_min":5,"x_max":947,"o":"m 930 916 q 942 911 937 916 q 947 900 947 907 q 942 888 947 893 q 930 884 937 884 l 897 884 q 833 835 852 884 l 500 -5 l 457 -5 l 119 836 q 52 884 100 884 l 21 884 q 10 888 14 884 q 5 900 5 893 q 9 911 5 907 q 21 916 14 916 l 375 916 q 387 911 382 916 q 392 900 392 907 q 387 888 392 893 q 375 884 382 884 l 325 884 q 294 870 304 884 q 292 835 283 856 l 545 199 l 796 835 q 794 869 804 854 q 762 884 783 884 l 713 884 q 702 888 706 884 q 697 900 697 893 q 702 911 697 907 q 713 916 707 916 l 930 916 z "},"W":{"ha":1311,"x_min":5,"x_max":1305,"o":"m 1291 916 q 1305 899 1306 916 q 1291 884 1305 883 l 1251 884 q 1197 846 1210 884 l 930 -3 l 888 -3 l 656 665 l 449 -3 l 407 -3 l 111 846 q 62 884 98 883 l 21 884 q 5 900 5 884 q 21 916 5 916 l 366 916 q 382 899 382 916 q 366 884 382 883 l 309 884 q 282 873 290 884 q 279 846 273 863 l 488 224 l 701 916 l 737 916 l 968 227 l 1161 846 q 1158 872 1166 861 q 1133 884 1150 884 l 1075 884 q 1059 900 1058 884 q 1075 916 1059 916 l 1291 916 z "},"X":{"ha":878,"x_min":14,"x_max":871,"o":"m 854 32 q 871 16 871 32 q 854 0 871 0 l 529 0 q 513 17 512 0 q 529 32 513 33 l 566 32 q 594 43 587 32 q 591 69 602 54 l 390 403 l 175 69 q 174 43 165 54 q 200 32 182 32 l 236 32 q 252 16 252 32 q 236 0 252 0 l 31 0 q 14 17 14 0 q 31 32 14 33 l 62 32 q 135 69 109 32 l 370 437 l 122 846 q 56 884 98 883 l 40 884 q 25 900 24 884 q 40 916 25 916 l 350 916 q 367 899 367 916 q 350 884 367 883 l 332 884 q 304 873 312 884 q 306 846 296 863 l 492 538 l 688 846 q 690 872 697 861 q 664 884 682 884 l 635 884 q 618 900 618 884 q 635 916 618 916 l 821 916 q 836 899 836 916 q 821 884 836 883 l 800 884 q 729 846 754 884 l 511 504 l 774 69 q 842 32 798 32 l 854 32 z "},"Y":{"ha":836,"x_min":4,"x_max":833,"o":"m 817 916 q 833 900 833 916 q 817 884 833 883 l 790 884 q 733 847 751 884 l 504 410 l 504 69 q 515 43 504 54 q 543 32 526 32 l 574 32 q 590 17 591 32 q 574 0 590 0 l 278 0 q 261 17 261 0 q 278 32 261 33 l 307 32 q 336 43 326 32 q 347 69 347 54 l 347 374 l 94 847 q 41 884 75 883 l 20 884 q 4 900 4 884 q 20 916 4 916 l 329 916 q 345 900 345 916 q 329 884 345 883 l 298 884 q 272 874 279 884 q 273 847 265 864 l 484 444 l 692 847 q 691 872 699 861 q 664 884 684 884 l 639 884 q 624 900 623 884 q 639 916 624 916 l 817 916 z "},"Z":{"ha":842,"x_min":69,"x_max":770,"o":"m 754 260 q 770 244 770 260 l 770 0 l 69 0 l 69 39 l 578 884 l 309 884 q 170 834 218 884 q 122 696 122 785 l 122 671 q 106 656 122 655 q 90 671 90 656 l 90 916 l 762 916 l 762 884 l 249 32 l 567 32 q 693 80 649 32 q 737 205 737 129 l 737 244 q 754 260 737 260 z "},"[":{"ha":401,"x_min":68,"x_max":346,"o":"m 330 -345 q 346 -359 346 -345 q 330 -376 346 -376 l 68 -376 l 68 1013 l 330 1013 q 346 997 346 1013 q 330 981 346 980 l 253 981 q 223 969 235 981 q 212 943 212 958 l 212 -307 q 223 -334 212 -323 q 253 -345 235 -345 l 330 -345 z "},"\\":{"ha":300,"x_min":25,"x_max":275,"o":"m 243 0 l 25 1013 l 57 1013 l 275 0 l 243 0 z "},"]":{"ha":401,"x_min":54,"x_max":332,"o":"m 71 -345 l 149 -345 q 177 -333 167 -345 q 187 -307 187 -322 l 187 943 q 177 970 187 959 q 149 981 167 981 l 71 981 q 54 997 54 981 q 71 1013 54 1013 l 332 1013 l 332 -376 l 71 -376 q 54 -359 54 -376 q 71 -345 54 -345 z "},"^":{"ha":591,"x_min":64,"x_max":528,"o":"m 526 707 q 528 687 533 696 q 513 678 524 677 q 492 689 503 679 l 297 926 l 100 689 q 78 678 90 678 q 64 687 66 677 q 66 707 61 696 l 245 990 q 296 1022 265 1022 q 347 990 328 1022 l 526 707 z "},"_":{"ha":871,"x_min":78,"x_max":791,"o":"m 777 32 q 791 16 792 32 q 777 0 791 0 l 94 0 q 78 17 77 0 q 94 32 78 33 l 777 32 z "},"`":{"ha":425,"x_min":97,"x_max":334,"o":"m 313 785 l 110 937 q 97 991 78 961 q 147 1010 115 1021 q 172 991 161 1006 l 332 806 q 334 784 342 793 q 313 785 326 775 z "},"a":{"ha":831,"x_min":61,"x_max":799,"o":"m 782 32 q 799 17 799 32 q 782 0 799 0 l 572 0 l 572 165 q 336 -12 498 -12 q 138 76 216 -12 q 61 314 61 164 q 139 548 61 458 q 336 637 216 637 q 572 460 500 637 l 572 627 l 713 627 l 713 71 q 724 43 713 54 q 751 32 734 32 l 782 32 m 375 29 q 514 115 454 29 q 574 313 574 200 q 513 511 574 425 q 375 596 453 596 q 207 313 207 596 q 375 29 207 29 z "},"b":{"ha":842,"x_min":45,"x_max":781,"o":"m 505 639 q 703 551 626 639 q 781 313 781 463 q 703 79 781 168 q 505 -11 625 -11 q 269 167 342 -11 l 269 0 l 60 0 q 45 17 44 0 q 60 32 45 33 l 90 32 q 118 43 107 32 q 129 71 129 54 l 129 942 q 118 970 129 959 q 90 981 107 981 l 60 981 q 45 996 44 981 q 60 1013 45 1013 l 269 1013 l 269 461 q 505 639 342 639 m 467 31 q 635 314 635 31 q 467 597 635 597 q 328 512 387 597 q 268 314 268 427 q 328 116 268 201 q 467 31 389 31 z "},"c":{"ha":720,"x_min":61,"x_max":654,"o":"m 654 440 q 631 366 654 391 q 571 340 607 340 q 522 362 542 340 q 501 410 501 383 q 530 469 501 440 q 558 515 558 497 q 510 580 558 553 q 399 607 461 607 q 262 539 317 607 q 208 315 208 471 q 263 101 208 175 q 410 28 318 28 q 544 74 490 28 q 624 184 597 121 q 639 197 628 197 q 652 191 648 197 q 653 178 656 184 q 629 125 645 151 q 582 64 612 98 q 502 10 551 31 q 389 -11 452 -11 q 147 79 233 -11 q 61 315 61 168 q 108 494 61 418 q 227 604 155 570 q 383 637 298 637 q 577 579 500 637 q 654 440 654 521 z "},"d":{"ha":831,"x_min":61,"x_max":799,"o":"m 782 32 q 799 17 799 32 q 782 0 799 0 l 572 0 l 572 165 q 336 -12 498 -12 q 138 76 216 -12 q 61 314 61 164 q 139 548 61 458 q 336 637 216 637 q 572 460 500 637 l 572 942 q 561 970 572 959 q 533 981 550 981 l 503 981 q 486 996 486 981 q 503 1013 486 1013 l 713 1013 l 713 71 q 724 43 713 54 q 751 32 734 32 l 782 32 m 375 29 q 514 115 454 29 q 574 313 574 200 q 513 511 574 425 q 375 596 453 596 q 207 313 207 596 q 375 29 207 29 z "},"e":{"ha":745,"x_min":61,"x_max":679,"o":"m 679 339 q 671 320 679 326 q 647 314 664 314 l 208 314 q 261 110 208 189 q 418 31 314 31 q 558 77 503 31 q 637 186 614 123 q 653 200 643 199 q 667 183 669 200 q 654 148 664 170 q 623 98 644 126 q 572 46 602 69 q 497 6 543 22 q 397 -11 452 -11 q 270 8 330 -11 q 164 67 211 28 q 89 170 117 106 q 61 315 61 233 q 146 550 61 463 q 380 637 232 637 q 600 558 521 637 q 679 339 679 478 m 208 343 l 538 343 q 493 543 535 477 q 376 608 452 608 q 259 538 304 608 q 208 343 214 468 z "},"f":{"ha":447,"x_min":45,"x_max":536,"o":"m 347 1023 q 481 986 425 1023 q 536 885 536 949 q 515 817 536 840 q 458 793 494 793 q 416 808 435 793 q 397 850 397 823 q 419 899 397 875 q 441 939 441 922 q 418 978 441 962 q 363 993 395 993 q 297 967 326 993 q 269 890 269 942 l 269 627 l 397 627 q 414 610 414 627 q 397 595 414 594 l 269 595 l 269 71 q 280 43 269 54 q 309 32 292 32 l 383 32 q 399 16 399 32 q 383 0 399 0 l 60 0 q 45 17 44 0 q 60 32 45 33 l 90 32 q 118 43 107 32 q 129 71 129 54 l 129 595 l 60 595 q 45 611 44 595 q 60 627 45 627 l 129 627 l 129 829 q 194 974 129 924 q 347 1023 258 1023 z "},"g":{"ha":825,"x_min":66,"x_max":718,"o":"m 578 627 l 718 627 l 718 -41 q 620 -305 718 -215 q 353 -395 521 -395 q 148 -333 229 -395 q 66 -183 66 -272 q 91 -117 66 -140 q 147 -93 115 -93 q 194 -110 175 -93 q 214 -160 214 -127 q 190 -213 214 -188 q 167 -260 167 -237 q 216 -329 167 -294 q 345 -363 265 -363 q 516 -290 454 -363 q 578 -94 578 -216 l 578 165 q 340 -12 504 -12 q 144 76 221 -12 q 66 314 66 164 q 144 548 66 458 q 340 637 222 637 q 578 460 505 637 l 578 627 m 380 29 q 519 115 460 29 q 579 313 579 200 q 519 511 579 425 q 380 596 458 596 q 212 313 212 596 q 380 29 212 29 z "},"h":{"ha":833,"x_min":45,"x_max":800,"o":"m 783 32 q 800 17 800 32 q 783 0 800 0 l 504 0 q 489 17 488 0 q 504 32 489 33 l 534 32 q 563 43 551 32 q 574 71 574 54 l 574 421 q 541 541 574 503 q 458 579 509 579 q 322 500 375 579 q 269 309 269 421 l 269 71 q 280 43 269 54 q 309 32 292 32 l 339 32 q 355 17 356 32 q 339 0 355 0 l 60 0 q 45 17 44 0 q 60 32 45 33 l 90 32 q 118 43 107 32 q 129 71 129 54 l 129 942 q 118 970 129 959 q 90 981 107 981 l 60 981 q 45 996 44 981 q 60 1013 45 1013 l 269 1013 l 269 456 q 365 587 301 538 q 514 636 429 636 q 660 584 606 636 q 714 437 714 532 l 714 71 q 725 43 714 54 q 753 32 736 32 l 783 32 z "},"i":{"ha":389,"x_min":45,"x_max":355,"o":"m 121 856 q 144 912 121 889 q 200 935 167 935 q 256 911 233 935 q 279 856 279 888 q 256 800 279 824 q 200 777 232 777 q 144 800 167 777 q 121 856 121 823 m 339 32 q 355 17 356 32 q 339 0 355 0 l 60 0 q 45 17 44 0 q 60 32 45 33 l 90 32 q 118 43 107 32 q 129 71 129 54 l 129 555 q 118 584 129 572 q 90 595 107 595 l 60 595 q 45 610 44 595 q 60 627 45 627 l 269 627 l 269 71 q 280 43 269 54 q 309 32 292 32 l 339 32 z "},"j":{"ha":376,"x_min":-144,"x_max":272,"o":"m 114 856 q 138 912 114 889 q 195 935 161 935 q 249 911 227 935 q 272 856 272 888 q 249 800 272 824 q 195 777 227 777 q 138 800 161 777 q 114 856 114 823 m 53 627 l 262 627 l 262 -193 q 198 -337 262 -288 q 45 -387 134 -387 q -89 -350 -33 -387 q -144 -249 -144 -313 q -124 -180 -144 -204 q -66 -155 -103 -155 q -24 -171 -43 -155 q -5 -212 -5 -186 q -28 -262 -5 -239 q -50 -302 -50 -285 q -26 -341 -50 -325 q 29 -357 -3 -357 q 94 -331 66 -357 q 122 -254 122 -306 l 122 555 q 111 584 122 572 q 83 595 100 595 l 53 595 q 36 610 36 595 q 53 627 36 627 z "},"k":{"ha":774,"x_min":45,"x_max":770,"o":"m 339 32 q 355 17 356 32 q 339 0 355 0 l 60 0 q 45 17 44 0 q 60 32 45 33 l 90 32 q 118 43 107 32 q 129 71 129 54 l 129 942 q 118 970 129 959 q 90 981 107 981 l 60 981 q 45 996 44 981 q 60 1013 45 1013 l 269 1013 l 269 71 q 280 43 269 54 q 309 32 292 32 l 339 32 m 753 32 q 770 16 770 32 q 753 0 770 0 l 463 0 q 447 17 447 0 q 463 32 447 33 l 489 32 q 511 44 507 32 q 501 71 514 56 l 292 322 l 590 558 q 598 581 604 568 q 572 595 593 595 l 521 595 q 504 611 504 595 q 521 627 504 627 l 746 627 q 761 610 762 627 q 746 595 761 594 l 734 595 q 688 587 707 595 q 642 558 669 579 l 418 382 l 684 64 q 746 32 709 32 l 753 32 z "},"l":{"ha":389,"x_min":45,"x_max":355,"o":"m 339 32 q 355 17 356 32 q 339 0 355 0 l 60 0 q 45 17 44 0 q 60 32 45 33 l 90 32 q 118 43 107 32 q 129 71 129 54 l 129 942 q 118 970 129 959 q 90 981 107 981 l 60 981 q 45 996 44 981 q 60 1013 45 1013 l 269 1013 l 269 71 q 280 43 269 54 q 309 32 292 32 l 339 32 z "},"m":{"ha":1244,"x_min":45,"x_max":1211,"o":"m 1194 32 q 1211 17 1211 32 q 1194 0 1211 0 l 916 0 q 900 17 900 0 q 916 32 900 33 l 946 32 q 974 43 963 32 q 985 71 985 54 l 985 424 q 956 542 985 505 q 878 579 926 579 q 746 501 795 579 q 697 309 697 422 l 697 71 q 708 43 697 54 q 736 32 720 32 l 766 32 q 783 17 783 32 q 766 0 783 0 l 488 0 q 472 17 472 0 q 488 32 472 33 l 518 32 q 546 43 535 32 q 557 71 557 54 l 557 424 q 528 542 557 505 q 450 579 498 579 q 319 501 368 579 q 269 309 269 422 l 269 71 q 280 43 269 54 q 309 32 292 32 l 339 32 q 355 17 356 32 q 339 0 355 0 l 60 0 q 45 17 44 0 q 60 32 45 33 l 90 32 q 118 43 107 32 q 129 71 129 54 l 129 555 q 118 584 129 572 q 90 595 107 595 l 60 595 q 45 610 44 595 q 60 627 45 627 l 269 627 l 269 460 q 361 588 300 541 q 505 636 422 636 q 694 456 680 636 q 787 588 725 539 q 933 636 848 636 q 1074 585 1023 636 q 1125 441 1125 534 l 1125 71 q 1136 43 1125 54 q 1164 32 1147 32 l 1194 32 z "},"n":{"ha":833,"x_min":45,"x_max":800,"o":"m 783 32 q 800 17 800 32 q 783 0 800 0 l 504 0 q 489 17 488 0 q 504 32 489 33 l 534 32 q 563 43 551 32 q 574 71 574 54 l 574 421 q 541 541 574 503 q 458 579 509 579 q 322 500 375 579 q 269 309 269 421 l 269 71 q 280 43 269 54 q 309 32 292 32 l 339 32 q 355 17 356 32 q 339 0 355 0 l 60 0 q 45 17 44 0 q 60 32 45 33 l 90 32 q 118 43 107 32 q 129 71 129 54 l 129 555 q 118 584 129 572 q 90 595 107 595 l 60 595 q 45 610 44 595 q 60 627 45 627 l 269 627 l 269 456 q 365 587 301 538 q 514 636 429 636 q 660 584 606 636 q 714 437 714 532 l 714 71 q 725 43 714 54 q 753 32 736 32 l 783 32 z "},"o":{"ha":766,"x_min":61,"x_max":705,"o":"m 383 -11 q 150 77 239 -11 q 61 315 61 164 q 149 547 61 457 q 383 637 236 637 q 616 553 528 637 q 705 315 705 469 q 618 76 705 163 q 383 -11 530 -11 m 382 20 q 513 96 465 20 q 561 314 561 172 q 513 532 561 457 q 383 607 465 607 q 254 532 302 607 q 205 314 205 457 q 252 100 205 180 q 382 20 298 20 z "},"p":{"ha":842,"x_min":45,"x_max":781,"o":"m 505 637 q 703 548 625 637 q 781 314 781 458 q 704 76 781 164 q 505 -12 627 -12 q 269 165 342 -12 l 269 -306 q 280 -334 269 -323 q 309 -345 292 -345 l 339 -345 q 355 -359 356 -345 q 339 -376 355 -376 l 129 -376 l 129 555 q 118 584 129 572 q 90 595 107 595 l 60 595 q 45 610 44 595 q 60 627 45 627 l 269 627 l 269 460 q 505 637 342 637 m 467 29 q 635 313 635 29 q 467 596 635 596 q 328 511 389 596 q 268 313 268 425 q 328 115 268 200 q 467 29 387 29 z "},"q":{"ha":827,"x_min":61,"x_max":799,"o":"m 782 -345 q 799 -359 799 -345 q 782 -376 799 -376 l 572 -376 l 572 165 q 336 -12 498 -12 q 138 76 216 -12 q 61 314 61 164 q 139 548 61 458 q 336 637 216 637 q 572 460 500 637 l 572 627 l 713 627 l 713 -306 q 724 -334 713 -323 q 751 -345 734 -345 l 782 -345 m 375 29 q 514 115 454 29 q 574 313 574 200 q 513 511 574 425 q 375 596 453 596 q 207 313 207 596 q 375 29 207 29 z "},"r":{"ha":640,"x_min":45,"x_max":619,"o":"m 475 636 q 580 594 541 636 q 619 492 619 553 q 594 412 619 446 q 525 378 570 378 q 474 397 494 378 q 454 447 454 416 q 480 504 454 475 q 505 550 505 533 q 489 580 505 568 q 446 591 472 591 q 320 502 370 591 q 269 286 269 412 l 269 71 q 280 43 269 54 q 309 32 292 32 l 382 32 q 399 16 399 32 q 382 0 399 0 l 60 0 q 45 17 44 0 q 60 32 45 33 l 90 32 q 118 43 107 32 q 129 71 129 54 l 129 555 q 118 584 129 572 q 90 595 107 595 l 60 595 q 45 610 44 595 q 60 627 45 627 l 269 627 l 269 447 q 353 589 297 541 q 475 636 408 636 z "},"s":{"ha":690,"x_min":61,"x_max":629,"o":"m 368 606 q 395 521 368 563 q 460 445 422 479 q 537 374 498 410 q 602 293 575 339 q 629 196 629 248 q 544 45 629 100 q 335 -11 458 -11 q 140 43 220 -11 q 61 191 61 97 q 80 248 61 227 q 123 272 98 269 l 302 587 q 347 676 315 626 q 378 704 366 704 q 390 700 386 704 q 393 689 395 696 q 386 674 392 685 q 378 658 380 663 q 374 644 376 653 q 370 626 371 635 q 368 606 368 616 m 318 21 q 452 60 407 21 q 497 163 497 98 q 476 229 497 196 q 424 290 454 261 q 362 350 393 319 q 310 420 332 380 q 288 503 289 460 l 155 265 q 191 214 190 254 q 165 164 191 191 q 139 119 139 138 q 193 50 139 79 q 318 21 246 21 z "},"t":{"ha":548,"x_min":43,"x_max":524,"o":"m 509 139 q 524 123 524 139 q 510 92 524 114 q 336 -11 453 -12 q 185 42 241 -11 q 129 182 129 94 l 129 595 l 60 595 q 43 611 43 595 q 60 627 43 627 l 69 627 q 188 678 138 627 q 237 819 237 729 q 254 836 237 836 q 269 819 270 836 l 269 627 l 479 627 q 494 610 495 627 q 479 595 494 594 l 269 595 l 269 182 q 298 80 269 118 q 376 43 326 43 q 493 122 456 43 q 509 139 502 139 z "},"u":{"ha":821,"x_min":45,"x_max":787,"o":"m 771 32 q 787 17 788 32 q 771 0 787 0 l 561 0 l 561 163 q 470 36 530 83 q 325 -11 410 -11 q 181 41 233 -11 q 129 189 129 93 l 129 555 q 118 584 129 572 q 90 595 107 595 l 60 595 q 45 610 44 595 q 60 627 45 627 l 269 627 l 269 205 q 300 85 269 122 q 380 47 332 47 q 512 125 463 47 q 561 317 561 203 l 561 555 q 550 584 561 572 q 522 595 539 595 l 492 595 q 475 610 475 595 q 492 627 475 627 l 701 627 l 701 71 q 712 43 701 54 q 741 32 724 32 l 771 32 z "},"v":{"ha":724,"x_min":5,"x_max":718,"o":"m 703 627 q 718 610 718 627 q 703 595 718 594 l 682 595 q 636 562 650 595 l 390 0 l 350 0 l 86 557 q 37 595 68 594 l 22 595 q 5 611 5 595 q 22 627 5 627 l 304 627 q 319 610 320 627 q 304 595 319 594 l 260 595 q 231 571 231 595 q 233 557 231 566 l 421 150 l 599 557 q 603 572 603 564 q 572 595 603 595 l 528 595 q 511 611 511 595 q 528 627 511 627 l 703 627 z "},"w":{"ha":991,"x_min":5,"x_max":986,"o":"m 971 627 q 986 610 987 627 q 971 595 986 594 l 939 595 q 890 562 901 595 l 697 0 l 656 0 l 496 432 l 355 0 l 314 0 l 98 557 q 50 595 85 594 l 22 595 q 5 611 5 595 q 22 627 5 627 l 318 627 q 335 610 335 627 q 318 595 335 594 l 269 595 q 239 570 239 595 q 240 557 239 563 l 383 183 l 528 627 l 561 627 l 726 182 l 854 557 q 857 571 857 564 q 827 595 857 595 l 772 595 q 757 611 757 595 q 772 627 757 627 l 971 627 z "},"x":{"ha":712,"x_min":5,"x_max":710,"o":"m 694 32 q 710 16 710 32 q 694 0 710 0 l 392 0 q 375 17 375 0 q 392 32 375 33 l 428 32 q 456 44 448 32 q 454 69 465 56 l 313 271 l 147 69 q 143 44 136 56 q 168 32 150 32 l 200 32 q 216 16 217 32 q 200 0 216 0 l 21 0 q 5 17 5 0 q 21 32 5 33 l 29 32 q 107 69 75 32 l 294 297 l 111 557 q 45 595 85 594 l 29 595 q 12 611 12 595 q 29 627 12 627 l 314 627 q 330 610 331 627 q 314 595 330 594 l 296 595 q 267 584 276 595 q 269 557 258 572 l 400 370 l 555 557 q 559 582 566 569 q 533 595 551 595 l 501 595 q 485 611 484 595 q 501 627 485 627 l 686 627 q 701 610 702 627 q 686 595 701 594 l 667 595 q 597 557 631 595 l 419 343 l 611 69 q 681 32 639 32 l 694 32 z "},"y":{"ha":808,"x_min":45,"x_max":701,"o":"m 492 627 l 701 627 l 701 -41 q 357 -395 701 -394 q 160 -334 235 -395 q 85 -183 85 -273 q 109 -117 85 -140 q 165 -93 134 -93 q 213 -110 193 -93 q 232 -160 232 -127 q 208 -213 232 -188 q 184 -260 184 -237 q 228 -329 184 -296 q 349 -363 271 -363 q 508 -291 454 -363 q 561 -94 561 -220 l 561 163 q 470 36 530 83 q 325 -11 410 -11 q 181 41 233 -11 q 129 189 129 93 l 129 555 q 118 584 129 572 q 90 595 107 595 l 60 595 q 45 610 44 595 q 60 627 45 627 l 269 627 l 269 205 q 300 85 269 122 q 380 47 332 47 q 512 125 463 47 q 561 317 561 203 l 561 555 q 550 584 561 572 q 522 595 539 595 l 492 595 q 475 610 475 595 q 492 627 475 627 z "},"z":{"ha":729,"x_min":77,"x_max":637,"o":"m 637 627 l 637 596 l 232 32 l 435 32 q 560 87 514 32 q 606 215 606 142 l 606 237 q 621 253 606 253 q 637 237 637 253 l 637 0 l 77 0 l 77 39 l 475 595 l 290 595 q 165 540 211 595 q 119 411 119 485 l 119 389 q 103 374 119 373 q 87 389 87 374 l 87 627 l 637 627 z "},"{":{"ha":501,"x_min":22,"x_max":460,"o":"m 441 -345 q 460 -361 460 -345 q 441 -376 460 -376 l 389 -376 q 210 -324 261 -376 q 158 -153 158 -272 l 158 189 q 127 286 158 249 q 47 323 97 323 l 39 323 q 22 340 22 323 q 39 355 22 356 l 47 355 q 128 392 98 355 q 158 478 158 428 l 158 787 q 210 960 158 907 q 389 1013 261 1013 l 441 1013 q 460 997 460 1013 q 441 981 460 981 q 332 926 365 981 q 298 787 298 872 l 298 586 q 264 412 298 471 q 146 342 229 353 q 264 270 229 330 q 298 94 298 210 l 298 -153 q 332 -291 298 -237 q 441 -345 365 -345 z "},"|":{"ha":219,"x_min":104,"x_max":136,"o":"m 136 -376 l 104 -376 l 104 1013 l 136 1013 l 136 -376 z "},"}":{"ha":505,"x_min":45,"x_max":484,"o":"m 467 355 q 484 340 484 355 q 467 323 484 323 l 458 323 q 376 286 407 323 q 346 189 346 249 l 346 -153 q 294 -324 346 -272 q 117 -376 243 -376 l 64 -376 q 46 -361 45 -376 q 64 -345 46 -344 q 174 -291 140 -345 q 207 -153 207 -237 l 207 94 q 242 269 207 210 q 359 342 277 329 q 241 412 276 353 q 207 586 207 471 l 207 787 q 174 926 207 872 q 64 981 140 981 q 46 997 45 981 q 64 1013 46 1013 l 117 1013 q 295 960 243 1013 q 347 787 347 907 l 347 478 q 378 392 347 428 q 458 355 408 355 l 467 355 z "},"~":{"ha":769,"x_min":69,"x_max":700,"o":"m 514 180 q 424 197 464 180 q 357 238 385 214 q 307 287 330 262 q 254 329 283 311 q 193 346 225 346 q 129 321 157 346 q 100 254 100 296 q 85 241 100 241 q 69 261 69 243 q 121 370 69 326 q 249 414 174 414 q 336 396 296 414 q 401 354 375 379 q 452 305 428 329 q 506 263 476 281 q 570 245 536 245 q 637 272 607 245 q 668 340 668 298 q 676 358 668 353 q 692 358 684 363 q 700 340 700 353 q 645 227 700 274 q 514 180 591 180 z "},"¡":{"ha":319,"x_min":81,"x_max":229,"o":"m 101 522 q 91 532 101 522 q 81 570 81 542 q 101 619 81 599 q 150 639 122 639 q 199 619 178 639 q 220 570 220 599 q 199 522 220 542 q 150 501 178 501 q 101 522 122 501 m 161 -412 q 112 -392 132 -412 q 92 -339 92 -371 q 114 -86 92 -299 q 136 269 136 126 q 142 285 136 279 q 158 292 149 292 q 173 286 166 292 q 179 269 179 279 q 204 -87 179 125 q 229 -339 229 -300 q 209 -392 229 -371 q 161 -412 189 -412 z "},"¢":{"ha":720,"x_min":61,"x_max":654,"o":"m 639 197 q 652 191 648 197 q 653 178 656 184 q 629 125 645 151 q 582 64 612 98 q 502 10 551 31 q 389 -11 452 -11 q 332 -8 359 -11 l 283 -241 q 267 -257 281 -257 q 256 -251 260 -257 q 253 -236 252 -245 l 302 -3 q 124 106 187 21 q 61 315 61 192 q 108 494 61 418 q 227 604 155 570 q 383 637 298 637 q 436 635 410 637 l 482 851 q 498 867 485 867 q 510 861 505 867 q 513 846 514 856 l 465 629 q 602 557 550 610 q 654 440 654 504 q 631 366 654 391 q 571 340 607 340 q 522 362 542 340 q 501 410 501 383 q 530 469 501 440 q 558 515 558 497 q 510 580 558 553 q 399 607 461 607 q 262 539 317 607 q 208 315 208 471 q 263 101 208 175 q 410 28 318 28 q 544 74 490 28 q 624 184 597 121 q 639 197 628 197 z "},"£":{"ha":960,"x_min":53,"x_max":905,"o":"m 890 267 q 901 262 897 267 q 905 250 905 257 q 839 58 905 131 q 679 -16 772 -16 q 576 2 627 -16 q 492 39 525 20 q 411 90 460 58 q 195 -12 342 -13 q 95 19 136 -12 q 53 107 53 50 q 91 192 53 160 q 191 224 129 224 q 298 207 241 224 q 298 222 298 214 q 277 447 298 294 l 157 447 q 142 463 141 447 q 157 479 142 479 l 272 479 q 252 672 251 612 q 297 817 252 758 q 414 901 343 875 q 575 926 485 926 q 780 868 693 926 q 867 718 867 810 q 844 646 867 671 q 789 621 821 621 q 738 640 760 621 q 717 690 717 659 q 744 745 717 718 q 771 790 771 772 q 723 864 771 835 q 604 893 675 893 q 463 838 515 893 q 411 684 411 782 q 435 479 411 617 l 600 479 q 615 463 616 479 q 600 447 615 447 l 439 447 q 457 258 457 334 q 441 151 457 200 q 672 94 579 94 q 732 100 704 94 q 779 113 760 106 q 813 134 798 121 q 837 158 828 147 q 853 185 846 168 q 863 210 861 201 q 869 234 865 218 q 873 252 873 250 q 890 267 880 267 m 183 22 q 296 164 280 22 q 191 193 240 193 q 119 170 148 193 q 90 106 90 146 q 119 44 90 66 q 183 22 147 22 z "},"¤":{"ha":939,"x_min":136,"x_max":803,"o":"m 783 314 q 704 107 783 195 l 803 7 l 777 -18 l 679 82 q 473 4 590 4 q 264 85 353 4 l 161 -18 l 136 7 l 239 110 q 163 314 162 197 q 240 519 163 432 l 136 621 l 161 648 l 265 545 q 473 623 354 623 q 677 547 590 623 l 777 648 l 803 621 l 703 522 q 783 314 783 433 m 473 37 q 667 118 587 37 q 747 314 747 199 q 667 509 747 428 q 473 590 586 590 q 278 509 358 590 q 199 314 199 428 q 278 118 199 199 q 473 37 358 37 z "},"¥":{"ha":836,"x_min":4,"x_max":833,"o":"m 817 916 q 833 900 833 916 q 817 884 833 883 l 790 884 q 733 847 751 884 l 519 437 l 675 437 q 690 421 690 437 q 675 406 690 406 l 504 406 l 504 313 l 675 313 q 690 296 690 313 q 675 281 690 280 l 636 281 l 504 281 l 504 69 q 515 43 504 54 q 543 32 526 32 l 574 32 q 590 17 591 32 q 574 0 590 0 l 278 0 q 261 17 261 0 q 278 32 261 33 l 307 32 q 336 43 326 32 q 347 69 347 54 l 347 281 l 163 281 q 146 297 146 281 q 163 313 146 313 l 174 313 l 347 313 l 347 374 l 329 406 l 163 406 q 146 422 146 406 q 163 437 146 438 l 313 437 l 94 847 q 41 884 75 883 l 20 884 q 4 900 4 884 q 20 916 4 916 l 329 916 q 345 900 345 916 q 329 884 345 883 l 298 884 q 272 874 279 884 q 273 847 265 864 l 484 444 l 692 847 q 691 872 699 861 q 664 884 684 884 l 639 884 q 624 900 623 884 q 639 916 624 916 l 817 916 z "},"¦":{"ha":219,"x_min":104,"x_max":136,"o":"m 104 529 l 104 1013 l 136 1013 l 136 529 l 104 529 m 136 129 l 136 -376 l 104 -376 l 104 129 l 136 129 z "},"§":{"ha":594,"x_min":69,"x_max":543,"o":"m 528 273 q 468 109 528 189 q 542 -74 542 29 q 468 -254 542 -191 q 293 -317 393 -317 q 135 -266 201 -317 q 69 -129 69 -215 q 90 -62 69 -86 q 136 -39 110 -39 q 173 -53 157 -39 q 189 -92 189 -68 q 164 -137 189 -114 q 139 -179 139 -160 q 183 -256 139 -227 q 285 -285 227 -285 q 398 -244 351 -285 q 446 -121 446 -203 q 426 -46 446 -81 q 375 16 407 -11 q 305 70 343 43 q 229 126 267 97 q 158 188 191 155 q 107 267 126 221 q 87 367 87 313 q 150 534 87 454 q 79 714 79 612 q 152 895 79 832 q 322 957 224 957 q 477 906 411 957 q 543 770 543 856 q 523 704 543 727 q 475 681 503 681 q 439 694 454 681 q 424 732 424 708 q 448 778 424 755 q 472 819 472 800 q 428 895 472 865 q 326 925 383 925 q 219 885 262 925 q 175 761 175 844 q 190 695 175 726 q 231 640 205 664 q 287 592 256 616 q 351 545 318 567 q 417 494 385 522 q 474 435 449 465 q 513 362 498 404 q 528 273 528 321 m 168 425 q 196 337 168 379 q 256 271 224 296 q 345 207 289 245 q 431 143 401 168 q 447 215 448 182 q 419 304 447 262 q 359 371 392 346 q 271 435 326 396 q 186 500 215 473 q 168 425 168 460 z "},"¨":{"ha":701,"x_min":170,"x_max":541,"o":"m 170 901 q 188 948 170 929 q 235 966 207 966 q 280 948 261 966 q 298 901 298 929 q 280 856 298 875 q 235 838 261 838 q 188 856 207 838 q 170 901 170 875 m 411 901 q 430 948 411 929 q 476 966 449 966 q 522 948 503 966 q 541 901 541 929 q 522 856 541 875 q 476 838 503 838 q 430 856 448 838 q 411 901 411 875 z "},"©":{"ha":733,"x_min":50,"x_max":684,"o":"m 591 482 q 545 436 591 482 q 367 390 498 390 q 143 482 236 390 q 50 704 50 574 q 143 927 50 835 q 367 1019 236 1019 q 591 928 498 1019 q 684 705 684 836 q 591 482 684 574 m 367 418 q 568 502 485 418 q 652 705 652 586 q 568 907 652 823 q 367 990 485 990 q 166 907 249 990 q 83 704 83 823 q 166 502 83 586 q 367 418 249 418 m 383 510 q 235 565 288 510 q 182 708 182 619 q 239 851 182 800 q 379 903 297 903 q 495 868 447 903 q 543 783 543 833 q 528 736 543 754 q 489 718 513 718 q 454 733 468 718 q 440 766 440 747 q 456 803 440 785 q 472 835 472 822 q 448 869 472 856 q 393 882 424 882 q 309 841 342 882 q 275 708 275 800 q 311 582 275 626 q 401 538 346 538 q 473 562 441 538 q 522 623 504 586 q 533 632 525 632 q 543 627 540 632 q 545 616 546 623 q 531 591 539 604 q 504 557 522 578 q 454 523 486 536 q 383 510 422 510 z "},"ª":{"ha":621,"x_min":46,"x_max":576,"o":"m 240 541 q 117 592 168 541 q 65 736 65 644 q 116 879 65 826 q 240 932 167 932 q 383 836 336 932 l 383 925 l 489 925 l 489 606 q 498 585 489 593 q 519 576 507 576 l 534 576 q 550 562 550 576 q 534 549 550 549 l 383 549 l 383 636 q 240 541 337 541 m 272 897 q 211 860 232 897 q 191 736 191 822 q 211 612 191 650 q 272 575 232 575 q 350 624 318 575 q 382 736 382 672 q 349 849 382 801 q 272 897 317 897 m 559 482 q 576 465 576 482 q 559 450 576 450 l 61 450 q 46 467 45 450 q 61 482 46 482 l 559 482 z "},"«":{"ha":639,"x_min":39,"x_max":574,"o":"m 117 310 q 317 60 236 196 q 311 38 323 46 q 289 43 298 31 q 39 285 189 175 q 39 335 5 311 q 289 576 189 445 q 311 581 298 589 q 317 559 323 574 q 117 310 236 424 m 374 310 q 574 60 493 196 q 568 38 581 46 q 546 43 555 31 q 296 285 446 175 q 296 335 262 311 q 546 576 446 445 q 568 581 555 589 q 574 559 581 574 q 374 310 493 424 z "},"®":{"ha":733,"x_min":50,"x_max":684,"o":"m 143 927 q 190 973 143 927 q 367 1019 236 1019 q 591 928 498 1019 q 684 705 684 836 q 591 482 684 574 q 367 390 498 390 q 143 482 236 390 q 50 704 50 574 q 143 927 50 835 m 367 418 q 568 502 485 418 q 652 705 652 586 q 568 907 652 823 q 367 990 485 990 q 166 907 249 990 q 83 704 83 823 q 166 502 83 586 q 367 418 249 418 m 534 558 q 545 549 544 558 q 529 533 545 541 q 496 525 514 525 q 435 542 456 525 q 411 585 415 559 q 404 635 407 610 q 385 679 400 661 q 335 696 370 696 l 328 696 l 328 572 q 353 551 328 551 q 362 540 362 551 q 353 529 363 529 l 218 529 q 207 540 208 529 q 218 551 207 551 q 243 572 243 551 l 243 848 q 218 869 243 869 q 207 881 208 869 q 218 892 207 892 l 364 892 q 467 869 429 892 q 504 800 504 846 q 480 745 504 770 q 415 708 456 720 q 473 672 454 699 q 494 620 493 646 q 500 574 496 595 q 518 553 505 553 q 527 555 522 553 q 534 558 532 558 m 328 717 l 346 717 q 416 799 416 717 q 349 869 416 869 q 333 863 339 869 q 328 848 328 857 l 328 717 z "},"¯":{"ha":497,"x_min":46,"x_max":472,"o":"m 65 865 q 52 871 57 865 q 46 884 46 876 q 65 900 46 901 l 454 900 q 472 882 473 900 q 454 865 472 865 l 65 865 z "},"°":{"ha":481,"x_min":87,"x_max":395,"o":"m 241 614 q 133 657 178 614 q 87 765 87 701 q 133 871 87 826 q 242 916 179 916 q 350 871 304 916 q 395 765 395 827 q 349 658 395 703 q 241 614 304 614 m 241 650 q 321 683 289 650 q 354 765 354 717 q 321 846 354 812 q 241 879 289 879 q 161 846 194 879 q 127 765 127 812 q 161 683 127 716 q 241 650 194 650 z "},"±":{"ha":508,"x_min":40,"x_max":469,"o":"m 453 425 q 469 410 470 425 q 453 393 469 393 l 272 393 l 272 214 q 256 197 272 197 q 240 214 240 197 l 240 393 l 61 393 q 45 410 44 393 q 61 425 45 425 l 240 425 l 240 606 q 257 623 240 623 q 272 606 273 623 l 272 425 l 453 425 m 447 121 q 464 104 464 121 q 447 89 464 89 l 56 89 q 40 106 40 89 q 56 121 40 121 l 447 121 z "},"´":{"ha":425,"x_min":96,"x_max":336,"o":"m 118 785 q 96 784 104 775 q 98 806 87 793 l 258 991 q 321 1006 289 1027 q 336 957 349 986 q 321 937 332 946 l 118 785 z "},"¶":{"ha":696,"x_min":69,"x_max":659,"o":"m 416 435 l 347 435 q 144 502 218 435 q 69 682 69 568 q 144 852 69 789 q 354 916 220 916 l 643 916 q 659 908 654 916 q 659 892 664 900 q 643 884 654 884 l 610 884 q 586 874 596 884 q 576 850 576 864 l 576 0 l 543 0 l 543 884 l 450 884 l 450 0 l 416 0 l 416 435 z "},"·":{"ha":366,"x_min":104,"x_max":262,"o":"m 104 351 q 127 407 104 383 q 183 431 150 431 q 239 407 216 431 q 262 351 262 383 q 239 295 262 318 q 183 272 216 272 q 127 295 150 272 q 104 351 104 318 z "},"¸":{"ha":833,"x_min":16,"x_max":300,"o":"m 113 -113 l 138 9 l 174 9 l 155 -83 q 263 -121 226 -90 q 300 -200 300 -151 q 252 -294 300 -258 q 138 -329 204 -329 q 39 -304 81 -329 q 16 -272 15 -289 q 32 -257 16 -256 q 63 -272 35 -257 q 123 -288 92 -288 q 186 -264 161 -288 q 211 -204 211 -240 q 185 -142 211 -168 q 113 -113 160 -115 z "},"º":{"ha":574,"x_min":50,"x_max":528,"o":"m 288 541 q 135 594 193 541 q 77 737 77 647 q 134 875 77 818 q 288 932 191 932 q 440 881 382 932 q 498 737 498 829 q 441 594 498 647 q 288 541 385 541 m 382 736 q 288 904 382 904 q 193 735 193 904 q 288 567 193 567 q 382 736 382 568 m 511 482 q 528 465 528 482 q 511 450 528 450 l 66 450 q 50 467 50 450 q 66 482 50 482 l 511 482 z "},"»":{"ha":639,"x_min":65,"x_max":599,"o":"m 264 310 q 65 559 144 424 q 71 581 58 573 q 92 576 83 589 q 342 335 191 444 q 342 285 376 311 q 92 43 192 175 q 71 38 83 31 q 65 60 58 46 q 264 310 144 196 m 521 310 q 322 559 401 424 q 328 581 315 573 q 349 576 340 589 q 599 335 448 444 q 599 285 633 311 q 349 43 449 175 q 327 38 340 31 q 322 60 314 46 q 521 310 401 196 z "},"¼":{"ha":1009,"x_min":111,"x_max":937,"o":"m 774 1013 l 814 1013 l 245 -123 l 207 -123 l 774 1013 m 375 424 q 361 410 375 410 l 125 410 q 111 424 111 410 q 125 436 111 436 l 158 436 q 178 444 170 436 q 186 463 186 452 l 186 852 l 125 852 q 111 867 111 852 q 125 879 111 879 l 135 879 q 283 914 227 879 q 307 925 303 925 q 319 913 319 925 l 319 463 q 327 444 319 452 q 347 436 335 436 l 361 436 q 375 424 375 436 m 873 97 l 873 53 q 881 34 873 42 q 900 26 889 26 l 916 26 q 928 14 928 26 q 916 0 928 0 l 697 0 q 685 14 685 0 q 697 26 685 26 l 711 26 q 731 34 724 26 q 739 53 739 41 l 739 97 l 489 97 l 489 122 q 684 447 672 258 q 705 498 686 480 q 752 515 724 515 q 800 497 781 515 q 819 447 819 479 q 746 279 819 373 q 539 123 672 186 l 739 123 l 739 233 q 847 374 807 279 q 863 386 852 386 q 873 374 873 386 l 873 123 l 925 123 q 937 110 937 123 q 925 97 937 98 l 873 97 z "},"½":{"ha":1054,"x_min":111,"x_max":982,"o":"m 245 -123 l 207 -123 l 774 1013 l 814 1013 l 245 -123 m 361 436 q 375 424 374 436 q 361 410 375 410 l 125 410 q 111 424 111 410 q 125 436 111 436 l 158 436 q 178 444 170 436 q 186 463 186 452 l 186 852 l 125 852 q 111 867 111 852 q 125 879 111 879 l 135 879 q 283 914 227 879 q 307 925 303 925 q 319 913 319 925 l 319 463 q 327 444 319 452 q 347 436 335 436 l 361 436 m 982 146 l 982 111 q 863 -7 982 -7 q 754 10 823 -7 q 660 26 686 26 q 636 21 646 26 q 624 9 627 16 q 616 -2 621 3 q 604 -7 611 -7 q 591 5 592 -7 l 591 35 q 610 134 591 90 q 656 202 629 178 q 715 250 684 227 q 775 291 747 273 q 821 336 803 309 q 839 397 839 363 q 814 464 839 442 q 749 486 790 486 q 690 472 711 486 q 668 437 668 458 q 685 407 668 425 q 703 370 703 389 q 687 333 703 346 q 648 319 671 319 q 603 337 622 319 q 585 389 585 355 q 635 477 585 440 q 771 514 685 514 q 920 479 861 514 q 978 379 978 444 q 942 289 978 325 q 853 233 905 253 q 750 194 802 212 q 661 142 699 175 q 619 61 623 110 q 720 117 647 117 q 803 106 743 117 q 889 96 863 96 q 940 109 922 96 q 957 147 957 122 q 970 158 957 158 q 982 146 982 158 z "},"¾":{"ha":1094,"x_min":111,"x_max":1022,"o":"m 859 1013 l 899 1013 l 330 -123 l 292 -123 l 859 1013 m 517 562 q 460 450 517 494 q 297 406 403 406 q 163 440 215 406 q 111 532 111 475 q 128 582 111 564 q 170 600 144 600 q 211 586 193 600 q 228 549 228 572 q 212 514 228 532 q 196 486 196 497 q 218 450 196 464 q 279 436 240 436 q 354 468 328 436 q 379 559 379 500 q 355 643 379 616 q 300 669 332 669 l 297 669 q 281 686 280 669 q 298 707 281 696 q 404 782 370 755 q 443 818 427 799 q 378 803 416 802 q 292 815 349 803 q 210 827 235 827 q 164 813 180 827 q 149 775 149 799 q 135 763 149 763 q 122 777 122 762 l 122 810 q 240 928 122 928 q 348 912 279 928 q 443 896 416 896 q 471 905 461 896 q 486 922 481 914 q 498 930 490 930 q 511 918 511 930 l 511 909 q 323 694 511 805 q 472 654 428 692 q 517 562 517 616 m 958 97 l 958 53 q 966 34 958 42 q 985 26 974 26 l 1000 26 q 1013 14 1013 26 q 1000 0 1013 0 l 782 0 q 770 14 770 0 q 782 26 770 26 l 796 26 q 816 34 808 26 q 823 53 823 41 l 823 97 l 574 97 l 574 122 q 768 447 757 258 q 790 498 771 480 q 837 515 808 515 q 885 497 865 515 q 904 447 904 479 q 830 279 904 373 q 624 123 755 186 l 823 123 l 823 233 q 932 374 891 279 q 947 386 937 386 q 958 374 958 386 l 958 123 l 1008 123 q 1022 110 1022 123 q 1008 97 1022 98 l 958 97 z "},"¿":{"ha":658,"x_min":62,"x_max":602,"o":"m 463 790 q 440 736 463 758 q 385 714 418 714 q 332 736 354 714 q 310 790 310 758 q 332 843 310 821 q 385 865 354 865 q 440 844 418 865 q 463 790 463 822 m 364 -355 q 461 -326 420 -355 q 503 -254 503 -296 q 473 -199 503 -229 q 443 -143 443 -170 q 465 -90 443 -110 q 517 -69 486 -69 q 578 -98 555 -69 q 602 -175 602 -126 q 526 -337 602 -279 q 345 -395 450 -395 q 146 -342 229 -395 q 62 -195 62 -289 q 80 -107 62 -149 q 123 -34 97 -66 q 182 31 150 -1 q 248 98 215 62 q 308 173 281 134 q 352 267 335 212 q 368 386 368 322 l 368 457 q 373 469 368 464 q 386 475 378 475 q 399 469 394 475 q 404 457 404 464 l 404 355 q 384 202 404 272 q 335 83 364 132 q 277 -8 306 35 q 227 -99 248 -52 q 207 -196 207 -146 q 252 -317 207 -278 q 364 -355 296 -355 z "},"À":{"ha":951,"x_min":5,"x_max":947,"o":"m 517 985 l 314 1137 q 301 1192 282 1161 q 351 1210 319 1221 q 376 1192 365 1206 l 536 1006 q 538 984 547 994 q 517 985 529 975 m 930 32 q 942 27 937 32 q 947 16 947 22 q 942 4 947 9 q 930 0 937 0 l 578 0 q 566 4 571 0 q 561 16 561 8 q 566 27 561 22 q 578 32 571 32 l 628 32 q 659 46 649 32 q 661 81 668 60 l 578 288 l 237 288 l 155 81 q 158 46 149 61 q 189 32 168 32 l 239 32 q 251 27 245 32 q 256 16 256 22 q 251 4 256 9 q 239 0 245 0 l 21 0 q 10 4 14 0 q 5 16 5 8 q 9 27 5 22 q 21 32 14 32 l 54 32 q 118 81 100 32 l 453 921 l 494 921 l 832 79 q 900 32 852 32 l 930 32 m 250 318 l 566 318 l 407 717 l 250 318 z "},"Á":{"ha":951,"x_min":5,"x_max":947,"o":"m 427 985 q 404 984 413 975 q 406 1006 395 993 l 566 1192 q 628 1206 596 1227 q 644 1157 656 1186 q 628 1137 640 1146 l 427 985 m 930 32 q 942 27 937 32 q 947 16 947 22 q 942 4 947 9 q 930 0 937 0 l 578 0 q 566 4 571 0 q 561 16 561 8 q 566 27 561 22 q 578 32 571 32 l 628 32 q 659 46 649 32 q 661 81 668 60 l 578 288 l 237 288 l 155 81 q 158 46 149 61 q 189 32 168 32 l 239 32 q 251 27 245 32 q 256 16 256 22 q 251 4 256 9 q 239 0 245 0 l 21 0 q 10 4 14 0 q 5 16 5 8 q 9 27 5 22 q 21 32 14 32 l 54 32 q 118 81 100 32 l 453 921 l 494 921 l 832 79 q 900 32 852 32 l 930 32 m 250 318 l 566 318 l 407 717 l 250 318 z "},"Â":{"ha":951,"x_min":5,"x_max":947,"o":"m 642 991 q 634 966 650 973 q 607 974 619 960 l 486 1117 l 364 974 q 346 964 357 964 q 329 972 334 964 q 330 991 325 981 l 435 1173 q 486 1204 454 1204 q 536 1173 518 1204 l 642 991 m 930 32 q 942 27 937 32 q 947 16 947 22 q 942 4 947 9 q 930 0 937 0 l 578 0 q 566 4 571 0 q 561 16 561 8 q 566 27 561 22 q 578 32 571 32 l 628 32 q 659 46 649 32 q 661 81 668 60 l 578 288 l 237 288 l 155 81 q 158 46 149 61 q 189 32 168 32 l 239 32 q 251 27 245 32 q 256 16 256 22 q 251 4 256 9 q 239 0 245 0 l 21 0 q 10 4 14 0 q 5 16 5 8 q 9 27 5 22 q 21 32 14 32 l 54 32 q 118 81 100 32 l 453 921 l 494 921 l 832 79 q 900 32 852 32 l 930 32 m 250 318 l 566 318 l 407 717 l 250 318 z "},"Ã":{"ha":951,"x_min":5,"x_max":947,"o":"m 604 979 q 519 996 562 979 q 449 1033 476 1013 q 385 1069 421 1053 q 318 1086 349 1086 q 249 1063 277 1086 q 221 1000 221 1039 q 204 982 221 982 q 192 987 197 982 q 187 1000 187 993 q 233 1111 187 1069 q 353 1152 279 1152 q 436 1135 394 1152 q 506 1098 478 1118 q 571 1060 534 1078 q 639 1043 607 1043 q 706 1065 677 1043 q 734 1129 734 1088 q 751 1149 734 1149 q 768 1128 768 1149 q 722 1020 768 1061 q 604 979 676 979 m 930 32 q 942 27 937 32 q 947 16 947 22 q 942 4 947 9 q 930 0 937 0 l 578 0 q 566 4 571 0 q 561 16 561 8 q 566 27 561 22 q 578 32 571 32 l 628 32 q 659 46 649 32 q 661 81 668 60 l 578 288 l 237 288 l 155 81 q 158 46 149 61 q 189 32 168 32 l 239 32 q 251 27 245 32 q 256 16 256 22 q 251 4 256 9 q 239 0 245 0 l 21 0 q 10 4 14 0 q 5 16 5 8 q 9 27 5 22 q 21 32 14 32 l 54 32 q 118 81 100 32 l 453 921 l 494 921 l 832 79 q 900 32 852 32 l 930 32 m 250 318 l 566 318 l 407 717 l 250 318 z "},"Ä":{"ha":951,"x_min":5,"x_max":947,"o":"m 292 1042 q 311 1088 292 1069 q 357 1107 330 1107 q 403 1088 385 1107 q 421 1042 421 1069 q 403 997 421 1015 q 357 978 385 978 q 311 997 330 978 q 292 1042 292 1015 m 533 1042 q 553 1088 533 1069 q 599 1107 572 1107 q 644 1088 625 1107 q 663 1042 663 1069 q 644 997 663 1015 q 599 978 625 978 q 553 997 572 978 q 533 1042 533 1015 m 930 32 q 942 27 937 32 q 947 16 947 22 q 942 4 947 9 q 930 0 937 0 l 578 0 q 566 4 571 0 q 561 16 561 8 q 566 27 561 22 q 578 32 571 32 l 628 32 q 659 46 649 32 q 661 81 668 60 l 578 288 l 237 288 l 155 81 q 158 46 149 61 q 189 32 168 32 l 239 32 q 251 27 245 32 q 256 16 256 22 q 251 4 256 9 q 239 0 245 0 l 21 0 q 10 4 14 0 q 5 16 5 8 q 9 27 5 22 q 21 32 14 32 l 54 32 q 118 81 100 32 l 453 921 l 494 921 l 832 79 q 900 32 852 32 l 930 32 m 250 318 l 566 318 l 407 717 l 250 318 z "},"Å":{"ha":951,"x_min":5,"x_max":947,"o":"m 464 974 q 360 1016 403 974 q 317 1118 317 1059 q 360 1220 317 1178 q 464 1263 403 1263 q 566 1220 524 1263 q 608 1118 608 1178 q 565 1017 608 1060 q 464 974 522 974 m 464 1010 q 538 1042 507 1010 q 570 1118 570 1074 q 538 1195 570 1163 q 464 1226 507 1226 q 387 1194 419 1226 q 355 1118 355 1162 q 387 1042 355 1074 q 464 1010 419 1010 m 930 32 q 942 27 937 32 q 947 16 947 22 q 942 4 947 9 q 930 0 937 0 l 578 0 q 566 4 571 0 q 561 16 561 8 q 566 27 561 22 q 578 32 571 32 l 628 32 q 659 46 649 32 q 661 81 668 60 l 578 288 l 237 288 l 155 81 q 158 46 149 61 q 189 32 168 32 l 239 32 q 251 27 245 32 q 256 16 256 22 q 251 4 256 9 q 239 0 245 0 l 21 0 q 10 4 14 0 q 5 16 5 8 q 9 27 5 22 q 21 32 14 32 l 54 32 q 118 81 100 32 l 453 921 l 494 921 l 832 79 q 900 32 852 32 l 930 32 m 250 318 l 566 318 l 407 717 l 250 318 z "},"Æ":{"ha":1348,"x_min":5,"x_max":1240,"o":"m 696 916 l 1238 916 l 1238 671 q 1221 656 1238 655 q 1206 671 1205 656 l 1206 710 q 1161 835 1206 787 q 1035 884 1117 884 l 829 884 q 801 872 812 884 q 790 846 790 861 l 790 500 l 879 500 q 985 526 957 500 q 1013 614 1013 553 l 1013 624 q 1017 635 1013 631 q 1029 639 1022 639 q 1040 635 1036 639 q 1044 624 1044 631 l 1044 343 q 1040 332 1044 336 q 1029 328 1036 328 q 1013 346 1013 328 l 1013 355 q 985 440 1013 414 q 879 467 957 467 l 790 467 l 790 69 q 801 43 790 54 q 829 32 812 32 l 1039 32 q 1164 87 1118 32 q 1210 215 1210 142 l 1210 237 q 1225 253 1210 253 q 1240 237 1240 253 l 1240 0 l 562 0 q 547 17 547 0 q 562 32 547 33 l 593 32 q 622 43 611 32 q 632 69 632 54 l 632 288 l 302 288 l 160 81 q 158 47 148 62 q 189 32 168 32 l 243 32 q 255 27 250 32 q 260 16 260 22 q 255 4 260 9 q 243 0 250 0 l 21 0 q 10 4 14 0 q 5 16 5 8 q 9 27 5 22 q 21 32 14 32 l 47 32 q 87 43 73 32 q 118 81 102 54 l 696 916 m 633 318 l 633 762 l 325 318 l 633 318 z "},"Ç":{"ha":916,"x_min":66,"x_max":847,"o":"m 829 207 q 841 202 836 207 q 844 189 846 197 q 778 94 835 146 q 533 -11 680 -3 l 519 -83 q 627 -121 590 -90 q 664 -200 664 -151 q 616 -294 664 -258 q 501 -329 568 -329 q 403 -304 444 -329 q 379 -272 379 -289 q 396 -257 379 -256 q 427 -272 399 -257 q 488 -288 456 -288 q 549 -264 525 -288 q 574 -204 574 -240 q 549 -142 574 -168 q 475 -113 524 -115 l 497 -11 q 181 124 296 -7 q 66 457 66 254 q 190 799 66 672 q 510 926 314 926 q 754 858 661 926 q 847 699 847 790 q 823 620 847 647 q 765 593 799 593 q 714 612 736 593 q 693 664 693 632 q 723 722 693 692 q 753 772 753 753 q 691 854 753 817 q 534 892 629 892 q 419 868 471 892 q 325 795 367 844 q 260 660 283 746 q 237 457 237 574 q 315 146 237 260 q 538 33 393 33 q 704 80 631 33 q 807 187 777 126 q 829 207 819 207 z "},"È":{"ha":826,"x_min":37,"x_max":718,"o":"m 460 985 l 257 1137 q 244 1192 225 1161 q 294 1210 262 1221 q 319 1192 308 1206 l 479 1006 q 481 984 490 994 q 460 985 472 975 m 703 260 q 718 244 718 260 l 718 0 l 54 0 q 37 17 37 0 q 54 32 37 33 l 85 32 q 113 42 102 32 q 123 66 123 53 l 123 847 q 113 873 123 863 q 85 884 102 884 l 54 884 q 39 899 39 884 q 54 916 39 916 l 715 916 l 715 671 q 699 656 715 655 q 684 671 683 656 l 684 710 q 639 835 684 787 q 513 884 595 884 l 319 884 q 292 873 302 884 q 282 847 282 863 l 282 493 l 359 493 q 466 520 437 493 q 494 607 494 547 l 494 616 q 499 628 494 623 q 510 633 504 633 q 522 629 517 633 q 526 616 526 624 l 526 336 q 522 326 526 331 q 510 321 517 321 q 494 339 494 321 l 494 349 q 467 433 494 407 q 359 460 439 460 l 282 460 l 282 68 q 292 42 282 52 q 319 32 302 32 l 517 32 q 643 80 599 32 q 688 204 688 129 l 688 244 q 703 260 687 260 z "},"É":{"ha":826,"x_min":37,"x_max":718,"o":"m 370 985 q 347 984 356 975 q 349 1006 338 993 l 509 1192 q 572 1206 539 1227 q 587 1157 599 1186 q 571 1137 583 1146 l 370 985 m 703 260 q 718 244 718 260 l 718 0 l 54 0 q 37 17 37 0 q 54 32 37 33 l 85 32 q 113 42 102 32 q 123 68 123 53 l 123 847 q 113 873 123 863 q 85 884 102 884 l 54 884 q 37 899 37 884 q 54 916 37 916 l 715 916 l 715 671 q 699 656 715 655 q 684 671 683 656 l 684 711 q 639 835 684 787 q 513 884 595 884 l 319 884 q 292 873 302 884 q 282 848 282 863 l 282 493 l 359 493 q 466 520 437 493 q 494 607 494 547 l 494 616 q 499 628 494 623 q 510 633 504 633 q 522 629 517 633 q 526 616 526 624 l 526 338 q 522 326 526 331 q 510 321 517 321 q 494 339 494 321 l 494 349 q 467 433 494 407 q 359 460 439 460 l 282 460 l 282 68 q 292 42 282 52 q 319 32 302 32 l 517 32 q 643 80 599 32 q 688 205 688 129 l 688 244 q 703 260 687 260 z "},"Ê":{"ha":826,"x_min":39,"x_max":718,"o":"m 585 991 q 577 966 593 973 q 551 974 562 960 l 429 1117 l 307 974 q 289 964 300 964 q 273 972 278 964 q 273 991 268 981 l 378 1173 q 429 1204 397 1204 q 481 1173 461 1204 l 585 991 m 703 260 q 718 244 718 260 l 718 0 l 54 0 q 39 17 39 0 q 54 32 39 33 l 85 32 q 113 42 102 32 q 123 68 123 53 l 123 847 q 113 873 123 863 q 85 884 102 884 l 54 884 q 39 899 39 884 q 54 916 39 916 l 715 916 l 715 671 q 699 656 715 655 q 684 671 683 656 l 684 711 q 639 835 684 787 q 513 884 595 884 l 321 884 q 292 873 302 884 q 282 848 282 863 l 282 493 l 359 493 q 467 520 439 493 q 494 607 494 547 l 494 616 q 499 628 494 623 q 510 633 504 633 q 522 629 517 633 q 526 616 526 624 l 526 338 q 522 326 526 331 q 510 321 517 321 q 494 339 494 321 l 494 349 q 467 433 494 407 q 359 460 439 460 l 282 460 l 282 68 q 292 42 282 52 q 319 32 302 32 l 517 32 q 643 80 599 32 q 688 205 688 129 l 688 244 q 703 260 687 260 z "},"Ë":{"ha":826,"x_min":39,"x_max":718,"o":"m 236 1042 q 255 1088 236 1069 q 301 1107 273 1107 q 347 1088 328 1107 q 366 1042 366 1069 q 347 997 366 1015 q 301 978 328 978 q 255 997 273 978 q 236 1042 236 1015 m 476 1042 q 496 1088 476 1069 q 542 1107 515 1107 q 588 1088 570 1107 q 606 1042 606 1069 q 588 997 606 1015 q 542 978 570 978 q 496 997 515 978 q 476 1042 476 1015 m 703 260 q 718 244 718 260 l 718 0 l 54 0 q 39 17 39 0 q 54 32 39 33 l 85 32 q 113 42 102 32 q 123 66 123 53 l 123 847 q 113 873 123 863 q 85 884 102 884 l 54 884 q 39 899 39 884 q 54 916 39 916 l 715 916 l 715 671 q 699 656 715 655 q 684 671 683 656 l 684 710 q 639 835 684 787 q 513 884 595 884 l 321 884 q 292 873 302 884 q 282 848 282 863 l 282 493 l 359 493 q 467 520 439 493 q 494 607 494 547 l 494 616 q 499 628 494 623 q 510 633 504 633 q 522 629 517 633 q 526 616 526 624 l 526 338 q 522 326 526 331 q 510 321 517 321 q 494 339 494 321 l 494 349 q 467 433 494 407 q 359 460 439 460 l 282 460 l 282 68 q 292 42 282 52 q 319 32 302 32 l 517 32 q 643 80 599 32 q 688 205 688 129 l 688 244 q 703 260 687 260 z "},"Ì":{"ha":404,"x_min":26,"x_max":367,"o":"m 241 985 l 40 1137 q 26 1192 7 1161 q 77 1210 45 1221 q 102 1192 90 1206 l 262 1006 q 264 984 273 994 q 241 985 255 975 m 350 32 q 367 17 367 32 q 350 0 367 0 l 54 0 q 37 17 37 0 q 54 32 37 33 l 85 32 q 113 42 102 32 q 123 66 123 53 l 123 847 q 113 873 123 863 q 85 884 102 884 l 54 884 q 37 899 37 884 q 54 916 37 916 l 350 916 q 367 899 367 916 q 350 884 367 883 l 319 884 q 292 873 302 884 q 282 847 282 863 l 282 68 q 292 42 282 52 q 319 32 302 32 l 350 32 z "},"Í":{"ha":404,"x_min":37,"x_max":370,"o":"m 151 985 q 129 984 138 975 q 131 1006 119 993 l 290 1192 q 354 1206 321 1227 q 370 1157 380 1186 q 353 1137 366 1146 l 151 985 m 350 32 q 367 17 367 32 q 350 0 367 0 l 54 0 q 37 17 37 0 q 54 32 37 33 l 85 32 q 113 42 102 32 q 123 66 123 53 l 123 847 q 113 873 123 863 q 85 884 102 884 l 54 884 q 39 899 39 884 q 54 916 39 916 l 350 916 q 367 899 367 916 q 350 884 367 883 l 321 884 q 292 873 302 884 q 282 848 282 863 l 282 68 q 292 42 282 52 q 319 32 302 32 l 350 32 z "},"Î":{"ha":404,"x_min":39,"x_max":367,"o":"m 367 991 q 360 966 376 973 q 334 974 345 960 l 212 1117 l 90 974 q 71 964 82 964 q 55 972 60 964 q 56 991 50 981 l 161 1173 q 211 1204 180 1204 q 262 1173 243 1204 l 367 991 m 350 32 q 367 17 367 32 q 350 0 367 0 l 54 0 q 39 17 39 0 q 54 32 39 33 l 85 32 q 113 42 102 32 q 123 68 123 53 l 123 847 q 113 873 123 863 q 85 884 102 884 l 54 884 q 39 899 39 884 q 54 916 39 916 l 350 916 q 367 899 367 916 q 350 884 367 883 l 321 884 q 292 873 302 884 q 282 848 282 863 l 282 68 q 292 42 282 52 q 321 32 302 32 l 350 32 z "},"Ï":{"ha":404,"x_min":18,"x_max":389,"o":"m 18 1042 q 37 1088 18 1069 q 83 1107 56 1107 q 129 1088 110 1107 q 147 1042 147 1069 q 129 997 147 1015 q 83 978 110 978 q 37 997 56 978 q 18 1042 18 1015 m 260 1042 q 278 1088 260 1069 q 325 1107 297 1107 q 370 1088 351 1107 q 389 1042 389 1069 q 370 997 389 1015 q 325 978 351 978 q 278 997 297 978 q 260 1042 260 1015 m 350 32 q 367 17 367 32 q 350 0 367 0 l 54 0 q 37 17 37 0 q 54 32 37 33 l 85 32 q 113 42 102 32 q 123 66 123 53 l 123 847 q 113 873 123 863 q 85 884 102 884 l 54 884 q 39 899 39 884 q 54 916 39 916 l 350 916 q 367 899 367 916 q 350 884 367 883 l 321 884 q 292 873 302 884 q 282 848 282 863 l 282 68 q 292 42 282 52 q 319 32 302 32 l 350 32 z "},"Ð":{"ha":977,"x_min":37,"x_max":917,"o":"m 390 916 q 917 464 916 916 q 775 131 917 261 q 390 0 633 0 l 54 0 q 37 17 37 0 q 54 32 37 33 l 85 32 q 113 42 102 32 q 123 66 123 53 l 123 460 l 54 460 q 37 476 37 460 q 54 492 37 492 l 123 492 l 123 847 q 113 873 123 863 q 85 884 102 884 l 54 884 q 37 899 37 884 q 54 916 37 916 l 390 916 m 390 32 q 526 60 462 32 q 640 140 590 87 q 718 276 689 192 q 746 464 746 359 q 649 779 746 673 q 390 884 553 884 l 319 884 q 292 873 302 884 q 281 848 281 863 l 281 492 l 522 492 q 538 476 538 492 q 522 460 538 459 l 281 460 l 281 68 q 292 42 281 52 q 319 32 302 32 l 390 32 z "},"Ñ":{"ha":894,"x_min":37,"x_max":857,"o":"m 571 979 q 486 996 528 979 q 416 1033 444 1013 q 352 1069 387 1053 q 285 1086 317 1086 q 215 1063 243 1086 q 187 1000 187 1039 q 171 982 187 982 q 160 987 165 982 q 155 1000 155 993 q 200 1111 155 1069 q 319 1152 245 1152 q 402 1135 361 1152 q 473 1098 444 1118 q 537 1060 501 1078 q 606 1043 574 1043 q 673 1065 644 1043 q 701 1129 701 1088 q 718 1149 701 1149 q 734 1128 735 1149 q 689 1020 734 1061 q 571 979 643 979 m 840 916 q 857 900 857 916 q 840 884 857 883 l 810 884 q 782 872 793 884 q 771 846 771 861 l 771 0 l 696 0 l 160 755 l 160 69 q 171 43 160 54 q 200 32 182 32 l 229 32 q 245 16 246 32 q 229 0 245 0 l 54 0 q 37 16 37 0 q 54 32 37 33 l 85 32 q 113 43 102 32 q 123 69 123 54 l 123 846 q 113 872 123 861 q 85 884 102 884 l 54 884 q 37 900 37 884 q 54 916 37 916 l 229 916 l 734 203 l 734 846 q 724 872 734 861 q 694 884 713 884 l 665 884 q 648 900 648 884 q 665 916 648 916 l 840 916 z "},"Ò":{"ha":1019,"x_min":66,"x_max":953,"o":"m 547 985 l 346 1137 q 332 1192 314 1161 q 382 1210 350 1221 q 408 1192 395 1206 l 568 1006 q 570 984 579 994 q 547 985 561 975 m 510 926 q 833 795 713 926 q 953 461 953 664 q 900 221 953 328 q 746 52 847 114 q 510 -11 644 -11 q 274 52 375 -11 q 119 221 172 114 q 66 461 66 328 q 187 795 66 664 q 510 926 307 926 m 382 56 q 409 39 382 56 q 510 21 436 21 q 637 56 583 21 q 723 154 692 92 q 768 293 754 216 q 782 461 782 370 q 768 628 782 553 q 723 764 754 703 q 637 859 692 825 q 510 893 583 893 q 382 859 436 893 q 297 764 328 825 q 252 628 267 703 q 237 461 237 553 q 252 293 237 370 q 297 154 267 216 q 382 56 328 92 z "},"Ó":{"ha":1019,"x_min":66,"x_max":953,"o":"m 457 985 q 435 984 444 975 q 436 1006 427 993 l 597 1192 q 660 1206 628 1227 q 675 1157 688 1186 q 660 1137 671 1146 l 457 985 m 510 926 q 833 795 713 926 q 953 461 953 664 q 900 221 953 328 q 746 52 847 114 q 510 -11 644 -11 q 274 52 375 -11 q 119 221 172 114 q 66 461 66 328 q 187 795 66 664 q 510 926 307 926 m 382 56 q 409 39 382 56 q 510 21 436 21 q 637 56 583 21 q 723 154 692 92 q 768 293 754 216 q 782 461 782 370 q 768 628 782 553 q 723 764 754 703 q 637 859 692 825 q 510 893 583 893 q 382 859 436 893 q 297 764 328 825 q 252 628 267 703 q 237 461 237 553 q 252 293 237 370 q 297 154 267 216 q 382 56 328 92 z "},"Ô":{"ha":1019,"x_min":66,"x_max":953,"o":"m 673 991 q 666 966 682 973 q 639 974 650 960 l 518 1117 l 396 974 q 377 964 388 964 q 361 972 366 964 q 361 991 357 981 l 467 1173 q 517 1204 485 1204 q 568 1173 549 1204 l 673 991 m 510 926 q 833 795 713 926 q 953 461 953 664 q 900 221 953 328 q 746 52 847 114 q 510 -11 644 -11 q 274 52 375 -11 q 119 221 172 114 q 66 461 66 328 q 187 795 66 664 q 510 926 307 926 m 382 56 q 409 39 382 56 q 510 21 436 21 q 638 56 583 21 q 724 154 693 92 q 768 293 754 216 q 782 461 782 370 q 768 628 782 553 q 723 764 754 703 q 637 859 692 825 q 510 893 583 893 q 382 859 436 893 q 297 764 328 825 q 252 628 267 703 q 237 461 237 553 q 252 293 237 370 q 297 154 267 216 q 382 56 328 92 z "},"Õ":{"ha":1019,"x_min":66,"x_max":953,"o":"m 636 979 q 551 996 593 979 q 481 1033 509 1013 q 417 1069 453 1053 q 349 1086 380 1086 q 279 1063 307 1086 q 252 1000 252 1039 q 236 982 252 982 q 224 987 229 982 q 220 1000 220 993 q 265 1111 220 1069 q 385 1152 310 1152 q 468 1135 426 1152 q 538 1098 510 1118 q 602 1060 567 1078 q 669 1043 637 1043 q 737 1065 708 1043 q 766 1129 766 1088 q 782 1149 766 1149 q 799 1128 799 1149 q 753 1020 799 1061 q 636 979 707 979 m 510 926 q 833 795 713 926 q 953 461 953 664 q 900 221 953 328 q 746 52 847 114 q 510 -11 644 -11 q 274 52 375 -11 q 119 221 172 114 q 66 461 66 328 q 187 795 66 664 q 510 926 307 926 m 382 56 q 409 39 382 56 q 510 21 436 21 q 638 56 583 21 q 724 154 693 92 q 768 293 754 216 q 782 461 782 370 q 768 628 782 553 q 723 764 754 703 q 637 859 692 825 q 510 893 583 893 q 382 859 436 893 q 297 764 328 825 q 252 628 267 703 q 237 461 237 553 q 252 293 237 370 q 297 154 267 216 q 382 56 328 92 z "},"Ö":{"ha":1019,"x_min":66,"x_max":953,"o":"m 323 1042 q 342 1088 323 1069 q 389 1107 361 1107 q 434 1088 415 1107 q 453 1042 453 1069 q 434 997 453 1015 q 389 978 415 978 q 342 997 361 978 q 323 1042 323 1015 m 566 1042 q 584 1088 566 1069 q 631 1107 603 1107 q 676 1088 657 1107 q 694 1042 694 1069 q 676 997 694 1015 q 631 978 657 978 q 584 997 603 978 q 566 1042 566 1015 m 510 926 q 833 795 713 926 q 953 461 953 664 q 900 221 953 328 q 746 52 847 114 q 510 -11 644 -11 q 274 52 375 -11 q 119 221 172 114 q 66 461 66 328 q 187 795 66 664 q 510 926 307 926 m 382 56 q 409 39 382 56 q 510 21 436 21 q 638 56 583 21 q 724 154 693 92 q 768 293 754 216 q 782 461 782 370 q 768 628 782 553 q 723 764 754 703 q 637 859 692 825 q 510 893 583 893 q 382 859 436 893 q 297 764 328 825 q 252 628 267 703 q 237 461 237 553 q 252 293 237 370 q 297 154 267 216 q 382 56 328 92 z "},"×":{"ha":486,"x_min":58,"x_max":412,"o":"m 411 192 q 411 170 422 181 q 389 170 400 159 l 289 269 l 243 317 l 189 262 l 123 199 l 81 154 q 58 154 70 143 q 58 176 47 165 l 102 221 l 158 277 l 167 285 l 220 339 l 201 357 l 158 400 l 58 500 q 58 524 47 511 q 81 522 69 534 l 89 514 l 243 361 l 245 364 l 262 380 l 389 507 q 412 507 399 519 q 411 485 422 498 l 385 458 l 265 339 l 411 192 z "},"Ø":{"ha":1019,"x_min":66,"x_max":953,"o":"m 614 916 q 862 759 772 884 q 953 461 953 635 q 900 221 953 328 q 746 52 847 114 q 510 -11 644 -11 q 419 -4 463 -11 l 403 -82 l 371 -82 l 389 3 q 153 165 239 40 q 66 461 66 290 q 187 795 66 664 q 510 926 307 926 q 582 921 547 926 l 600 1010 l 633 1010 l 614 916 m 237 461 q 276 201 237 311 q 399 47 315 92 l 575 886 q 510 893 545 893 q 382 859 436 893 q 297 764 328 825 q 252 628 267 703 q 237 461 237 553 m 510 21 q 638 56 584 21 q 723 154 692 92 q 768 293 754 216 q 782 461 782 370 q 740 727 782 616 q 606 875 697 838 l 428 35 q 510 21 465 21 z "},"Ù":{"ha":935,"x_min":37,"x_max":897,"o":"m 570 985 l 368 1137 q 354 1192 336 1161 q 404 1210 372 1221 q 431 1192 418 1206 l 590 1006 q 592 984 601 994 q 570 985 583 975 m 880 916 q 897 900 897 916 q 880 884 897 883 l 851 884 q 822 872 833 884 q 811 846 811 861 l 811 334 q 785 174 811 242 q 712 66 760 106 q 606 8 665 26 q 475 -11 547 -11 q 375 -1 422 -11 q 280 33 328 8 q 199 97 233 58 q 144 197 165 135 q 123 338 123 258 l 123 846 q 113 872 123 861 q 85 884 102 884 l 54 884 q 37 899 37 884 q 54 916 37 916 l 350 916 q 367 899 367 916 q 350 884 367 883 l 319 884 q 292 872 302 884 q 281 846 281 861 l 281 318 q 345 104 281 172 q 517 36 408 36 q 703 108 631 36 q 775 326 775 180 l 775 846 q 764 872 775 861 q 736 884 753 884 l 705 884 q 689 900 688 884 q 705 916 689 916 l 880 916 z "},"Ú":{"ha":935,"x_min":37,"x_max":897,"o":"m 479 985 q 458 984 467 975 q 460 1006 449 993 l 619 1192 q 682 1206 650 1227 q 699 1157 710 1186 q 682 1137 693 1146 l 479 985 m 880 916 q 897 900 897 916 q 880 884 897 883 l 851 884 q 822 872 833 884 q 811 846 811 861 l 811 334 q 785 174 811 242 q 712 66 760 106 q 606 8 665 26 q 475 -11 547 -11 q 375 -1 423 -11 q 280 33 328 8 q 199 97 233 58 q 144 197 165 135 q 123 338 123 258 l 123 846 q 113 872 123 861 q 85 884 102 884 l 54 884 q 37 899 37 884 q 54 916 37 916 l 350 916 q 367 899 367 916 q 350 884 367 883 l 321 884 q 292 872 302 884 q 281 846 281 861 l 281 318 q 345 104 281 172 q 517 36 408 36 q 703 108 631 36 q 775 326 775 180 l 775 846 q 764 872 775 861 q 736 884 753 884 l 705 884 q 689 900 688 884 q 705 916 689 916 l 880 916 z "},"Û":{"ha":935,"x_min":37,"x_max":897,"o":"m 696 991 q 688 966 704 973 q 661 974 672 960 l 541 1117 l 418 974 q 398 964 410 964 q 383 972 387 964 q 383 991 379 981 l 489 1173 q 540 1204 509 1204 q 590 1173 571 1204 l 696 991 m 880 916 q 897 900 897 916 q 880 884 897 883 l 851 884 q 822 872 833 884 q 811 846 811 861 l 811 334 q 785 174 811 242 q 712 66 760 106 q 606 8 665 26 q 475 -11 547 -11 q 375 -1 423 -11 q 280 33 328 8 q 199 97 233 58 q 144 197 165 135 q 123 338 123 258 l 123 846 q 113 872 123 861 q 85 884 102 884 l 54 884 q 37 899 37 884 q 54 916 37 916 l 350 916 q 367 899 367 916 q 350 884 367 883 l 321 884 q 292 872 302 884 q 281 846 281 861 l 281 318 q 345 104 281 172 q 517 36 408 36 q 703 108 631 36 q 775 326 775 180 l 775 846 q 764 872 775 861 q 736 884 753 884 l 705 884 q 689 900 688 884 q 705 916 689 916 l 880 916 z "},"Ü":{"ha":935,"x_min":37,"x_max":897,"o":"m 346 1042 q 365 1088 346 1069 q 411 1107 383 1107 q 456 1088 437 1107 q 475 1042 475 1069 q 456 997 475 1015 q 411 978 437 978 q 365 997 383 978 q 346 1042 346 1015 m 587 1042 q 606 1088 587 1069 q 653 1107 625 1107 q 698 1088 680 1107 q 717 1042 717 1069 q 698 997 717 1015 q 653 978 679 978 q 606 997 625 978 q 587 1042 587 1015 m 880 916 q 897 900 897 916 q 880 884 897 883 l 851 884 q 822 872 833 884 q 811 846 811 861 l 811 334 q 785 174 811 242 q 712 66 760 106 q 606 8 665 26 q 475 -11 547 -11 q 375 -1 423 -11 q 280 33 328 8 q 199 97 233 58 q 144 197 165 135 q 123 338 123 258 l 123 846 q 113 872 123 861 q 85 884 102 884 l 54 884 q 37 899 37 884 q 54 916 37 916 l 350 916 q 367 899 367 916 q 350 884 367 883 l 319 884 q 292 872 302 884 q 281 846 281 861 l 281 318 q 345 104 281 172 q 517 36 408 36 q 703 108 631 36 q 775 326 775 180 l 775 846 q 764 872 775 861 q 736 884 753 884 l 705 884 q 689 900 688 884 q 705 916 689 916 l 880 916 z "},"Ý":{"ha":836,"x_min":4,"x_max":833,"o":"m 412 985 q 390 984 399 975 q 392 1006 380 993 l 551 1192 q 615 1206 582 1227 q 631 1157 642 1186 q 614 1137 627 1146 l 412 985 m 817 916 q 833 900 833 916 q 817 884 833 883 l 790 884 q 733 847 751 884 l 504 410 l 504 69 q 515 43 504 54 q 543 32 526 32 l 574 32 q 590 17 591 32 q 574 0 590 0 l 278 0 q 261 17 261 0 q 278 32 261 33 l 307 32 q 336 43 326 32 q 347 69 347 54 l 347 374 l 94 847 q 41 884 75 883 l 20 884 q 4 900 4 884 q 20 916 4 916 l 329 916 q 345 900 345 916 q 329 884 345 883 l 298 884 q 272 874 279 884 q 273 847 265 864 l 484 444 l 692 847 q 691 872 699 861 q 664 884 684 884 l 639 884 q 624 900 623 884 q 639 916 624 916 l 817 916 z "},"Þ":{"ha":819,"x_min":37,"x_max":774,"o":"m 418 733 q 679 661 585 733 q 774 472 774 589 q 679 264 774 345 q 418 184 585 184 l 281 184 l 281 68 q 292 42 281 52 q 319 32 302 32 l 350 32 q 367 17 367 32 q 350 0 367 0 l 54 0 q 37 17 37 0 q 54 32 37 33 l 85 32 q 113 42 102 32 q 123 66 123 53 l 123 847 q 113 873 123 863 q 85 884 102 884 l 54 884 q 37 899 37 884 q 54 916 37 916 l 350 916 q 367 899 367 916 q 350 884 367 883 l 319 884 q 292 873 302 884 q 281 848 281 863 l 281 733 l 418 733 m 383 216 q 547 287 489 216 q 606 472 606 357 q 551 637 606 574 q 383 701 496 701 l 281 701 l 281 216 l 383 216 z "},"ß":{"ha":901,"x_min":45,"x_max":839,"o":"m 541 553 q 571 484 541 515 q 646 427 602 453 q 734 373 690 401 q 808 299 778 345 q 839 196 839 253 q 766 45 839 100 q 589 -11 693 -11 q 426 40 486 -11 q 366 184 366 92 q 386 245 366 223 q 435 268 407 268 q 475 252 458 268 q 492 208 492 236 q 463 156 492 184 q 435 109 435 127 q 474 45 435 68 q 572 21 513 21 q 679 60 643 21 q 715 163 715 98 q 688 233 715 200 q 622 292 661 267 q 545 345 583 318 q 480 411 507 372 q 453 497 453 450 q 470 576 453 538 q 513 642 488 614 q 565 699 539 671 q 608 763 590 726 q 627 842 627 800 q 577 952 627 911 q 452 993 528 993 q 320 942 371 993 q 269 793 269 890 l 269 71 q 280 43 269 54 q 309 32 292 32 l 339 32 q 355 17 356 32 q 339 0 355 0 l 60 0 q 45 17 44 0 q 60 32 45 33 l 90 32 q 118 43 107 32 q 129 71 129 54 l 129 595 l 60 595 q 45 611 44 595 q 60 627 45 627 l 129 627 l 129 745 q 214 954 129 880 q 440 1028 298 1028 q 604 979 542 1028 q 667 844 667 929 q 653 764 667 800 q 622 706 640 729 q 586 660 604 682 q 554 610 567 637 q 541 553 541 583 z "},"à":{"ha":831,"x_min":61,"x_max":799,"o":"m 412 785 l 210 937 q 197 991 178 961 q 248 1010 216 1021 q 272 991 261 1006 l 432 806 q 434 784 443 793 q 412 785 425 775 m 782 32 q 799 17 799 32 q 782 0 799 0 l 572 0 l 572 165 q 336 -12 498 -12 q 138 76 216 -12 q 61 314 61 164 q 139 548 61 458 q 336 637 216 637 q 572 460 500 637 l 572 627 l 713 627 l 713 71 q 724 43 713 54 q 751 32 734 32 l 782 32 m 375 29 q 514 115 454 29 q 574 313 574 200 q 513 511 574 425 q 375 596 453 596 q 207 313 207 596 q 375 29 207 29 z "},"á":{"ha":831,"x_min":61,"x_max":799,"o":"m 330 785 q 309 784 318 775 q 311 806 300 793 l 471 991 q 533 1006 501 1027 q 550 957 561 986 q 533 937 545 946 l 330 785 m 782 32 q 799 17 799 32 q 782 0 799 0 l 572 0 l 572 165 q 336 -12 498 -12 q 138 76 216 -12 q 61 314 61 164 q 139 548 61 458 q 336 637 216 637 q 572 460 500 637 l 572 627 l 713 627 l 713 71 q 724 43 713 54 q 751 32 734 32 l 782 32 m 375 29 q 514 115 454 29 q 574 313 574 200 q 513 511 574 425 q 375 596 453 596 q 207 313 207 596 q 375 29 207 29 z "},"â":{"ha":831,"x_min":61,"x_max":799,"o":"m 525 800 q 517 775 533 782 q 490 782 501 768 l 370 925 l 248 782 q 228 772 239 772 q 212 781 216 772 q 212 800 208 789 l 318 981 q 368 1013 336 1013 q 419 981 400 1013 l 525 800 m 782 32 q 799 17 799 32 q 782 0 799 0 l 572 0 l 572 165 q 336 -12 498 -12 q 138 76 216 -12 q 61 314 61 164 q 139 548 61 458 q 336 637 216 637 q 572 460 500 637 l 572 627 l 713 627 l 713 71 q 724 43 713 54 q 751 32 734 32 l 782 32 m 375 29 q 514 115 454 29 q 574 313 574 200 q 513 511 574 425 q 375 596 453 596 q 207 313 207 596 q 375 29 207 29 z "},"ã":{"ha":831,"x_min":61,"x_max":799,"o":"m 496 783 q 411 800 453 783 q 340 838 368 817 q 276 875 313 859 q 208 892 240 892 q 140 868 168 892 q 111 806 111 844 q 96 787 111 787 q 84 792 89 787 q 79 806 79 798 q 125 915 79 873 q 244 957 171 957 q 328 940 286 957 q 398 902 370 922 q 463 865 427 882 q 529 848 498 848 q 598 870 569 848 q 627 933 627 892 q 642 953 627 953 q 659 933 659 953 q 613 825 659 867 q 496 783 568 783 m 782 32 q 799 17 799 32 q 782 0 799 0 l 572 0 l 572 165 q 336 -12 498 -12 q 138 76 216 -12 q 61 314 61 164 q 139 548 61 458 q 336 637 216 637 q 572 460 500 637 l 572 627 l 713 627 l 713 71 q 724 43 713 54 q 751 32 734 32 l 782 32 m 375 29 q 514 115 454 29 q 574 313 574 200 q 513 511 574 425 q 375 596 453 596 q 207 313 207 596 q 375 29 207 29 z "},"ä":{"ha":831,"x_min":61,"x_max":799,"o":"m 183 839 q 203 885 183 867 q 249 904 222 904 q 295 885 277 904 q 313 839 313 865 q 295 794 313 812 q 249 775 277 775 q 203 794 222 775 q 183 839 183 812 m 425 839 q 445 885 425 865 q 490 904 464 904 q 535 885 517 904 q 554 839 554 865 q 535 794 554 812 q 490 775 517 775 q 445 794 464 775 q 425 839 425 812 m 782 32 q 799 17 799 32 q 782 0 799 0 l 572 0 l 572 165 q 336 -12 498 -12 q 138 76 216 -12 q 61 314 61 164 q 139 548 61 458 q 336 637 216 637 q 572 460 500 637 l 572 627 l 713 627 l 713 71 q 724 43 713 54 q 751 32 734 32 l 782 32 m 375 29 q 514 115 454 29 q 574 313 574 200 q 513 511 574 425 q 375 596 453 596 q 207 313 207 596 q 375 29 207 29 z "},"å":{"ha":831,"x_min":61,"x_max":799,"o":"m 370 760 q 266 802 309 760 q 222 904 222 844 q 266 1006 222 964 q 370 1048 310 1048 q 472 1006 429 1048 q 514 904 514 964 q 472 803 514 846 q 370 760 429 760 m 370 796 q 444 828 412 796 q 475 904 475 860 q 444 981 475 949 q 370 1013 412 1013 q 293 981 325 1013 q 261 904 261 949 q 293 828 261 859 q 370 796 325 796 m 782 32 q 799 17 799 32 q 782 0 799 0 l 572 0 l 572 165 q 336 -12 498 -12 q 138 76 216 -12 q 61 314 61 164 q 139 548 61 458 q 336 637 216 637 q 572 460 500 637 l 572 627 l 713 627 l 713 71 q 724 43 713 54 q 751 32 734 32 l 782 32 m 375 29 q 514 115 454 29 q 574 313 574 200 q 513 511 574 425 q 375 596 453 596 q 207 313 207 596 q 375 29 207 29 z "},"æ":{"ha":1162,"x_min":50,"x_max":1096,"o":"m 798 637 q 1017 558 938 637 q 1096 339 1096 478 q 1089 320 1096 326 q 1065 314 1082 314 l 625 314 q 678 110 625 189 q 836 31 730 31 q 976 77 921 31 q 1054 186 1031 123 q 1071 200 1059 199 q 1083 183 1086 200 q 1072 148 1082 170 q 1040 98 1063 126 q 989 46 1018 69 q 915 6 961 22 q 815 -11 868 -11 q 611 44 699 -11 q 493 210 524 100 q 408 50 472 110 q 243 -11 345 -11 q 103 38 155 -11 q 50 155 50 87 q 322 338 50 323 l 479 346 l 479 460 q 428 568 479 529 q 310 607 376 607 q 197 581 243 607 q 151 521 151 555 q 175 483 151 505 q 199 433 199 460 q 180 391 199 407 q 138 375 161 375 q 90 396 110 375 q 71 460 71 418 q 137 586 71 535 q 326 637 204 637 q 568 551 498 637 q 798 637 653 637 m 627 343 l 954 343 q 911 543 953 477 q 794 608 869 608 q 675 538 720 608 q 627 343 631 468 m 313 49 q 434 120 388 49 q 479 318 479 191 l 334 310 q 232 270 264 307 q 199 176 199 232 q 229 81 199 114 q 313 49 258 49 z "},"ç":{"ha":720,"x_min":61,"x_max":654,"o":"m 639 197 q 652 191 648 197 q 653 178 656 184 q 629 125 645 151 q 582 64 612 98 q 502 10 551 31 q 389 -11 452 -11 l 375 -83 q 483 -121 446 -90 q 519 -200 519 -151 q 472 -294 519 -258 q 358 -329 424 -329 q 260 -304 300 -329 q 235 -272 235 -289 q 252 -257 235 -256 q 283 -272 256 -257 q 343 -288 311 -288 q 406 -264 380 -288 q 431 -204 431 -240 q 405 -142 431 -168 q 332 -113 379 -115 l 353 -9 q 137 89 214 0 q 61 315 61 178 q 108 494 61 418 q 227 604 155 570 q 383 637 298 637 q 577 579 500 637 q 654 440 654 521 q 631 366 654 391 q 571 340 607 340 q 522 362 542 340 q 501 410 501 383 q 530 469 501 440 q 558 515 558 497 q 510 580 558 553 q 399 607 461 607 q 262 539 317 607 q 208 315 208 471 q 263 101 208 175 q 410 28 318 28 q 544 74 490 28 q 624 184 597 121 q 639 197 628 197 z "},"è":{"ha":745,"x_min":61,"x_max":679,"o":"m 414 785 l 211 937 q 199 991 179 961 q 249 1010 217 1021 q 273 991 262 1006 l 433 806 q 435 784 444 793 q 414 785 426 775 m 679 339 q 671 320 679 326 q 647 314 664 314 l 208 314 q 261 110 208 189 q 418 31 314 31 q 558 77 503 31 q 637 186 614 123 q 653 200 643 199 q 667 183 669 200 q 654 148 664 170 q 623 98 644 126 q 572 46 602 69 q 497 6 543 22 q 397 -11 452 -11 q 270 8 330 -11 q 164 67 211 28 q 89 170 117 106 q 61 315 61 233 q 146 550 61 463 q 380 637 232 637 q 600 558 521 637 q 679 339 679 478 m 208 343 l 538 343 q 493 543 535 477 q 376 608 452 608 q 259 538 304 608 q 208 343 214 468 z "},"é":{"ha":745,"x_min":61,"x_max":679,"o":"m 332 785 q 310 784 319 775 q 313 806 301 793 l 472 991 q 534 1006 503 1027 q 551 957 562 986 q 534 937 546 946 l 332 785 m 679 339 q 671 320 679 326 q 647 314 664 314 l 208 314 q 261 110 208 189 q 418 31 314 31 q 558 77 503 31 q 637 186 614 123 q 653 200 643 199 q 667 183 669 200 q 654 148 664 170 q 623 98 644 126 q 572 46 602 69 q 497 6 543 22 q 397 -11 452 -11 q 270 8 330 -11 q 164 67 211 28 q 89 170 117 106 q 61 315 61 233 q 146 550 61 463 q 380 637 232 637 q 600 558 521 637 q 679 339 679 478 m 208 343 l 538 343 q 493 543 535 477 q 376 608 452 608 q 259 538 304 608 q 208 343 214 468 z "},"ê":{"ha":745,"x_min":61,"x_max":679,"o":"m 526 800 q 518 775 534 782 q 492 782 503 768 l 371 925 l 249 782 q 230 772 241 772 q 214 781 218 772 q 214 800 210 789 l 319 981 q 370 1013 339 1013 q 421 981 401 1013 l 526 800 m 679 339 q 671 320 679 326 q 647 314 664 314 l 208 314 q 261 110 208 189 q 418 31 314 31 q 558 77 503 31 q 637 186 614 123 q 653 200 643 199 q 667 183 669 200 q 654 148 664 170 q 623 98 644 126 q 572 46 602 69 q 497 6 543 22 q 397 -11 452 -11 q 270 8 330 -11 q 164 67 211 28 q 89 170 117 106 q 61 315 61 233 q 146 550 61 463 q 380 637 232 637 q 600 558 521 637 q 679 339 679 478 m 208 343 l 538 343 q 493 543 535 477 q 376 608 452 608 q 259 538 304 608 q 208 343 214 468 z "},"ë":{"ha":745,"x_min":61,"x_max":679,"o":"m 186 839 q 205 885 186 867 q 252 904 224 904 q 297 885 278 904 q 315 839 315 865 q 297 794 315 812 q 252 775 278 775 q 205 794 224 775 q 186 839 186 812 m 427 839 q 446 885 427 865 q 492 904 465 904 q 537 885 519 904 q 555 839 555 865 q 537 794 555 812 q 492 775 518 775 q 446 794 465 775 q 427 839 427 812 m 679 339 q 671 320 679 326 q 647 314 664 314 l 208 314 q 261 110 208 189 q 418 31 314 31 q 558 77 503 31 q 637 186 614 123 q 653 200 643 199 q 667 183 669 200 q 654 148 664 170 q 623 98 644 126 q 572 46 602 69 q 497 6 543 22 q 397 -11 452 -11 q 270 8 330 -11 q 164 67 211 28 q 89 170 117 106 q 61 315 61 233 q 146 550 61 463 q 380 637 232 637 q 600 558 521 637 q 679 339 679 478 m 208 343 l 538 343 q 493 543 535 477 q 376 608 452 608 q 259 538 304 608 q 208 343 214 468 z "},"ì":{"ha":389,"x_min":22,"x_max":355,"o":"m 237 785 l 35 937 q 22 991 3 961 q 72 1010 41 1021 q 97 991 85 1006 l 257 806 q 259 784 268 793 q 237 785 250 775 m 339 32 q 355 17 356 32 q 339 0 355 0 l 60 0 q 45 17 44 0 q 60 32 45 33 l 90 32 q 118 43 107 32 q 129 71 129 54 l 129 555 q 118 584 129 572 q 90 595 107 595 l 60 595 q 45 610 44 595 q 60 627 45 627 l 269 627 l 269 71 q 280 43 269 54 q 309 32 292 32 l 339 32 z "},"í":{"ha":389,"x_min":45,"x_max":375,"o":"m 155 785 q 134 784 143 775 q 136 806 125 793 l 296 991 q 358 1006 326 1027 q 375 957 386 986 q 358 937 370 946 l 155 785 m 339 32 q 355 17 356 32 q 339 0 355 0 l 60 0 q 45 17 44 0 q 60 32 45 33 l 90 32 q 118 43 107 32 q 129 71 129 54 l 129 555 q 118 584 129 572 q 90 595 107 595 l 60 595 q 45 610 44 595 q 60 627 45 627 l 269 627 l 269 71 q 280 43 269 54 q 309 32 292 32 l 339 32 z "},"î":{"ha":389,"x_min":37,"x_max":355,"o":"m 350 800 q 342 775 358 782 q 315 782 326 768 l 195 925 l 72 782 q 53 772 64 772 q 37 781 41 772 q 37 800 33 789 l 143 981 q 194 1013 163 1013 q 244 981 225 1013 l 350 800 m 339 32 q 355 17 356 32 q 339 0 355 0 l 60 0 q 45 17 44 0 q 60 32 45 33 l 90 32 q 118 43 107 32 q 129 71 129 54 l 129 555 q 118 584 129 572 q 90 595 107 595 l 60 595 q 45 610 44 595 q 60 627 45 627 l 269 627 l 269 71 q 280 43 269 54 q 309 32 292 32 l 339 32 z "},"ï":{"ha":389,"x_min":9,"x_max":379,"o":"m 9 839 q 28 885 9 867 q 75 904 47 904 q 120 885 102 904 q 139 839 139 865 q 120 794 139 812 q 75 775 102 775 q 28 794 47 775 q 9 839 9 812 m 250 839 q 270 885 250 865 q 315 904 289 904 q 361 885 343 904 q 379 839 379 865 q 361 794 379 812 q 315 775 343 775 q 270 794 289 775 q 250 839 250 812 m 339 32 q 355 17 356 32 q 339 0 355 0 l 60 0 q 45 17 44 0 q 60 32 45 33 l 90 32 q 118 43 107 32 q 129 71 129 54 l 129 555 q 118 584 129 572 q 90 595 107 595 l 60 595 q 45 610 44 595 q 60 627 45 627 l 269 627 l 269 71 q 280 43 269 54 q 309 32 292 32 l 339 32 z "},"ð":{"ha":780,"x_min":61,"x_max":718,"o":"m 449 936 q 653 723 588 859 q 718 424 718 587 q 626 107 718 225 q 379 -11 533 -11 q 153 73 244 -11 q 61 311 61 157 q 146 549 61 460 q 349 637 232 637 q 562 505 494 637 q 396 882 533 765 l 343 831 l 307 794 l 298 786 q 277 786 288 775 q 277 808 266 797 l 285 817 l 370 901 q 100 978 264 978 q 82 994 81 978 q 100 1013 82 1013 q 418 950 284 1013 l 464 996 l 507 1039 q 530 1039 519 1051 q 529 1017 541 1028 l 449 936 m 383 20 q 521 106 471 20 q 571 335 571 193 q 515 526 571 453 q 386 599 460 599 q 319 586 349 599 q 267 541 290 572 q 230 452 243 510 q 216 311 216 395 q 228 182 216 237 q 257 96 240 126 q 298 47 273 65 q 341 24 322 29 q 383 20 361 20 z "},"ñ":{"ha":833,"x_min":45,"x_max":800,"o":"m 546 783 q 460 800 503 783 q 390 838 418 817 q 327 875 363 859 q 258 892 290 892 q 189 868 217 892 q 161 806 161 844 q 146 787 161 787 q 134 792 139 787 q 129 806 129 798 q 174 915 129 873 q 294 957 220 957 q 377 940 336 957 q 448 902 419 922 q 512 865 476 882 q 579 848 547 848 q 647 870 618 848 q 676 933 676 892 q 692 953 676 953 q 708 933 709 953 q 663 825 708 867 q 546 783 618 783 m 783 32 q 800 17 800 32 q 783 0 800 0 l 504 0 q 489 17 488 0 q 504 32 489 33 l 534 32 q 563 43 551 32 q 574 71 574 54 l 574 421 q 541 541 574 503 q 458 579 509 579 q 322 500 375 579 q 269 309 269 421 l 269 71 q 280 43 269 54 q 309 32 292 32 l 339 32 q 355 17 356 32 q 339 0 355 0 l 60 0 q 45 17 44 0 q 60 32 45 33 l 90 32 q 118 43 107 32 q 129 71 129 54 l 129 555 q 118 584 129 572 q 90 595 107 595 l 60 595 q 45 610 44 595 q 60 627 45 627 l 269 627 l 269 456 q 365 587 301 538 q 514 636 429 636 q 660 584 606 636 q 714 437 714 532 l 714 71 q 725 43 714 54 q 753 32 736 32 l 783 32 z "},"ò":{"ha":766,"x_min":61,"x_max":705,"o":"m 425 785 l 222 937 q 210 991 191 961 q 260 1010 228 1021 q 285 991 273 1006 l 444 806 q 446 784 455 793 q 425 785 437 775 m 383 -11 q 150 77 239 -11 q 61 314 61 164 q 149 547 61 457 q 383 637 236 637 q 616 553 528 637 q 705 314 705 469 q 618 76 705 163 q 383 -11 530 -11 m 382 20 q 513 96 465 20 q 561 314 561 172 q 513 532 561 457 q 383 607 465 607 q 254 532 302 607 q 205 314 205 457 q 252 100 205 180 q 382 20 298 20 z "},"ó":{"ha":766,"x_min":61,"x_max":705,"o":"m 345 785 q 322 784 331 775 q 323 806 313 793 l 484 991 q 546 1006 514 1027 q 562 957 574 986 q 546 937 558 946 l 345 785 m 383 -11 q 150 77 239 -11 q 61 315 61 164 q 149 547 61 457 q 383 637 236 637 q 616 553 528 637 q 705 315 705 469 q 618 76 705 163 q 383 -11 530 -11 m 382 20 q 513 96 465 20 q 561 314 561 172 q 513 532 561 457 q 383 607 465 607 q 254 532 302 607 q 205 314 205 457 q 252 100 205 180 q 382 20 298 20 z "},"ô":{"ha":766,"x_min":61,"x_max":705,"o":"m 538 800 q 530 775 546 782 q 503 782 514 768 l 382 925 l 260 782 q 240 772 252 772 q 225 781 229 772 q 227 800 221 789 l 330 981 q 382 1013 350 1013 q 432 981 414 1013 l 538 800 m 383 -11 q 150 77 239 -11 q 61 315 61 164 q 149 547 61 457 q 383 637 236 637 q 616 553 528 637 q 705 315 705 469 q 618 76 705 163 q 383 -11 530 -11 m 382 20 q 513 96 465 20 q 561 314 561 172 q 513 532 561 457 q 383 607 465 607 q 254 532 302 607 q 205 314 205 457 q 252 100 205 180 q 382 20 298 20 z "},"õ":{"ha":766,"x_min":61,"x_max":705,"o":"m 509 783 q 424 800 466 783 q 353 838 382 817 q 290 875 325 859 q 222 892 254 892 q 153 868 181 892 q 125 806 125 844 q 109 787 125 787 q 98 792 103 787 q 93 806 93 798 q 138 915 93 873 q 257 957 183 957 q 340 940 298 957 q 410 902 382 922 q 475 865 439 882 q 543 848 511 848 q 610 870 582 848 q 639 933 639 892 q 656 953 639 953 q 672 933 673 953 q 626 825 672 867 q 509 783 581 783 m 383 -11 q 150 77 239 -11 q 61 315 61 164 q 149 547 61 457 q 383 637 236 637 q 616 553 528 637 q 705 315 705 469 q 618 76 705 163 q 383 -11 530 -11 m 382 20 q 513 96 465 20 q 561 314 561 172 q 513 532 561 457 q 383 607 465 607 q 255 532 302 607 q 207 314 207 457 q 253 100 207 180 q 382 20 298 20 z "},"ö":{"ha":766,"x_min":61,"x_max":705,"o":"m 197 839 q 216 885 197 867 q 262 904 235 904 q 308 885 289 904 q 326 839 326 865 q 308 794 326 812 q 262 775 289 775 q 216 794 235 775 q 197 839 197 812 m 439 839 q 457 885 439 865 q 504 904 476 904 q 549 885 530 904 q 568 839 568 865 q 549 794 568 812 q 504 775 530 775 q 457 794 476 775 q 439 839 439 812 m 383 -11 q 150 77 239 -11 q 61 315 61 164 q 149 547 61 457 q 383 637 236 637 q 616 553 528 637 q 705 315 705 469 q 618 76 705 163 q 383 -11 530 -11 m 382 20 q 513 96 465 20 q 561 314 561 172 q 513 532 561 457 q 383 607 465 607 q 254 532 302 607 q 205 314 205 457 q 252 100 205 180 q 382 20 298 20 z "},"÷":{"ha":605,"x_min":41,"x_max":542,"o":"m 302 454 q 258 472 276 454 q 240 515 240 490 q 258 560 240 542 q 302 578 277 578 q 347 560 329 578 q 366 515 366 542 q 347 472 366 490 q 302 454 329 454 m 526 339 q 542 323 542 339 q 526 307 542 307 l 58 307 q 41 323 41 307 q 58 339 41 339 l 526 339 m 302 192 q 347 174 329 192 q 366 131 366 155 q 347 86 366 104 q 302 68 329 68 q 258 86 276 68 q 240 131 240 104 q 258 174 240 156 q 302 192 276 192 z "},"ø":{"ha":766,"x_min":61,"x_max":705,"o":"m 503 621 q 651 512 597 590 q 705 315 705 433 q 618 76 705 163 q 383 -11 530 -11 q 294 -1 337 -11 l 268 -82 l 236 -82 l 265 7 q 115 118 170 37 q 61 315 61 199 q 149 547 61 457 q 383 637 236 637 q 472 629 431 637 l 498 707 l 532 707 l 503 621 m 207 314 q 283 60 207 136 l 458 587 q 383 607 425 607 q 255 532 302 607 q 207 314 207 457 m 382 20 q 513 96 465 20 q 561 314 561 172 q 485 567 561 494 l 309 40 q 382 20 342 20 z "},"ù":{"ha":821,"x_min":45,"x_max":787,"o":"m 443 785 l 240 937 q 228 991 208 961 q 278 1010 246 1021 q 302 991 292 1006 l 463 806 q 464 784 473 793 q 443 785 455 775 m 771 32 q 787 17 788 32 q 771 0 787 0 l 561 0 l 561 163 q 470 36 530 83 q 325 -11 410 -11 q 181 41 233 -11 q 129 189 129 93 l 129 555 q 118 584 129 572 q 90 595 107 595 l 60 595 q 45 610 44 595 q 60 627 45 627 l 269 627 l 269 205 q 300 85 269 122 q 380 47 332 47 q 512 125 463 47 q 561 317 561 203 l 561 555 q 550 584 561 572 q 522 595 539 595 l 492 595 q 475 610 475 595 q 492 627 475 627 l 701 627 l 701 71 q 712 43 701 54 q 741 32 724 32 l 771 32 z "},"ú":{"ha":821,"x_min":45,"x_max":787,"o":"m 361 785 q 339 784 349 775 q 342 806 330 793 l 501 991 q 564 1006 532 1027 q 581 957 591 986 q 564 937 575 946 l 361 785 m 771 32 q 787 17 788 32 q 771 0 787 0 l 561 0 l 561 163 q 470 36 530 83 q 325 -11 410 -11 q 181 41 233 -11 q 129 189 129 93 l 129 555 q 118 584 129 572 q 90 595 107 595 l 60 595 q 45 610 44 595 q 60 627 45 627 l 269 627 l 269 205 q 300 85 269 122 q 380 47 332 47 q 512 125 463 47 q 561 317 561 203 l 561 555 q 550 584 561 572 q 522 595 539 595 l 492 595 q 475 610 475 595 q 492 627 475 627 l 701 627 l 701 71 q 712 43 701 54 q 741 32 724 32 l 771 32 z "},"û":{"ha":821,"x_min":45,"x_max":787,"o":"m 555 800 q 548 775 564 782 q 521 782 532 768 l 400 925 l 278 782 q 259 772 270 772 q 243 781 248 772 q 243 800 239 789 l 349 981 q 399 1013 367 1013 q 450 981 431 1013 l 555 800 m 771 32 q 787 17 788 32 q 771 0 787 0 l 561 0 l 561 163 q 470 36 530 83 q 325 -11 410 -11 q 181 41 233 -11 q 129 189 129 93 l 129 555 q 118 584 129 572 q 90 595 107 595 l 60 595 q 45 610 44 595 q 60 627 45 627 l 269 627 l 269 205 q 300 85 269 122 q 380 47 332 47 q 512 125 463 47 q 561 317 561 203 l 561 555 q 550 584 561 572 q 522 595 539 595 l 492 595 q 475 610 475 595 q 492 627 475 627 l 701 627 l 701 71 q 712 43 701 54 q 741 32 724 32 l 771 32 z "},"ü":{"ha":821,"x_min":45,"x_max":787,"o":"m 215 839 q 234 885 215 867 q 279 904 253 904 q 325 885 307 904 q 343 839 343 865 q 325 794 343 812 q 279 775 307 775 q 234 794 253 775 q 215 839 215 812 m 456 839 q 475 885 456 865 q 521 904 494 904 q 566 885 547 904 q 585 839 585 865 q 566 794 585 812 q 521 775 547 775 q 475 794 494 775 q 456 839 456 812 m 771 32 q 787 17 788 32 q 771 0 787 0 l 561 0 l 561 163 q 470 36 530 83 q 325 -11 410 -11 q 181 41 233 -11 q 129 189 129 93 l 129 555 q 118 584 129 572 q 90 595 107 595 l 60 595 q 45 610 44 595 q 60 627 45 627 l 269 627 l 269 205 q 300 85 269 122 q 380 47 332 47 q 512 125 463 47 q 561 317 561 203 l 561 555 q 550 584 561 572 q 522 595 539 595 l 492 595 q 475 610 475 595 q 492 627 475 627 l 701 627 l 701 71 q 712 43 701 54 q 741 32 724 32 l 771 32 z "},"ý":{"ha":808,"x_min":45,"x_max":701,"o":"m 376 785 q 354 784 363 775 q 355 806 345 793 l 515 991 q 579 1006 546 1027 q 595 957 606 986 q 578 937 591 946 l 376 785 m 492 627 l 701 627 l 701 -41 q 357 -395 701 -394 q 160 -334 235 -395 q 85 -183 85 -273 q 109 -116 85 -140 q 165 -92 134 -92 q 213 -110 193 -92 q 232 -160 232 -127 q 208 -213 232 -188 q 184 -260 184 -237 q 228 -329 184 -296 q 349 -363 271 -363 q 508 -291 454 -363 q 561 -94 561 -220 l 561 163 q 470 36 530 83 q 325 -11 410 -11 q 181 41 233 -11 q 129 189 129 93 l 129 555 q 118 584 129 572 q 90 595 107 595 l 60 595 q 45 610 44 595 q 60 627 45 627 l 269 627 l 269 205 q 300 85 269 122 q 380 47 332 47 q 512 125 463 47 q 561 317 561 203 l 561 555 q 550 584 561 572 q 522 595 539 595 l 492 595 q 475 610 475 595 q 492 627 475 627 z "},"þ":{"ha":842,"x_min":45,"x_max":781,"o":"m 505 637 q 703 548 625 637 q 781 314 781 458 q 704 76 781 164 q 505 -12 627 -12 q 269 165 342 -12 l 269 -306 q 280 -334 269 -323 q 309 -345 292 -345 l 339 -345 q 355 -359 356 -345 q 339 -376 355 -376 l 129 -376 l 129 844 q 118 872 129 861 q 90 884 107 884 l 60 884 q 45 899 44 884 q 60 916 45 916 l 269 916 l 269 460 q 505 637 342 637 m 467 29 q 635 313 635 29 q 467 596 635 596 q 328 511 389 596 q 268 313 268 425 q 328 115 268 200 q 467 29 387 29 z "},"ÿ":{"ha":808,"x_min":45,"x_max":701,"o":"m 229 839 q 248 885 229 867 q 294 904 267 904 q 339 885 321 904 q 358 839 358 865 q 339 794 358 812 q 294 775 321 775 q 248 794 267 775 q 229 839 229 812 m 471 839 q 490 885 471 865 q 536 904 509 904 q 582 885 563 904 q 600 839 600 865 q 581 794 600 812 q 536 775 562 775 q 490 794 509 775 q 471 839 471 812 m 492 627 l 701 627 l 701 -41 q 357 -395 701 -394 q 160 -334 235 -395 q 85 -183 85 -273 q 109 -117 85 -140 q 165 -93 134 -93 q 213 -110 193 -93 q 232 -160 232 -127 q 208 -213 232 -188 q 184 -260 184 -237 q 228 -329 184 -296 q 349 -363 271 -363 q 508 -291 454 -363 q 561 -94 561 -220 l 561 163 q 470 36 530 83 q 325 -11 410 -11 q 181 41 233 -11 q 129 189 129 93 l 129 555 q 118 584 129 572 q 90 595 107 595 l 60 595 q 45 610 44 595 q 60 627 45 627 l 269 627 l 269 205 q 300 85 269 122 q 380 47 332 47 q 512 125 463 47 q 561 317 561 203 l 561 555 q 550 584 561 572 q 522 595 539 595 l 492 595 q 475 610 475 595 q 492 627 475 627 z "},"Ā":{"ha":951,"x_min":5,"x_max":947,"o":"m 286 1003 q 272 1008 278 1003 q 267 1019 267 1013 q 286 1036 267 1036 l 675 1036 q 693 1019 693 1036 q 675 1003 693 1002 l 286 1003 m 930 32 q 942 27 937 32 q 947 16 947 22 q 942 4 947 9 q 930 0 937 0 l 578 0 q 566 4 571 0 q 561 16 561 8 q 566 27 561 22 q 578 32 571 32 l 628 32 q 659 46 649 32 q 661 81 668 60 l 578 288 l 237 288 l 155 81 q 158 46 149 61 q 189 32 168 32 l 239 32 q 251 27 245 32 q 256 16 256 22 q 251 4 256 9 q 239 0 245 0 l 21 0 q 10 4 14 0 q 5 16 5 8 q 9 27 5 22 q 21 32 14 32 l 54 32 q 118 81 100 32 l 453 921 l 494 921 l 832 79 q 900 32 852 32 l 930 32 m 250 318 l 566 318 l 407 717 l 250 318 z "},"ā":{"ha":831,"x_min":61,"x_max":799,"o":"m 178 800 q 163 806 168 800 q 158 818 158 811 q 178 835 158 835 l 567 835 q 583 817 584 835 q 567 800 583 800 l 178 800 m 782 32 q 799 17 799 32 q 782 0 799 0 l 572 0 l 572 165 q 336 -12 498 -12 q 138 76 216 -12 q 61 314 61 164 q 139 548 61 458 q 336 637 216 637 q 572 460 500 637 l 572 627 l 713 627 l 713 71 q 724 43 713 54 q 751 32 734 32 l 782 32 m 375 29 q 514 115 454 29 q 574 313 574 200 q 513 511 574 425 q 375 596 453 596 q 207 313 207 596 q 375 29 207 29 z "},"Ă":{"ha":951,"x_min":5,"x_max":947,"o":"m 629 1169 l 668 1169 q 611 1037 668 1091 q 475 982 554 982 q 338 1037 394 982 q 282 1169 282 1092 l 321 1169 q 366 1060 321 1105 q 475 1015 411 1015 q 584 1060 539 1015 q 629 1169 629 1104 m 930 32 q 942 27 937 32 q 947 16 947 22 q 942 4 947 9 q 930 0 937 0 l 578 0 q 566 4 571 0 q 561 16 561 8 q 566 27 561 22 q 578 32 571 32 l 628 32 q 659 46 649 32 q 661 81 668 60 l 578 288 l 237 288 l 155 81 q 158 46 149 61 q 189 32 168 32 l 239 32 q 251 27 245 32 q 256 16 256 22 q 251 4 256 9 q 239 0 245 0 l 21 0 q 10 4 14 0 q 5 16 5 8 q 9 27 5 22 q 21 32 14 32 l 54 32 q 118 81 100 32 l 453 921 l 494 921 l 832 79 q 900 32 852 32 l 930 32 m 250 318 l 566 318 l 407 717 l 250 318 z "},"ă":{"ha":831,"x_min":61,"x_max":799,"o":"m 522 968 l 561 968 q 505 835 561 890 q 370 781 449 781 q 233 836 289 781 q 176 968 176 890 l 215 968 q 260 860 215 904 q 369 815 304 815 q 478 860 433 815 q 522 968 522 904 m 782 32 q 799 17 799 32 q 782 0 799 0 l 572 0 l 572 165 q 336 -12 498 -12 q 138 76 216 -12 q 61 314 61 164 q 139 548 61 458 q 336 637 216 637 q 572 460 500 637 l 572 627 l 713 627 l 713 71 q 724 43 713 54 q 751 32 734 32 l 782 32 m 375 29 q 514 115 454 29 q 574 313 574 200 q 513 511 574 425 q 375 596 453 596 q 207 313 207 596 q 375 29 207 29 z "},"Ą":{"ha":951,"x_min":5,"x_max":947,"o":"m 930 32 q 942 27 937 32 q 947 16 947 22 q 942 4 947 9 q 930 0 937 0 l 825 0 q 728 -203 728 -71 q 806 -332 728 -332 q 890 -281 859 -332 q 903 -273 896 -274 q 914 -286 913 -273 q 911 -296 914 -290 q 790 -359 876 -359 q 675 -320 718 -359 q 632 -215 632 -281 q 674 -99 632 -155 q 786 0 717 -43 l 578 0 q 566 4 571 0 q 561 16 561 8 q 566 27 561 22 q 578 32 571 32 l 628 32 q 659 46 649 32 q 661 81 668 60 l 578 288 l 237 288 l 155 81 q 158 46 149 61 q 189 32 168 32 l 239 32 q 251 27 245 32 q 256 16 256 22 q 251 4 256 9 q 239 0 245 0 l 21 0 q 10 4 14 0 q 5 16 5 8 q 9 27 5 22 q 21 32 14 32 l 54 32 q 118 81 100 32 l 453 921 l 494 921 l 832 79 q 900 32 852 32 l 930 32 m 250 318 l 566 318 l 407 717 l 250 318 z "},"ą":{"ha":831,"x_min":61,"x_max":799,"o":"m 786 -267 q 798 -279 797 -267 q 794 -289 798 -283 q 673 -353 760 -353 q 558 -314 602 -353 q 515 -208 515 -275 q 555 -96 515 -151 q 660 0 595 -41 l 572 0 l 572 165 q 336 -12 498 -12 q 138 76 216 -12 q 61 314 61 164 q 139 548 61 458 q 336 637 216 637 q 572 460 500 637 l 572 627 l 713 627 l 713 71 q 724 43 713 54 q 751 32 734 32 l 782 32 q 799 17 799 32 q 782 0 799 0 l 699 0 q 611 -196 611 -69 q 689 -325 611 -325 q 774 -273 742 -325 q 786 -267 778 -267 m 375 29 q 514 115 454 29 q 574 313 574 200 q 513 511 574 425 q 375 596 453 596 q 207 313 207 596 q 375 29 207 29 z "},"Ć":{"ha":916,"x_min":66,"x_max":847,"o":"m 464 985 q 443 984 452 975 q 444 1006 433 993 l 604 1192 q 667 1206 635 1227 q 684 1157 694 1186 q 667 1137 678 1146 l 464 985 m 753 772 q 691 854 753 817 q 534 892 629 892 q 419 868 471 892 q 325 795 367 844 q 260 660 283 746 q 237 457 237 574 q 315 146 237 260 q 538 33 393 33 q 704 80 631 33 q 807 187 777 126 q 829 207 818 207 q 841 202 836 207 q 844 189 846 197 q 778 94 835 146 q 510 -11 671 -12 q 185 120 303 -11 q 66 457 66 250 q 190 799 66 672 q 510 926 314 926 q 754 858 661 926 q 847 699 847 790 q 823 620 847 647 q 765 593 799 593 q 714 612 736 593 q 693 664 693 632 q 723 722 693 692 q 753 772 753 753 z "},"ć":{"ha":720,"x_min":61,"x_max":654,"o":"m 339 785 q 316 784 326 775 q 318 806 307 793 l 479 991 q 542 1006 509 1027 q 557 957 568 986 q 541 937 553 946 l 339 785 m 654 440 q 631 366 654 391 q 571 340 607 340 q 522 362 542 340 q 501 410 501 383 q 530 469 501 440 q 558 515 558 497 q 510 580 558 553 q 399 607 461 607 q 262 539 317 607 q 208 315 208 471 q 263 101 208 175 q 410 28 318 28 q 544 74 490 28 q 624 184 597 121 q 639 197 628 197 q 652 191 648 197 q 653 178 656 184 q 629 125 645 151 q 582 64 612 98 q 502 10 551 31 q 389 -11 452 -11 q 147 79 233 -11 q 61 315 61 168 q 108 494 61 418 q 227 604 155 570 q 383 637 298 637 q 577 579 500 637 q 654 440 654 521 z "},"Ċ":{"ha":916,"x_min":66,"x_max":847,"o":"m 439 1050 q 461 1102 439 1080 q 514 1124 484 1124 q 565 1102 543 1124 q 586 1050 586 1080 q 565 999 586 1021 q 514 978 543 978 q 461 999 484 978 q 439 1050 439 1021 m 753 772 q 691 854 753 817 q 534 892 629 892 q 419 868 471 892 q 325 795 367 844 q 260 660 283 746 q 237 457 237 574 q 315 146 237 260 q 538 33 393 33 q 704 80 631 33 q 807 187 777 126 q 829 207 818 207 q 841 202 836 207 q 844 189 846 197 q 778 94 835 146 q 510 -11 671 -12 q 185 120 303 -11 q 66 457 66 250 q 190 799 66 672 q 510 926 314 926 q 754 858 661 926 q 847 699 847 790 q 823 620 847 647 q 765 593 799 593 q 714 612 736 593 q 693 664 693 632 q 723 722 693 692 q 753 772 753 753 z "},"ċ":{"ha":720,"x_min":61,"x_max":654,"o":"m 302 856 q 326 912 302 889 q 383 935 350 935 q 438 911 415 935 q 461 856 461 888 q 438 800 461 824 q 383 777 415 777 q 326 800 350 777 q 302 856 302 823 m 654 440 q 631 366 654 391 q 571 340 607 340 q 522 362 542 340 q 501 410 501 383 q 530 469 501 440 q 558 515 558 497 q 510 580 558 553 q 399 607 461 607 q 262 539 317 607 q 208 315 208 471 q 263 101 208 175 q 410 28 318 28 q 544 74 490 28 q 624 184 597 121 q 639 197 628 197 q 652 191 648 197 q 653 178 656 184 q 629 125 645 151 q 582 64 612 98 q 502 10 551 31 q 389 -11 452 -11 q 147 79 233 -11 q 61 315 61 168 q 108 494 61 418 q 227 604 155 570 q 383 637 298 637 q 577 579 500 637 q 654 440 654 521 z "},"Č":{"ha":916,"x_min":66,"x_max":847,"o":"m 671 1186 l 567 1006 q 515 973 547 972 q 465 1006 484 974 l 359 1186 q 360 1204 354 1196 q 375 1213 366 1213 q 395 1204 385 1213 l 517 1061 l 637 1204 q 664 1211 648 1218 q 671 1186 680 1204 m 753 772 q 691 854 753 817 q 534 892 629 892 q 419 868 471 892 q 325 795 367 844 q 260 660 283 746 q 237 457 237 574 q 315 146 237 260 q 538 33 393 33 q 704 80 631 33 q 807 187 777 126 q 829 207 818 207 q 841 202 836 207 q 844 189 846 197 q 778 94 835 146 q 510 -11 671 -12 q 185 120 303 -11 q 66 457 66 250 q 190 799 66 672 q 510 926 314 926 q 754 858 661 926 q 847 699 847 790 q 823 620 847 647 q 765 593 799 593 q 714 612 736 593 q 693 664 693 632 q 723 722 693 692 q 753 772 753 753 z "},"č":{"ha":720,"x_min":61,"x_max":654,"o":"m 533 987 l 428 808 q 378 775 410 775 q 326 808 346 775 l 222 987 q 221 1007 216 998 q 237 1015 227 1015 q 256 1007 248 1015 l 378 864 l 498 1007 q 526 1013 511 1021 q 533 987 541 1006 m 654 440 q 631 366 654 391 q 571 340 607 340 q 522 362 542 340 q 501 410 501 383 q 530 469 501 440 q 558 515 558 497 q 510 580 558 553 q 399 607 461 607 q 262 539 317 607 q 208 315 208 471 q 263 101 208 175 q 410 28 318 28 q 544 74 490 28 q 624 184 597 121 q 639 197 628 197 q 652 191 648 197 q 653 178 656 184 q 629 125 645 151 q 582 64 612 98 q 502 10 551 31 q 389 -11 452 -11 q 147 79 233 -11 q 61 315 61 168 q 108 494 61 418 q 227 604 155 570 q 383 637 298 637 q 577 579 500 637 q 654 440 654 521 z "},"Ď":{"ha":983,"x_min":37,"x_max":917,"o":"m 579 1186 l 473 1006 q 424 973 455 972 q 372 1006 392 974 l 268 1186 q 267 1204 261 1196 q 282 1213 272 1213 q 301 1204 293 1213 l 424 1061 l 545 1204 q 571 1211 555 1218 q 579 1186 587 1204 m 390 916 q 917 464 916 916 q 775 131 917 261 q 390 0 633 0 l 54 0 q 37 17 37 0 q 54 32 37 33 l 85 32 q 113 42 102 32 q 123 66 123 53 l 123 847 q 113 873 123 863 q 85 884 102 884 l 54 884 q 37 899 37 884 q 54 916 37 916 l 390 916 m 390 32 q 526 60 462 32 q 640 140 590 87 q 718 276 689 192 q 746 464 746 359 q 649 779 746 673 q 390 884 553 884 l 319 884 q 292 873 302 884 q 281 848 281 863 l 281 68 q 292 42 281 52 q 319 32 302 32 l 390 32 z "},"ď":{"ha":956,"x_min":61,"x_max":956,"o":"m 782 32 q 799 17 799 32 q 782 0 799 0 l 572 0 l 572 165 q 336 -12 498 -12 q 138 76 216 -12 q 61 314 61 164 q 139 548 61 458 q 336 637 216 637 q 572 460 500 637 l 572 942 q 561 970 572 959 q 533 981 550 981 l 503 981 q 486 996 486 981 q 503 1013 486 1013 l 713 1013 l 713 71 q 724 43 713 54 q 751 32 734 32 l 782 32 m 871 869 q 822 889 842 869 q 802 937 802 908 q 823 989 802 969 q 875 1010 844 1010 q 933 985 911 1010 q 956 917 956 961 q 932 820 956 874 q 881 731 909 766 q 835 696 852 696 q 825 702 828 696 q 828 715 822 708 q 913 889 897 783 q 871 869 897 869 m 375 29 q 514 115 454 29 q 574 313 574 200 q 513 511 574 425 q 375 596 453 596 q 207 313 207 596 q 375 29 207 29 z "},"Đ":{"ha":977,"x_min":37,"x_max":917,"o":"m 390 916 q 917 464 916 916 q 775 131 917 261 q 390 0 633 0 l 54 0 q 37 17 37 0 q 54 32 37 33 l 85 32 q 113 42 102 32 q 123 66 123 53 l 123 460 l 54 460 q 37 476 37 460 q 54 492 37 492 l 123 492 l 123 847 q 113 873 123 863 q 85 884 102 884 l 54 884 q 37 899 37 884 q 54 916 37 916 l 390 916 m 390 32 q 526 60 462 32 q 640 140 590 87 q 718 276 689 192 q 746 464 746 359 q 649 779 746 673 q 390 884 553 884 l 319 884 q 292 873 302 884 q 281 848 281 863 l 281 492 l 522 492 q 538 476 538 492 q 522 460 538 459 l 281 460 l 281 68 q 292 42 281 52 q 319 32 302 32 l 390 32 z "},"đ":{"ha":847,"x_min":61,"x_max":822,"o":"m 807 818 q 822 802 823 818 q 807 786 822 786 l 713 786 l 713 71 q 724 43 713 54 q 751 32 734 32 l 782 32 q 799 17 799 32 q 782 0 799 0 l 572 0 l 572 165 q 336 -12 498 -12 q 138 76 216 -12 q 61 314 61 164 q 139 548 61 458 q 336 637 216 637 q 572 460 500 637 l 572 786 l 425 786 q 408 803 408 786 q 425 818 408 819 l 572 818 l 572 942 q 561 970 572 959 q 533 981 550 981 l 503 981 q 486 996 486 981 q 503 1013 486 1013 l 713 1013 l 713 818 l 807 818 m 375 29 q 514 115 454 29 q 574 313 574 200 q 513 511 574 425 q 375 596 453 596 q 207 313 207 596 q 375 29 207 29 z "},"Ē":{"ha":826,"x_min":39,"x_max":718,"o":"m 229 1003 q 215 1008 221 1003 q 210 1019 210 1013 q 229 1036 210 1036 l 618 1036 q 636 1019 636 1036 q 618 1003 636 1002 l 229 1003 m 703 260 q 718 244 718 260 l 718 0 l 54 0 q 39 17 39 0 q 54 32 39 33 l 85 32 q 113 42 102 32 q 123 66 123 53 l 123 847 q 113 873 123 863 q 85 884 102 884 l 54 884 q 39 899 39 884 q 54 916 39 916 l 715 916 l 715 671 q 699 656 715 655 q 684 671 683 656 l 684 711 q 639 835 684 787 q 513 884 595 884 l 321 884 q 292 873 302 884 q 282 848 282 863 l 282 493 l 359 493 q 467 520 439 493 q 494 607 494 547 l 494 616 q 499 628 494 623 q 510 633 504 633 q 522 629 517 633 q 526 616 526 624 l 526 338 q 522 326 526 331 q 510 321 517 321 q 494 339 494 321 l 494 349 q 467 433 494 407 q 359 460 439 460 l 282 460 l 282 68 q 292 42 282 52 q 321 32 302 32 l 517 32 q 643 80 599 32 q 688 205 688 129 l 688 244 q 703 260 687 260 z "},"ē":{"ha":745,"x_min":61,"x_max":679,"o":"m 179 800 q 165 806 171 800 q 160 818 160 811 q 179 835 160 835 l 568 835 q 585 817 585 835 q 568 800 585 800 l 179 800 m 679 339 q 671 320 679 326 q 647 314 664 314 l 208 314 q 261 110 208 189 q 418 31 314 31 q 558 77 503 31 q 637 186 614 123 q 653 200 643 199 q 667 183 669 200 q 654 148 664 170 q 623 98 644 126 q 572 46 602 69 q 497 6 543 22 q 397 -11 452 -11 q 270 8 330 -11 q 164 67 211 28 q 89 170 117 106 q 61 315 61 233 q 146 550 61 463 q 380 637 232 637 q 600 558 521 637 q 679 339 679 478 m 208 343 l 538 343 q 493 543 535 477 q 376 608 452 608 q 259 538 304 608 q 208 343 214 468 z "},"Ė":{"ha":826,"x_min":39,"x_max":718,"o":"m 345 1050 q 366 1102 345 1080 q 418 1124 387 1124 q 469 1102 448 1124 q 490 1050 490 1080 q 470 999 490 1021 q 418 978 449 978 q 366 999 387 978 q 345 1050 345 1021 m 703 260 q 718 244 718 260 l 718 0 l 54 0 q 39 17 39 0 q 54 32 39 33 l 85 32 q 113 42 102 32 q 123 66 123 53 l 123 847 q 113 873 123 863 q 85 884 102 884 l 54 884 q 39 899 39 884 q 54 916 39 916 l 715 916 l 715 671 q 699 656 715 655 q 684 671 683 656 l 684 711 q 639 835 684 787 q 513 884 595 884 l 321 884 q 292 873 302 884 q 282 848 282 863 l 282 493 l 359 493 q 467 520 439 493 q 494 607 494 547 l 494 616 q 499 628 494 623 q 510 633 504 633 q 522 629 517 633 q 526 616 526 624 l 526 338 q 522 326 526 331 q 510 321 517 321 q 494 339 494 321 l 494 349 q 467 433 494 407 q 359 460 439 460 l 282 460 l 282 68 q 292 42 282 52 q 319 32 302 32 l 517 32 q 643 80 599 32 q 688 205 688 129 l 688 244 q 703 260 687 260 z "},"ė":{"ha":745,"x_min":61,"x_max":679,"o":"m 296 856 q 319 912 296 889 q 376 935 343 935 q 432 911 408 935 q 456 856 456 888 q 432 800 456 824 q 376 777 408 777 q 319 800 343 777 q 296 856 296 823 m 679 339 q 671 320 679 326 q 647 314 664 314 l 208 314 q 261 110 208 189 q 418 31 314 31 q 558 77 503 31 q 637 186 614 123 q 653 200 643 199 q 667 183 669 200 q 654 148 664 170 q 623 98 644 126 q 572 46 602 69 q 497 6 543 22 q 397 -11 452 -11 q 270 8 330 -11 q 164 67 211 28 q 89 170 117 106 q 61 315 61 233 q 146 550 61 463 q 380 637 232 637 q 600 558 521 637 q 679 339 679 478 m 208 343 l 538 343 q 493 543 535 477 q 376 608 452 608 q 259 538 304 608 q 208 343 214 468 z "},"Ę":{"ha":826,"x_min":39,"x_max":718,"o":"m 624 0 q 528 -203 528 -71 q 604 -332 528 -332 q 689 -281 659 -332 q 701 -273 694 -274 q 713 -286 712 -273 q 710 -296 713 -290 q 589 -359 675 -359 q 474 -320 517 -359 q 431 -215 431 -281 q 473 -99 431 -155 q 586 0 515 -43 l 54 0 q 39 17 39 0 q 54 32 39 33 l 85 32 q 113 42 102 32 q 123 66 123 53 l 123 847 q 113 873 123 863 q 85 884 102 884 l 54 884 q 39 899 39 884 q 54 916 39 916 l 715 916 l 715 671 q 699 656 715 655 q 684 671 683 656 l 684 711 q 639 835 684 787 q 513 884 595 884 l 321 884 q 292 873 302 884 q 282 848 282 863 l 282 493 l 359 493 q 467 520 439 493 q 494 607 494 547 l 494 616 q 499 628 494 623 q 510 633 504 633 q 522 629 517 633 q 526 616 526 624 l 526 338 q 522 326 526 331 q 510 321 517 321 q 494 339 494 321 l 494 349 q 467 433 494 407 q 359 460 439 460 l 282 460 l 282 68 q 292 42 282 52 q 319 32 302 32 l 517 32 q 643 80 599 32 q 688 205 688 129 l 688 244 q 703 260 688 260 q 718 244 718 260 l 718 0 l 624 0 z "},"ę":{"ha":745,"x_min":61,"x_max":679,"o":"m 679 339 q 671 320 679 326 q 647 314 664 314 l 208 314 q 261 110 208 189 q 418 31 314 31 q 558 77 503 31 q 637 186 614 123 q 653 200 643 199 q 667 183 669 200 q 652 144 664 168 q 619 92 640 121 q 561 37 597 62 q 478 -1 524 11 q 383 -203 384 -72 q 461 -332 383 -332 q 545 -281 514 -332 q 557 -273 550 -274 q 568 -286 568 -273 q 566 -296 568 -290 q 446 -359 531 -359 q 330 -320 372 -359 q 288 -215 288 -281 q 325 -106 288 -159 q 425 -11 363 -53 q 397 -11 412 -11 q 270 8 330 -11 q 164 67 211 28 q 89 170 117 106 q 61 315 61 233 q 146 550 61 463 q 380 637 232 637 q 600 558 521 637 q 679 339 679 478 m 208 343 l 538 343 q 493 543 535 477 q 376 608 452 608 q 259 538 304 608 q 208 343 214 468 z "},"Ě":{"ha":826,"x_min":37,"x_max":718,"o":"m 576 1186 l 471 1006 q 420 973 451 972 q 370 1006 389 974 l 265 1186 q 264 1204 258 1196 q 280 1213 269 1213 q 298 1204 290 1213 l 421 1061 l 542 1204 q 569 1211 553 1218 q 576 1186 585 1204 m 703 260 q 718 244 718 260 l 718 0 l 54 0 q 37 17 37 0 q 54 32 37 33 l 85 32 q 113 42 102 32 q 123 66 123 53 l 123 847 q 113 873 123 863 q 85 884 102 884 l 54 884 q 37 899 37 884 q 54 916 37 916 l 715 916 l 715 671 q 699 656 715 655 q 684 671 683 656 l 684 711 q 639 835 684 787 q 513 884 595 884 l 319 884 q 292 873 302 884 q 282 848 282 863 l 282 493 l 359 493 q 466 520 437 493 q 494 607 494 547 l 494 616 q 499 628 494 623 q 510 633 504 633 q 522 629 517 633 q 526 616 526 624 l 526 338 q 522 326 526 331 q 510 321 517 321 q 494 339 494 321 l 494 349 q 467 433 494 407 q 359 460 439 460 l 282 460 l 282 68 q 292 42 282 52 q 319 32 302 32 l 517 32 q 643 80 599 32 q 688 205 688 129 l 688 244 q 703 260 687 260 z "},"ě":{"ha":745,"x_min":61,"x_max":679,"o":"m 526 987 l 422 808 q 371 775 403 775 q 321 808 339 775 l 215 987 q 215 1007 210 998 q 231 1015 221 1015 q 250 1007 240 1015 l 371 864 l 493 1007 q 520 1013 504 1021 q 526 987 536 1006 m 679 339 q 671 320 679 326 q 647 314 664 314 l 208 314 q 261 110 208 189 q 418 31 314 31 q 558 77 503 31 q 637 186 614 123 q 653 200 643 199 q 667 183 669 200 q 654 148 664 170 q 623 98 644 126 q 572 46 602 69 q 497 6 543 22 q 397 -11 452 -11 q 270 8 330 -11 q 164 67 211 28 q 89 170 117 106 q 61 315 61 233 q 146 550 61 463 q 380 637 232 637 q 600 558 521 637 q 679 339 679 478 m 208 343 l 538 343 q 493 543 535 477 q 376 608 452 608 q 259 538 304 608 q 208 343 214 468 z "},"Ğ":{"ha":977,"x_min":66,"x_max":865,"o":"m 694 1169 l 733 1169 q 677 1037 733 1091 q 542 982 621 982 q 405 1037 461 982 q 349 1169 349 1092 l 387 1169 q 432 1060 387 1105 q 541 1015 476 1015 q 650 1060 606 1015 q 694 1169 694 1104 m 865 79 q 528 -11 701 -11 q 194 116 322 -11 q 66 457 66 243 q 103 657 66 567 q 203 806 140 747 q 349 895 267 864 q 524 926 431 926 q 759 861 664 926 q 854 699 854 796 q 831 620 854 647 q 774 593 807 593 q 723 612 745 593 q 701 664 701 632 q 730 722 701 692 q 760 772 760 753 q 695 856 760 820 q 546 892 631 892 q 457 879 498 892 q 374 835 415 867 q 303 755 334 803 q 255 630 273 707 q 237 457 237 554 q 326 143 237 256 q 558 31 414 31 q 708 58 632 31 l 708 340 q 697 368 708 356 q 669 379 686 379 l 589 379 q 572 395 572 379 q 589 410 572 410 l 865 410 l 865 79 z "},"ğ":{"ha":825,"x_min":66,"x_max":718,"o":"m 503 968 l 542 968 q 486 835 542 890 q 349 781 429 781 q 212 836 269 781 q 155 968 155 890 l 195 968 q 240 860 195 904 q 349 815 285 815 q 458 860 414 815 q 503 968 503 904 m 578 627 l 718 627 l 718 -41 q 620 -305 718 -215 q 353 -395 521 -395 q 148 -333 229 -395 q 66 -183 66 -272 q 91 -117 66 -140 q 147 -93 115 -93 q 194 -110 175 -93 q 214 -160 214 -127 q 190 -213 214 -188 q 167 -260 167 -237 q 216 -329 167 -294 q 345 -363 265 -363 q 516 -290 454 -363 q 578 -94 578 -216 l 578 165 q 340 -12 504 -12 q 144 76 221 -12 q 66 314 66 164 q 144 548 66 458 q 340 637 222 637 q 578 460 505 637 l 578 627 m 380 29 q 519 115 460 29 q 579 313 579 200 q 519 511 579 425 q 380 596 458 596 q 212 313 212 596 q 380 29 212 29 z "},"Ġ":{"ha":977,"x_min":66,"x_max":865,"o":"m 467 1050 q 488 1102 467 1080 q 542 1124 510 1124 q 592 1102 571 1124 q 614 1050 614 1080 q 592 999 614 1021 q 542 978 571 978 q 488 999 510 978 q 467 1050 467 1021 m 865 79 q 528 -11 701 -11 q 194 116 322 -11 q 66 457 66 243 q 103 657 66 567 q 203 806 140 747 q 349 895 267 864 q 524 926 431 926 q 759 861 664 926 q 854 699 854 796 q 831 620 854 647 q 774 593 807 593 q 723 612 745 593 q 701 664 701 632 q 730 722 701 692 q 760 772 760 753 q 695 856 760 820 q 545 892 631 892 q 457 879 498 892 q 374 835 415 867 q 303 755 334 803 q 255 630 273 707 q 237 457 237 554 q 326 143 237 256 q 558 31 414 31 q 708 58 632 31 l 708 340 q 697 368 708 356 q 669 379 686 379 l 589 379 q 572 395 572 379 q 589 410 572 410 l 865 410 l 865 79 z "},"ġ":{"ha":825,"x_min":66,"x_max":718,"o":"m 275 856 q 298 912 275 889 q 355 935 321 935 q 410 911 387 935 q 433 856 433 888 q 410 800 433 824 q 355 777 387 777 q 298 800 321 777 q 275 856 275 823 m 578 627 l 718 627 l 718 -41 q 620 -305 718 -215 q 353 -395 521 -395 q 148 -333 229 -395 q 66 -183 66 -272 q 91 -117 66 -140 q 147 -93 115 -93 q 194 -110 175 -93 q 214 -160 214 -127 q 190 -213 214 -188 q 167 -260 167 -237 q 216 -329 167 -294 q 345 -363 265 -363 q 516 -290 454 -363 q 578 -94 578 -216 l 578 165 q 340 -12 504 -12 q 144 76 221 -12 q 66 314 66 164 q 144 548 66 458 q 340 637 222 637 q 578 460 505 637 l 578 627 m 380 29 q 519 115 460 29 q 579 313 579 200 q 519 511 579 425 q 380 596 458 596 q 212 313 212 596 q 380 29 212 29 z "},"Ģ":{"ha":977,"x_min":66,"x_max":865,"o":"m 865 79 q 528 -11 701 -11 q 194 116 322 -11 q 66 457 66 243 q 103 657 66 567 q 203 806 140 747 q 349 895 267 864 q 524 926 431 926 q 759 861 664 926 q 854 699 854 796 q 831 620 854 647 q 774 593 807 593 q 723 612 745 593 q 701 664 701 632 q 730 722 701 692 q 760 772 760 753 q 695 856 760 820 q 545 892 631 892 q 457 879 498 892 q 374 835 415 867 q 303 755 334 803 q 255 630 273 707 q 237 457 237 554 q 326 143 237 256 q 558 31 414 31 q 708 58 632 31 l 708 340 q 697 368 708 356 q 669 379 686 379 l 589 379 q 572 395 572 379 q 589 410 572 410 l 865 410 l 865 79 m 546 -207 q 497 -188 518 -207 q 476 -138 476 -168 q 498 -87 476 -107 q 550 -66 521 -66 q 608 -90 586 -66 q 631 -160 631 -114 q 608 -256 631 -203 q 557 -345 586 -310 q 510 -380 528 -380 q 500 -374 503 -380 q 503 -361 497 -367 q 587 -187 572 -292 q 546 -207 572 -207 z "},"ģ":{"ha":831,"x_min":66,"x_max":718,"o":"m 367 869 q 416 850 396 869 q 436 802 436 831 q 415 749 436 770 q 363 729 393 729 q 304 753 327 729 q 282 822 282 778 q 305 919 282 865 q 356 1008 328 972 q 403 1043 385 1043 q 412 1037 410 1043 q 410 1023 415 1031 q 325 850 340 956 q 367 869 340 869 m 578 627 l 718 627 l 718 -41 q 620 -306 718 -215 q 353 -396 521 -396 q 148 -334 229 -396 q 66 -183 66 -272 q 91 -117 66 -140 q 147 -93 115 -93 q 194 -110 175 -93 q 214 -160 214 -127 q 190 -213 214 -188 q 167 -260 167 -237 q 216 -329 167 -294 q 345 -363 265 -363 q 516 -290 454 -363 q 578 -94 578 -216 l 578 165 q 340 -12 504 -12 q 144 76 221 -12 q 66 314 66 164 q 144 548 66 458 q 340 637 222 637 q 578 460 505 637 l 578 627 m 380 29 q 519 115 460 29 q 579 313 579 200 q 519 511 579 425 q 380 596 458 596 q 212 313 212 596 q 380 29 212 29 z "},"Ħ":{"ha":994,"x_min":22,"x_max":974,"o":"m 957 705 q 974 690 974 705 q 957 675 974 675 l 871 675 l 871 68 q 882 42 871 52 q 909 32 893 32 l 940 32 q 957 17 957 32 q 940 0 957 0 l 644 0 q 628 17 627 0 q 644 32 628 33 l 675 32 q 703 42 692 32 q 714 66 714 53 l 714 467 l 281 467 l 281 68 q 292 42 281 52 q 319 32 302 32 l 350 32 q 367 17 367 32 q 350 0 367 0 l 54 0 q 37 17 37 0 q 54 32 37 33 l 85 32 q 113 42 102 32 q 123 66 123 53 l 123 675 l 37 675 q 22 690 22 675 q 37 705 22 706 l 123 705 l 123 847 q 113 873 123 863 q 85 884 102 884 l 54 884 q 37 899 37 884 q 54 916 37 916 l 350 916 q 367 899 367 916 q 350 884 367 883 l 319 884 q 292 873 302 884 q 281 848 281 863 l 281 705 l 714 705 l 714 847 q 703 873 714 863 q 675 884 692 884 l 644 884 q 628 899 627 884 q 644 916 628 916 l 940 916 q 957 899 957 916 q 940 884 957 883 l 909 884 q 882 873 892 884 q 871 848 871 863 l 871 705 l 957 705 m 281 498 l 714 498 l 714 675 l 281 675 l 281 498 z "},"ħ":{"ha":834,"x_min":39,"x_max":800,"o":"m 783 32 q 800 17 800 32 q 783 0 800 0 l 504 0 q 489 17 488 0 q 504 32 489 33 l 534 32 q 563 43 551 32 q 574 71 574 54 l 574 421 q 541 541 574 503 q 458 579 509 579 q 322 500 375 579 q 269 309 269 421 l 269 71 q 280 43 269 54 q 309 32 292 32 l 339 32 q 355 17 356 32 q 339 0 355 0 l 60 0 q 45 17 44 0 q 60 32 45 33 l 90 32 q 118 43 107 32 q 129 71 129 54 l 129 755 l 58 755 q 44 761 50 755 q 39 774 39 766 q 58 790 39 791 l 129 790 l 129 942 q 118 970 129 959 q 90 981 107 981 l 60 981 q 45 996 44 981 q 60 1013 45 1013 l 269 1013 l 269 790 l 447 790 q 465 772 465 790 q 447 755 465 755 l 269 755 l 269 456 q 365 587 301 538 q 514 636 429 636 q 660 584 606 636 q 714 437 714 532 l 714 71 q 725 43 714 54 q 753 32 736 32 l 783 32 z "},"Ĩ":{"ha":404,"x_min":-86,"x_max":493,"o":"m 330 979 q 245 996 288 979 q 174 1033 203 1013 q 111 1069 146 1053 q 43 1086 75 1086 q -26 1063 1 1086 q -54 1000 -54 1039 q -71 982 -54 982 q -81 987 -76 982 q -86 1000 -86 993 q -41 1111 -86 1069 q 79 1152 4 1152 q 162 1135 121 1152 q 232 1098 204 1118 q 296 1060 260 1078 q 364 1043 332 1043 q 431 1065 403 1043 q 460 1129 460 1088 q 476 1149 460 1149 q 493 1128 493 1149 q 447 1020 493 1061 q 330 979 401 979 m 350 32 q 367 17 367 32 q 350 0 367 0 l 54 0 q 39 17 39 0 q 54 32 39 33 l 85 32 q 113 42 102 32 q 123 66 123 53 l 123 847 q 113 873 123 863 q 85 884 102 884 l 54 884 q 39 899 39 884 q 54 916 39 916 l 350 916 q 367 899 367 916 q 350 884 367 883 l 321 884 q 292 873 302 884 q 282 848 282 863 l 282 68 q 292 42 282 52 q 319 32 302 32 l 350 32 z "},"ĩ":{"ha":389,"x_min":-96,"x_max":485,"o":"m 321 783 q 236 800 278 783 q 165 838 193 817 q 101 875 138 859 q 35 892 65 892 q -35 868 -7 892 q -62 806 -62 844 q -79 787 -62 787 q -91 792 -86 787 q -96 806 -96 798 q -50 915 -96 873 q 69 957 -4 957 q 153 940 111 957 q 223 902 195 922 q 288 865 252 882 q 355 848 323 848 q 423 870 394 848 q 452 933 452 892 q 468 953 452 953 q 485 933 485 953 q 439 825 485 867 q 321 783 393 783 m 339 32 q 355 17 356 32 q 339 0 355 0 l 60 0 q 45 17 44 0 q 60 32 45 33 l 90 32 q 118 43 107 32 q 129 71 129 54 l 129 555 q 118 584 129 572 q 90 595 107 595 l 60 595 q 45 610 44 595 q 60 627 45 627 l 269 627 l 269 71 q 280 43 269 54 q 309 32 292 32 l 339 32 z "},"Ī":{"ha":404,"x_min":-8,"x_max":418,"o":"m 11 1003 q -3 1008 3 1003 q -8 1019 -8 1013 q 11 1036 -8 1036 l 400 1036 q 418 1019 418 1036 q 400 1003 418 1002 l 11 1003 m 350 32 q 367 17 367 32 q 350 0 367 0 l 54 0 q 39 17 39 0 q 54 32 39 33 l 85 32 q 113 42 102 32 q 123 66 123 53 l 123 847 q 113 873 123 863 q 85 884 102 884 l 54 884 q 39 899 39 884 q 54 916 39 916 l 350 916 q 367 899 367 916 q 350 884 367 883 l 321 884 q 292 873 302 884 q 282 848 282 863 l 282 68 q 292 42 282 52 q 321 32 302 32 l 350 32 z "},"ī":{"ha":389,"x_min":-17,"x_max":408,"o":"m 3 800 q -11 806 -5 800 q -17 818 -17 811 q 3 835 -17 835 l 392 835 q 408 817 409 835 q 392 800 408 800 l 3 800 m 339 32 q 355 17 356 32 q 339 0 355 0 l 60 0 q 45 17 44 0 q 60 32 45 33 l 90 32 q 118 43 107 32 q 129 71 129 54 l 129 555 q 118 584 129 572 q 90 595 107 595 l 60 595 q 45 610 44 595 q 60 627 45 627 l 269 627 l 269 71 q 280 43 269 54 q 309 32 292 32 l 339 32 z "},"Į":{"ha":404,"x_min":37,"x_max":367,"o":"m 353 -267 q 364 -279 363 -267 q 361 -289 364 -283 q 241 -353 326 -353 q 125 -314 168 -353 q 83 -208 83 -275 q 122 -96 83 -151 q 227 0 161 -41 l 54 0 q 37 17 37 0 q 54 32 37 33 l 85 32 q 113 42 102 32 q 123 66 123 53 l 123 847 q 113 873 123 863 q 85 884 102 884 l 54 884 q 39 899 39 884 q 54 916 39 916 l 350 916 q 367 899 367 916 q 350 884 367 883 l 321 884 q 292 873 302 884 q 282 848 282 863 l 282 68 q 292 42 282 52 q 319 32 302 32 l 350 32 q 367 17 367 32 q 350 0 367 0 l 267 0 q 179 -196 179 -69 q 257 -325 179 -325 q 340 -273 310 -325 q 353 -267 346 -267 z "},"į":{"ha":389,"x_min":45,"x_max":357,"o":"m 200 777 q 144 799 167 777 q 121 856 121 822 q 144 912 121 889 q 200 935 167 935 q 256 911 233 935 q 279 856 279 888 q 256 800 279 824 q 200 777 232 777 m 346 -267 q 357 -279 357 -267 q 354 -289 357 -283 q 235 -353 319 -353 q 119 -314 161 -353 q 77 -208 77 -275 q 115 -96 77 -151 q 220 0 154 -41 l 60 0 q 45 17 44 0 q 60 32 45 33 l 90 32 q 118 43 107 32 q 129 71 129 54 l 129 555 q 118 584 129 572 q 90 595 107 595 l 60 595 q 45 610 44 595 q 60 627 45 627 l 269 627 l 269 71 q 280 43 269 54 q 309 32 292 32 l 339 32 q 355 17 356 32 q 339 0 355 0 l 260 0 q 172 -196 172 -69 q 250 -325 172 -325 q 334 -273 303 -325 q 346 -267 339 -267 z "},"İ":{"ha":404,"x_min":39,"x_max":367,"o":"m 126 1050 q 148 1102 126 1080 q 201 1124 170 1124 q 252 1102 231 1124 q 273 1050 273 1080 q 252 999 273 1021 q 201 978 231 978 q 148 999 170 978 q 126 1050 126 1021 m 350 32 q 367 17 367 32 q 350 0 367 0 l 54 0 q 39 17 39 0 q 54 32 39 33 l 85 32 q 113 42 102 32 q 123 66 123 53 l 123 847 q 113 873 123 863 q 85 884 102 884 l 54 884 q 39 899 39 884 q 54 916 39 916 l 350 916 q 367 899 367 916 q 350 884 367 883 l 321 884 q 292 873 302 884 q 282 848 282 863 l 282 68 q 292 42 282 52 q 319 32 302 32 l 350 32 z "},"ı":{"ha":389,"x_min":45,"x_max":355,"o":"m 339 32 q 355 17 356 32 q 339 0 355 0 l 60 0 q 45 17 44 0 q 60 32 45 33 l 90 32 q 118 43 107 32 q 129 71 129 54 l 129 555 q 118 584 129 572 q 90 595 107 595 l 60 595 q 45 610 44 595 q 60 627 45 627 l 269 627 l 269 71 q 280 43 269 54 q 309 32 292 32 l 339 32 z "},"Ĳ":{"ha":808,"x_min":39,"x_max":770,"o":"m 350 32 q 367 17 367 32 q 350 0 367 0 l 54 0 q 39 17 39 0 q 54 32 39 33 l 85 32 q 113 42 102 32 q 123 66 123 53 l 123 847 q 113 873 123 863 q 85 884 102 884 l 54 884 q 39 899 39 884 q 54 916 39 916 l 350 916 q 367 899 367 916 q 350 884 367 883 l 321 884 q 292 873 302 884 q 282 848 282 863 l 282 68 q 292 42 282 52 q 319 32 302 32 l 350 32 m 754 916 q 770 899 770 916 q 754 884 770 883 l 724 884 q 695 872 705 884 q 685 846 685 861 l 685 -139 q 623 -278 685 -228 q 472 -328 561 -328 q 339 -287 395 -328 q 282 -176 282 -245 q 303 -115 282 -136 q 357 -93 325 -93 q 405 -110 386 -93 q 424 -158 424 -127 q 406 -204 424 -179 q 389 -245 389 -229 q 408 -280 389 -267 q 454 -294 427 -294 q 539 -155 539 -294 q 533 -70 539 -126 q 526 28 526 -14 l 526 846 q 516 872 526 861 q 488 884 505 884 l 457 884 q 441 899 441 884 q 457 916 441 916 l 754 916 z "},"ĳ":{"ha":765,"x_min":45,"x_max":661,"o":"m 121 856 q 144 912 121 889 q 200 935 167 935 q 256 911 233 935 q 279 856 279 888 q 256 800 279 824 q 200 777 232 777 q 144 800 167 777 q 121 856 121 823 m 503 856 q 526 912 503 889 q 583 935 550 935 q 638 911 615 935 q 661 856 661 888 q 638 800 661 824 q 583 777 615 777 q 526 800 550 777 q 503 856 503 823 m 339 32 q 355 17 356 32 q 339 0 355 0 l 60 0 q 45 17 44 0 q 60 32 45 33 l 90 32 q 118 43 107 32 q 129 71 129 54 l 129 555 q 118 584 129 572 q 90 595 107 595 l 60 595 q 45 610 44 595 q 60 627 45 627 l 269 627 l 269 71 q 280 43 269 54 q 309 32 292 32 l 339 32 m 441 627 l 652 627 l 652 -193 q 587 -337 652 -288 q 433 -387 522 -387 q 300 -350 357 -387 q 244 -249 244 -313 q 266 -180 244 -204 q 322 -155 288 -155 q 365 -171 347 -155 q 383 -212 383 -186 q 362 -262 383 -239 q 340 -302 340 -285 q 364 -341 340 -325 q 418 -357 387 -357 q 484 -331 456 -357 q 511 -254 511 -306 l 511 555 q 500 584 511 572 q 472 595 489 595 l 441 595 q 427 610 426 595 q 441 627 426 627 z "},"Ķ":{"ha":895,"x_min":39,"x_max":889,"o":"m 350 32 q 367 17 367 32 q 350 0 367 0 l 54 0 q 39 17 39 0 q 54 32 39 33 l 85 32 q 113 42 102 32 q 123 66 123 53 l 123 847 q 113 873 123 863 q 85 884 102 884 l 54 884 q 39 899 39 884 q 54 916 39 916 l 350 916 q 367 899 367 916 q 350 884 367 883 l 321 884 q 292 873 302 884 q 282 848 282 863 l 282 68 q 292 42 282 52 q 319 32 302 32 l 350 32 m 873 32 q 889 16 889 32 q 873 0 889 0 l 555 0 q 541 17 540 0 q 555 32 541 33 l 576 32 q 604 44 599 32 q 597 71 610 56 l 304 450 l 708 847 q 716 871 720 858 q 690 884 711 884 l 635 884 q 619 900 619 884 q 635 916 619 916 l 863 916 q 879 899 880 916 q 863 884 879 883 l 848 884 q 799 876 818 884 q 757 847 779 868 l 436 529 l 794 64 q 857 32 818 32 l 873 32 m 437 -204 q 389 -185 410 -204 q 368 -136 368 -165 q 390 -84 368 -104 q 441 -64 412 -64 q 500 -88 477 -64 q 522 -157 522 -113 q 500 -253 522 -199 q 449 -342 478 -307 q 401 -378 419 -378 q 392 -372 395 -378 q 395 -358 389 -366 q 479 -184 464 -290 q 437 -204 464 -204 z "},"ķ":{"ha":774,"x_min":45,"x_max":770,"o":"m 339 32 q 355 17 356 32 q 339 0 355 0 l 60 0 q 45 17 44 0 q 60 32 45 33 l 90 32 q 118 43 107 32 q 129 71 129 54 l 129 942 q 118 970 129 959 q 90 981 107 981 l 60 981 q 45 996 44 981 q 60 1013 45 1013 l 269 1013 l 269 71 q 280 43 269 54 q 309 32 292 32 l 339 32 m 753 32 q 770 16 770 32 q 753 0 770 0 l 463 0 q 447 17 447 0 q 463 32 447 33 l 489 32 q 511 44 507 32 q 501 71 514 56 l 292 322 l 590 558 q 598 581 604 568 q 572 595 593 595 l 521 595 q 504 611 504 595 q 521 627 504 627 l 746 627 q 761 610 762 627 q 746 595 761 594 l 734 595 q 688 587 707 595 q 642 558 669 579 l 418 382 l 684 64 q 746 32 709 32 l 753 32 m 387 -204 q 339 -185 359 -204 q 318 -136 318 -165 q 340 -84 318 -104 q 392 -64 363 -64 q 450 -88 428 -64 q 472 -157 472 -113 q 450 -253 472 -199 q 399 -342 428 -307 q 351 -378 370 -378 q 342 -372 345 -378 q 345 -358 339 -366 q 429 -184 414 -290 q 387 -204 414 -204 z "},"ĸ":{"ha":777,"x_min":45,"x_max":778,"o":"m 339 32 q 355 17 356 32 q 339 0 355 0 l 60 0 q 45 17 44 0 q 60 32 45 33 l 90 32 q 118 43 107 32 q 129 71 129 54 l 129 555 q 118 584 129 572 q 90 595 107 595 l 60 595 q 45 610 44 595 q 60 627 45 627 l 269 627 l 269 71 q 280 43 269 54 q 309 32 292 32 l 339 32 m 762 32 q 778 16 778 32 q 762 0 778 0 l 479 0 q 464 17 464 0 q 479 32 464 33 l 498 32 q 519 43 515 32 q 511 71 524 54 l 300 319 l 566 558 q 574 582 579 569 q 547 595 570 595 l 507 595 q 490 611 490 595 q 507 627 490 627 l 725 627 q 742 610 742 627 q 725 595 742 594 l 710 595 q 618 558 659 595 l 424 385 l 693 64 q 755 32 720 32 l 762 32 z "},"Ĺ":{"ha":709,"x_min":37,"x_max":696,"o":"m 182 985 q 160 984 170 975 q 163 1006 151 993 l 322 1192 q 385 1206 353 1227 q 401 1157 412 1186 q 385 1137 397 1146 l 182 985 m 681 253 q 696 237 696 253 l 696 0 l 54 0 q 37 17 37 0 q 54 32 37 33 l 85 32 q 113 42 102 32 q 123 66 123 53 l 123 847 q 113 873 123 863 q 85 884 102 884 l 54 884 q 39 899 39 884 q 54 916 39 916 l 350 916 q 367 899 367 916 q 350 884 367 883 l 321 884 q 292 873 302 884 q 282 848 282 863 l 282 68 q 292 42 282 52 q 319 32 302 32 l 494 32 q 620 87 574 32 q 665 215 665 142 l 665 237 q 681 253 665 253 z "},"ĺ":{"ha":389,"x_min":45,"x_max":357,"o":"m 139 1064 q 116 1063 125 1055 q 118 1084 107 1072 l 278 1271 q 340 1284 309 1307 q 357 1236 368 1265 q 340 1217 353 1225 l 139 1064 m 339 32 q 355 17 356 32 q 339 0 355 0 l 60 0 q 45 17 44 0 q 60 32 45 33 l 90 32 q 118 43 107 32 q 129 71 129 54 l 129 942 q 118 970 129 959 q 90 981 107 981 l 60 981 q 45 996 44 981 q 60 1013 45 1013 l 269 1013 l 269 71 q 280 43 269 54 q 309 32 292 32 l 339 32 z "},"Ļ":{"ha":709,"x_min":37,"x_max":696,"o":"m 681 253 q 696 237 696 253 l 696 0 l 54 0 q 37 17 37 0 q 54 32 37 33 l 85 32 q 113 42 102 32 q 123 66 123 53 l 123 847 q 113 873 123 863 q 85 884 102 884 l 54 884 q 39 899 39 884 q 54 916 39 916 l 350 916 q 367 899 367 916 q 350 884 367 883 l 321 884 q 292 873 302 884 q 282 848 282 863 l 282 68 q 292 42 282 52 q 319 32 302 32 l 494 32 q 620 87 574 32 q 665 215 665 142 l 665 237 q 681 253 665 253 m 408 -204 q 360 -185 380 -204 q 340 -136 340 -165 q 362 -84 340 -104 q 412 -64 383 -64 q 471 -88 448 -64 q 493 -157 493 -113 q 471 -253 493 -199 q 420 -342 449 -307 q 372 -378 392 -378 q 362 -372 366 -378 q 366 -358 359 -366 q 450 -184 435 -290 q 408 -204 435 -204 z "},"ļ":{"ha":393,"x_min":45,"x_max":355,"o":"m 339 32 q 355 17 356 32 q 339 0 355 0 l 60 0 q 45 17 44 0 q 60 32 45 33 l 90 32 q 118 43 107 32 q 129 71 129 54 l 129 942 q 118 970 129 959 q 90 981 107 981 l 60 981 q 45 996 44 981 q 60 1013 45 1013 l 269 1013 l 269 71 q 280 43 269 54 q 309 32 292 32 l 339 32 m 197 -204 q 148 -185 168 -204 q 127 -136 127 -165 q 149 -84 127 -104 q 200 -64 171 -64 q 260 -88 237 -64 q 282 -157 282 -113 q 259 -253 282 -199 q 208 -342 236 -307 q 161 -378 179 -378 q 151 -372 155 -378 q 153 -358 147 -366 q 239 -184 223 -290 q 197 -204 224 -204 z "},"Ľ":{"ha":709,"x_min":37,"x_max":701,"o":"m 616 884 q 568 903 589 884 q 547 951 547 922 q 569 1003 547 983 q 621 1023 591 1023 q 679 999 656 1023 q 701 930 701 975 q 679 834 701 888 q 628 745 657 781 q 581 710 599 710 q 571 716 574 710 q 574 729 568 722 q 659 903 643 797 q 616 884 643 884 m 681 253 q 696 237 696 253 l 696 0 l 54 0 q 37 17 37 0 q 54 32 37 33 l 85 32 q 113 42 102 32 q 123 66 123 53 l 123 847 q 113 873 123 863 q 85 884 102 884 l 54 884 q 37 899 37 884 q 54 916 37 916 l 350 916 q 367 899 367 916 q 350 884 367 883 l 319 884 q 292 873 302 884 q 282 848 282 863 l 282 68 q 292 42 282 52 q 319 32 302 32 l 494 32 q 620 87 574 32 q 665 215 665 142 l 665 237 q 681 253 665 253 z "},"ľ":{"ha":487,"x_min":45,"x_max":488,"o":"m 339 32 q 355 17 356 32 q 339 0 355 0 l 60 0 q 45 17 44 0 q 60 32 45 33 l 90 32 q 118 43 107 32 q 129 71 129 54 l 129 942 q 118 970 129 959 q 90 981 107 981 l 60 981 q 45 996 44 981 q 60 1013 45 1013 l 269 1013 l 269 71 q 280 43 269 54 q 309 32 292 32 l 339 32 m 403 869 q 354 889 374 869 q 334 937 334 908 q 355 989 334 969 q 406 1010 376 1010 q 465 985 443 1010 q 488 917 488 961 q 465 820 488 874 q 413 731 441 766 q 367 696 385 696 q 356 702 360 696 q 359 715 353 708 q 444 889 429 783 q 403 869 429 869 z "},"Ŀ":{"ha":709,"x_min":37,"x_max":696,"o":"m 681 253 q 696 237 696 253 l 696 0 l 54 0 q 37 17 37 0 q 54 32 37 33 l 85 32 q 113 42 102 32 q 123 66 123 53 l 123 847 q 113 873 123 863 q 85 884 102 884 l 54 884 q 39 899 39 884 q 54 916 39 916 l 350 916 q 367 899 367 916 q 350 884 367 883 l 321 884 q 292 873 302 884 q 282 848 282 863 l 282 68 q 292 42 282 52 q 319 32 302 32 l 494 32 q 620 87 574 32 q 665 215 665 142 l 665 237 q 681 253 665 253 m 408 440 q 431 496 408 472 q 489 519 454 519 q 544 496 521 519 q 567 440 567 472 q 544 384 567 407 q 489 361 521 361 q 431 384 454 361 q 408 440 408 407 z "},"ŀ":{"ha":407,"x_min":45,"x_max":473,"o":"m 339 32 q 355 17 356 32 q 339 0 355 0 l 60 0 q 45 17 44 0 q 60 32 45 33 l 90 32 q 118 43 107 32 q 129 71 129 54 l 129 942 q 118 970 129 959 q 90 981 107 981 l 60 981 q 45 996 44 981 q 60 1013 45 1013 l 269 1013 l 269 71 q 280 43 269 54 q 309 32 292 32 l 339 32 m 315 511 q 338 567 315 543 q 395 590 361 590 q 451 567 428 590 q 473 511 473 543 q 450 455 473 478 q 395 432 427 432 q 338 455 361 432 q 315 511 315 478 z "},"Ł":{"ha":703,"x_min":22,"x_max":696,"o":"m 681 253 q 696 237 696 253 l 696 0 l 54 0 q 37 17 37 0 q 54 32 37 33 l 85 32 q 113 42 102 32 q 123 66 123 53 l 123 421 l 43 390 q 23 400 27 385 q 32 421 18 415 l 123 453 l 123 847 q 113 873 123 863 q 85 884 102 884 l 54 884 q 39 899 39 884 q 54 916 39 916 l 350 916 q 367 899 367 916 q 350 884 367 883 l 321 884 q 292 873 302 884 q 282 848 282 863 l 282 511 l 452 572 q 472 564 467 579 q 461 543 476 548 l 282 478 l 282 68 q 292 42 282 52 q 319 32 302 32 l 494 32 q 620 87 574 32 q 665 215 665 142 l 665 237 q 681 253 665 253 z "},"ł":{"ha":401,"x_min":37,"x_max":374,"o":"m 351 597 q 368 594 361 600 q 374 580 375 589 q 363 567 372 571 l 269 536 l 269 71 q 280 43 269 54 q 309 32 292 32 l 339 32 q 355 17 356 32 q 339 0 355 0 l 60 0 q 45 17 44 0 q 60 32 45 33 l 90 32 q 118 43 107 32 q 129 71 129 54 l 129 488 l 57 464 q 37 473 41 458 q 47 493 32 488 l 129 521 l 129 942 q 118 970 129 959 q 90 981 107 981 l 60 981 q 45 996 44 981 q 60 1013 45 1013 l 269 1013 l 269 570 l 351 597 z "},"Ń":{"ha":894,"x_min":37,"x_max":857,"o":"m 393 985 q 370 984 380 975 q 372 1006 361 993 l 532 1192 q 595 1206 562 1227 q 611 1157 623 1186 q 595 1137 607 1146 l 393 985 m 840 916 q 857 900 857 916 q 840 884 857 883 l 810 884 q 782 872 793 884 q 771 846 771 861 l 771 0 l 696 0 l 160 755 l 160 69 q 171 43 160 54 q 200 32 182 32 l 229 32 q 245 16 246 32 q 229 0 245 0 l 54 0 q 37 16 37 0 q 54 32 37 33 l 85 32 q 113 43 102 32 q 123 69 123 54 l 123 846 q 113 872 123 861 q 85 884 102 884 l 54 884 q 37 900 37 884 q 54 916 37 916 l 229 916 l 734 203 l 734 846 q 724 872 734 861 q 694 884 713 884 l 665 884 q 648 900 648 884 q 665 916 648 916 l 840 916 z "},"ń":{"ha":833,"x_min":45,"x_max":800,"o":"m 404 785 q 381 784 391 775 q 383 806 372 793 l 543 991 q 607 1006 574 1027 q 623 957 633 986 q 606 937 618 946 l 404 785 m 783 32 q 800 17 800 32 q 783 0 800 0 l 504 0 q 489 17 488 0 q 504 32 489 33 l 534 32 q 563 43 551 32 q 574 71 574 54 l 574 421 q 541 541 574 503 q 458 579 509 579 q 322 500 375 579 q 269 309 269 421 l 269 71 q 280 43 269 54 q 309 32 292 32 l 339 32 q 355 17 356 32 q 339 0 355 0 l 60 0 q 45 17 44 0 q 60 32 45 33 l 90 32 q 118 43 107 32 q 129 71 129 54 l 129 555 q 118 584 129 572 q 90 595 107 595 l 60 595 q 45 610 44 595 q 60 627 45 627 l 269 627 l 269 456 q 365 587 301 538 q 514 636 429 636 q 660 584 606 636 q 714 437 714 532 l 714 71 q 725 43 714 54 q 753 32 736 32 l 783 32 z "},"Ņ":{"ha":894,"x_min":37,"x_max":857,"o":"m 840 916 q 857 900 857 916 q 840 884 857 883 l 810 884 q 782 872 793 884 q 771 846 771 861 l 771 0 l 696 0 l 160 755 l 160 69 q 171 43 160 54 q 200 32 182 32 l 229 32 q 245 16 246 32 q 229 0 245 0 l 54 0 q 37 16 37 0 q 54 32 37 33 l 85 32 q 113 43 102 32 q 123 69 123 54 l 123 846 q 113 872 123 861 q 85 884 102 884 l 54 884 q 37 900 37 884 q 54 916 37 916 l 229 916 l 734 203 l 734 846 q 724 872 734 861 q 694 884 713 884 l 665 884 q 648 900 648 884 q 665 916 648 916 l 840 916 m 441 -204 q 392 -185 412 -204 q 372 -136 372 -165 q 394 -84 372 -104 q 444 -64 415 -64 q 504 -88 481 -64 q 526 -157 526 -113 q 504 -253 526 -199 q 452 -342 481 -307 q 406 -378 424 -378 q 395 -372 399 -378 q 399 -358 392 -366 q 484 -184 468 -290 q 441 -204 468 -204 z "},"ņ":{"ha":833,"x_min":45,"x_max":800,"o":"m 783 32 q 800 17 800 32 q 783 0 800 0 l 504 0 q 489 17 488 0 q 504 32 489 33 l 534 32 q 563 43 551 32 q 574 71 574 54 l 574 421 q 541 541 574 503 q 458 579 509 579 q 322 500 375 579 q 269 309 269 421 l 269 71 q 280 43 269 54 q 309 32 292 32 l 339 32 q 355 17 356 32 q 339 0 355 0 l 60 0 q 45 17 44 0 q 60 32 45 33 l 90 32 q 118 43 107 32 q 129 71 129 54 l 129 555 q 118 584 129 572 q 90 595 107 595 l 60 595 q 45 610 44 595 q 60 627 45 627 l 269 627 l 269 456 q 365 587 301 538 q 514 636 429 636 q 660 584 606 636 q 714 437 714 532 l 714 71 q 725 43 714 54 q 753 32 736 32 l 783 32 m 422 -204 q 373 -185 393 -204 q 353 -136 353 -165 q 374 -84 353 -104 q 425 -64 396 -64 q 483 -88 461 -64 q 505 -157 505 -113 q 483 -253 505 -199 q 433 -342 461 -307 q 386 -378 404 -378 q 375 -372 378 -378 q 378 -358 372 -366 q 463 -184 447 -290 q 422 -204 448 -204 z "},"Ň":{"ha":894,"x_min":37,"x_max":857,"o":"m 600 1186 l 494 1006 q 444 973 475 972 q 393 1006 412 974 l 288 1186 q 288 1204 282 1196 q 303 1213 293 1213 q 322 1204 314 1213 l 444 1061 l 566 1204 q 592 1211 576 1218 q 600 1186 608 1204 m 840 916 q 857 900 857 916 q 840 884 857 883 l 810 884 q 782 872 793 884 q 771 846 771 861 l 771 0 l 696 0 l 160 755 l 160 69 q 171 43 160 54 q 200 32 182 32 l 229 32 q 245 16 246 32 q 229 0 245 0 l 54 0 q 37 16 37 0 q 54 32 37 33 l 85 32 q 113 43 102 32 q 123 69 123 54 l 123 846 q 113 872 123 861 q 85 884 102 884 l 54 884 q 37 900 37 884 q 54 916 37 916 l 229 916 l 734 203 l 734 846 q 724 872 734 861 q 694 884 713 884 l 665 884 q 648 900 648 884 q 665 916 648 916 l 840 916 z "},"ň":{"ha":833,"x_min":45,"x_max":800,"o":"m 599 987 l 493 808 q 442 775 473 775 q 392 808 411 775 l 286 987 q 286 1007 281 998 q 302 1015 292 1015 q 321 1007 313 1015 l 443 864 l 564 1007 q 591 1013 574 1021 q 599 987 607 1006 m 783 32 q 800 17 800 32 q 783 0 800 0 l 504 0 q 489 17 488 0 q 504 32 489 33 l 534 32 q 563 43 551 32 q 574 71 574 54 l 574 421 q 541 541 574 503 q 458 579 509 579 q 322 500 375 579 q 269 309 269 421 l 269 71 q 280 43 269 54 q 309 32 292 32 l 339 32 q 355 17 356 32 q 339 0 355 0 l 60 0 q 45 17 44 0 q 60 32 45 33 l 90 32 q 118 43 107 32 q 129 71 129 54 l 129 555 q 118 584 129 572 q 90 595 107 595 l 60 595 q 45 610 44 595 q 60 627 45 627 l 269 627 l 269 456 q 365 587 301 538 q 514 636 429 636 q 660 584 606 636 q 714 437 714 532 l 714 71 q 725 43 714 54 q 753 32 736 32 l 783 32 z "},"ŉ":{"ha":833,"x_min":-64,"x_max":800,"o":"m 5 857 q -44 877 -24 857 q -64 925 -64 896 q -42 977 -64 957 q 9 997 -21 997 q 68 973 45 997 q 90 904 90 949 q 67 808 90 861 q 16 719 45 754 q -31 684 -12 684 q -40 690 -37 684 q -37 703 -43 696 q 47 876 32 770 q 5 857 32 857 m 783 32 q 800 17 800 32 q 783 0 800 0 l 504 0 q 489 17 488 0 q 504 32 489 33 l 534 32 q 563 43 551 32 q 574 71 574 54 l 574 421 q 541 541 574 503 q 458 579 509 579 q 322 500 375 579 q 269 309 269 421 l 269 71 q 280 43 269 54 q 309 32 292 32 l 339 32 q 355 17 356 32 q 339 0 355 0 l 60 0 q 43 17 43 0 q 60 32 43 33 l 90 32 q 118 43 107 32 q 129 71 129 54 l 129 555 q 118 584 129 572 q 90 595 107 595 l 60 595 q 43 610 43 595 q 60 627 43 627 l 269 627 l 269 456 q 365 587 301 538 q 514 636 429 636 q 660 584 606 636 q 714 437 714 532 l 714 71 q 725 43 714 54 q 753 32 736 32 l 783 32 z "},"Ŋ":{"ha":894,"x_min":37,"x_max":857,"o":"m 840 916 q 857 900 857 916 q 840 884 857 883 l 810 884 q 782 872 793 884 q 771 846 771 861 l 771 -161 q 725 -286 771 -243 q 615 -328 679 -328 q 497 -285 541 -328 q 453 -183 453 -243 q 473 -118 453 -143 q 525 -93 493 -93 q 571 -110 551 -93 q 591 -158 591 -127 q 573 -202 591 -179 q 555 -243 555 -225 q 576 -280 555 -265 q 624 -294 596 -294 q 701 -260 667 -294 q 734 -161 734 -227 l 734 0 l 696 0 l 160 755 l 160 69 q 171 43 160 54 q 200 32 182 32 l 229 32 q 245 16 246 32 q 229 0 245 0 l 54 0 q 37 16 37 0 q 54 32 37 33 l 85 32 q 113 43 102 32 q 123 69 123 54 l 123 846 q 113 872 123 861 q 85 884 102 884 l 54 884 q 37 900 37 884 q 54 916 37 916 l 229 916 l 734 203 l 734 846 q 724 872 734 861 q 694 884 713 884 l 665 884 q 648 900 648 884 q 665 916 648 916 l 840 916 z "},"ŋ":{"ha":822,"x_min":45,"x_max":714,"o":"m 514 636 q 660 584 606 636 q 714 437 714 532 l 714 -197 q 649 -342 714 -292 q 496 -392 585 -392 q 363 -354 419 -392 q 307 -253 307 -317 q 329 -184 307 -208 q 385 -160 350 -160 q 428 -175 410 -160 q 446 -216 446 -191 q 424 -265 446 -241 q 403 -307 403 -289 q 426 -345 403 -330 q 481 -359 449 -359 q 546 -335 518 -359 q 574 -258 574 -310 l 574 421 q 541 541 574 503 q 458 579 509 579 q 322 500 375 579 q 269 309 269 421 l 269 71 q 280 43 269 54 q 309 32 292 32 l 339 32 q 355 17 356 32 q 339 0 355 0 l 60 0 q 45 17 44 0 q 60 32 45 33 l 90 32 q 118 43 107 32 q 129 71 129 54 l 129 555 q 118 584 129 572 q 90 595 107 595 l 60 595 q 45 610 44 595 q 60 627 45 627 l 269 627 l 269 456 q 365 587 301 538 q 514 636 429 636 z "},"Ō":{"ha":1019,"x_min":66,"x_max":953,"o":"m 317 1003 q 303 1008 309 1003 q 297 1019 297 1013 q 317 1036 297 1036 l 705 1036 q 724 1019 724 1036 q 705 1003 724 1002 l 317 1003 m 510 926 q 833 795 713 926 q 953 461 953 664 q 900 221 953 328 q 746 52 847 114 q 510 -11 644 -11 q 274 52 375 -11 q 119 221 172 114 q 66 461 66 328 q 187 795 66 664 q 510 926 307 926 m 382 56 q 409 39 382 56 q 510 21 436 21 q 638 56 583 21 q 724 154 693 92 q 768 293 754 216 q 782 461 782 370 q 768 628 782 553 q 723 764 754 703 q 637 859 692 825 q 510 893 583 893 q 382 859 436 893 q 297 764 328 825 q 252 628 267 703 q 237 461 237 553 q 252 293 237 370 q 297 154 267 216 q 382 56 328 92 z "},"ō":{"ha":766,"x_min":61,"x_max":705,"o":"m 191 800 q 177 806 182 800 q 171 818 171 811 q 191 835 171 835 l 579 835 q 597 817 597 835 q 579 800 597 800 l 191 800 m 383 -11 q 150 77 239 -11 q 61 315 61 164 q 149 547 61 457 q 383 637 236 637 q 616 553 528 637 q 705 315 705 469 q 618 76 705 163 q 383 -11 530 -11 m 382 20 q 513 96 465 20 q 561 314 561 172 q 513 532 561 457 q 383 607 465 607 q 254 532 302 607 q 205 314 205 457 q 252 100 205 180 q 382 20 298 20 z "},"Ő":{"ha":1019,"x_min":66,"x_max":953,"o":"m 376 983 q 354 983 363 974 q 355 1004 346 991 l 517 1190 q 579 1204 547 1226 q 595 1156 607 1185 q 579 1136 591 1145 l 376 983 m 604 983 q 582 983 591 974 q 583 1004 574 991 l 745 1190 q 807 1204 775 1226 q 822 1156 835 1185 q 807 1136 818 1145 l 604 983 m 510 926 q 833 795 713 926 q 953 461 953 664 q 900 221 953 328 q 746 52 847 114 q 510 -11 644 -11 q 274 52 375 -11 q 119 221 172 114 q 66 461 66 328 q 187 795 66 664 q 510 926 307 926 m 382 57 q 409 40 382 57 q 510 22 436 22 q 637 57 583 22 q 723 154 692 92 q 768 293 754 216 q 782 461 782 370 q 768 628 782 553 q 723 764 754 703 q 637 859 692 825 q 510 893 583 893 q 382 859 436 893 q 297 764 328 825 q 252 628 267 703 q 237 461 237 553 q 252 293 237 370 q 297 154 267 216 q 382 57 328 92 z "},"ő":{"ha":766,"x_min":61,"x_max":705,"o":"m 193 785 q 172 784 181 775 q 174 806 163 793 l 334 991 q 396 1006 364 1027 q 412 957 424 986 q 396 937 407 946 l 193 785 m 421 785 q 399 784 409 775 q 401 806 390 793 l 561 991 q 624 1006 591 1027 q 640 957 652 986 q 624 937 635 946 l 421 785 m 383 -11 q 150 77 239 -11 q 61 315 61 164 q 149 547 61 457 q 383 637 236 637 q 616 553 528 637 q 705 315 705 469 q 618 76 705 163 q 383 -11 530 -11 m 382 20 q 513 96 465 20 q 561 314 561 172 q 513 532 561 457 q 383 607 465 607 q 254 532 302 607 q 205 314 205 457 q 252 100 205 180 q 382 20 298 20 z "},"Œ":{"ha":1458,"x_min":66,"x_max":1350,"o":"m 1329 660 q 1314 671 1314 660 l 1314 711 q 1269 835 1314 787 q 1143 884 1225 884 l 937 884 q 909 872 920 884 q 899 846 899 861 l 899 500 l 987 500 q 1094 527 1065 500 q 1122 614 1122 554 l 1122 624 q 1126 635 1122 631 q 1138 639 1131 639 q 1149 635 1145 639 q 1154 624 1154 631 l 1154 343 q 1149 333 1154 338 q 1137 328 1145 328 q 1122 346 1122 328 l 1122 355 q 1094 440 1122 414 q 987 467 1065 467 l 899 467 l 899 69 q 910 43 899 54 q 937 32 921 32 l 1147 32 q 1273 87 1227 32 q 1318 215 1318 142 l 1318 237 q 1333 253 1318 253 q 1350 237 1350 253 l 1350 0 l 742 0 l 742 104 q 473 -11 646 -11 q 179 123 292 -11 q 66 461 66 257 q 179 794 66 663 q 473 926 292 926 q 742 817 643 926 l 742 916 l 1346 916 l 1346 671 q 1329 660 1346 660 m 490 21 q 612 56 561 21 q 690 156 663 92 q 729 294 717 220 q 742 461 742 368 q 490 893 742 893 q 237 461 237 893 q 490 21 237 21 z "},"œ":{"ha":1240,"x_min":61,"x_max":1174,"o":"m 875 637 q 1095 558 1015 637 q 1174 339 1174 478 q 1166 320 1174 326 q 1141 314 1158 314 l 703 314 q 755 110 703 189 q 914 31 808 31 q 1053 77 998 31 q 1132 186 1108 123 q 1147 200 1137 199 q 1161 183 1163 200 q 1148 148 1158 170 q 1117 98 1139 126 q 1067 46 1096 69 q 992 6 1038 22 q 893 -11 946 -11 q 743 22 811 -11 q 633 118 675 56 q 383 -11 551 -11 q 150 77 239 -11 q 61 315 61 164 q 149 547 61 457 q 383 637 236 637 q 528 605 464 637 q 631 513 591 572 q 875 637 711 637 m 1032 343 q 988 543 1029 477 q 871 608 946 608 q 753 538 799 608 q 704 343 708 468 l 1032 343 m 382 20 q 513 96 465 20 q 561 314 561 172 q 513 532 561 457 q 383 607 465 607 q 255 532 302 607 q 207 314 207 457 q 253 100 207 180 q 382 20 298 20 z "},"Ŕ":{"ha":859,"x_min":37,"x_max":864,"o":"m 336 978 q 314 977 323 968 q 315 999 304 986 l 475 1185 q 539 1197 505 1219 q 554 1150 566 1179 q 538 1129 550 1139 l 336 978 m 851 61 l 850 61 q 864 49 863 61 q 826 9 864 29 q 741 -11 789 -11 q 648 8 685 -11 q 596 58 611 26 q 570 129 581 89 q 556 210 559 168 q 540 292 553 252 q 508 362 528 332 q 443 413 488 393 q 332 432 399 432 l 281 432 l 281 68 q 292 42 281 52 q 319 32 302 32 l 350 32 q 367 17 367 32 q 350 0 367 0 l 54 0 q 37 17 37 0 q 54 32 37 33 l 85 32 q 113 42 102 32 q 123 66 123 53 l 123 847 q 113 873 123 863 q 85 884 102 884 l 54 884 q 37 899 37 884 q 54 916 37 916 l 410 916 q 649 858 564 916 q 734 690 734 800 q 665 533 734 596 q 471 452 596 471 q 591 411 543 441 q 663 345 640 382 q 700 264 686 307 q 716 181 713 221 q 724 107 720 140 q 743 54 729 74 q 783 33 757 33 q 826 47 807 33 q 851 61 846 61 m 281 464 l 361 464 q 460 483 418 464 q 525 536 503 503 q 558 607 547 570 q 570 686 570 644 q 519 831 570 778 q 358 884 468 884 l 319 884 q 292 873 302 884 q 281 848 281 863 l 281 464 z "},"ŕ":{"ha":640,"x_min":45,"x_max":619,"o":"m 311 785 q 289 784 298 775 q 290 806 279 793 l 450 991 q 513 1006 481 1027 q 529 957 541 986 q 513 937 525 946 l 311 785 m 475 636 q 580 594 541 636 q 619 492 619 553 q 594 412 619 446 q 525 378 570 378 q 474 397 494 378 q 454 447 454 416 q 480 504 454 475 q 505 550 505 533 q 489 580 505 568 q 446 591 472 591 q 320 502 370 591 q 269 286 269 412 l 269 71 q 280 43 269 54 q 309 32 292 32 l 382 32 q 399 16 399 32 q 382 0 399 0 l 60 0 q 45 17 44 0 q 60 32 45 33 l 90 32 q 118 43 107 32 q 129 71 129 54 l 129 555 q 118 584 129 572 q 90 595 107 595 l 60 595 q 45 610 44 595 q 60 627 45 627 l 269 627 l 269 447 q 353 589 297 541 q 475 636 408 636 z "},"Ŗ":{"ha":859,"x_min":37,"x_max":864,"o":"m 851 61 l 850 61 q 864 49 863 61 q 826 9 864 29 q 741 -11 789 -11 q 648 8 685 -11 q 596 58 611 26 q 570 129 581 89 q 556 210 559 168 q 540 292 553 252 q 508 362 528 332 q 443 413 488 393 q 332 432 399 432 l 281 432 l 281 68 q 292 42 281 52 q 319 32 302 32 l 350 32 q 367 17 367 32 q 350 0 367 0 l 54 0 q 37 17 37 0 q 54 32 37 33 l 85 32 q 113 42 102 32 q 123 66 123 53 l 123 847 q 113 873 123 863 q 85 884 102 884 l 54 884 q 37 899 37 884 q 54 916 37 916 l 410 916 q 649 858 564 916 q 734 690 734 800 q 665 533 734 596 q 471 452 596 471 q 591 411 543 441 q 663 345 640 382 q 700 264 686 307 q 716 181 713 221 q 724 107 720 140 q 743 54 729 74 q 783 33 757 33 q 826 47 807 33 q 851 61 846 61 m 281 464 l 361 464 q 460 483 418 464 q 525 536 503 503 q 558 606 547 570 q 570 686 570 643 q 519 831 570 778 q 358 884 468 884 l 319 884 q 292 873 302 884 q 281 848 281 863 l 281 464 m 464 -204 q 416 -185 436 -204 q 396 -136 396 -165 q 417 -84 396 -104 q 468 -64 439 -64 q 526 -88 504 -64 q 549 -157 549 -113 q 526 -253 549 -199 q 475 -342 504 -307 q 428 -378 446 -378 q 418 -372 421 -378 q 421 -358 415 -366 q 505 -184 490 -290 q 464 -204 490 -204 z "},"ŗ":{"ha":640,"x_min":45,"x_max":619,"o":"m 475 636 q 580 594 541 636 q 619 492 619 553 q 594 412 619 446 q 525 378 570 378 q 474 397 494 378 q 454 447 454 416 q 480 504 454 475 q 505 550 505 533 q 489 580 505 568 q 446 591 472 591 q 320 502 370 591 q 269 286 269 412 l 269 71 q 280 43 269 54 q 309 32 292 32 l 382 32 q 399 16 399 32 q 382 0 399 0 l 60 0 q 45 17 44 0 q 60 32 45 33 l 90 32 q 118 43 107 32 q 129 71 129 54 l 129 555 q 118 584 129 572 q 90 595 107 595 l 60 595 q 45 610 44 595 q 60 627 45 627 l 269 627 l 269 447 q 353 589 297 541 q 475 636 408 636 m 210 -204 q 161 -185 182 -204 q 140 -136 140 -165 q 162 -84 140 -104 q 214 -64 184 -64 q 272 -88 250 -64 q 294 -157 294 -113 q 272 -253 294 -199 q 221 -342 250 -307 q 174 -378 192 -378 q 164 -372 167 -378 q 167 -358 161 -366 q 252 -184 236 -290 q 210 -204 236 -204 z "},"Ř":{"ha":859,"x_min":37,"x_max":864,"o":"m 543 1178 l 437 997 q 387 965 419 965 q 336 997 355 965 l 232 1178 q 231 1197 225 1189 q 247 1206 236 1206 q 265 1196 257 1206 l 387 1054 l 509 1196 q 535 1204 519 1211 q 543 1178 551 1196 m 851 61 l 850 61 q 864 49 863 61 q 826 9 864 29 q 741 -11 789 -11 q 648 8 685 -11 q 596 58 611 26 q 570 129 581 89 q 556 210 559 168 q 540 292 553 252 q 508 362 528 332 q 443 413 488 393 q 332 432 399 432 l 281 432 l 281 68 q 292 42 281 52 q 319 32 302 32 l 350 32 q 367 17 367 32 q 350 0 367 0 l 54 0 q 37 17 37 0 q 54 32 37 33 l 85 32 q 113 42 102 32 q 123 66 123 53 l 123 847 q 113 873 123 863 q 85 884 102 884 l 54 884 q 37 899 37 884 q 54 916 37 916 l 410 916 q 649 858 564 916 q 734 690 734 800 q 665 533 734 596 q 471 452 596 471 q 591 411 543 441 q 663 345 640 382 q 700 264 686 307 q 716 181 713 221 q 724 107 720 140 q 743 54 729 74 q 783 33 757 33 q 826 47 807 33 q 851 61 846 61 m 281 464 l 361 464 q 460 483 418 464 q 525 536 503 503 q 558 607 547 570 q 570 686 570 644 q 519 831 570 778 q 358 884 468 884 l 319 884 q 292 873 302 884 q 281 848 281 863 l 281 464 z "},"ř":{"ha":640,"x_min":45,"x_max":619,"o":"m 505 987 l 400 808 q 349 775 380 775 q 298 808 317 775 l 193 987 q 193 1007 188 998 q 209 1015 199 1015 q 228 1007 218 1015 l 350 864 l 471 1007 q 497 1013 481 1021 q 505 987 513 1006 m 475 636 q 580 594 541 636 q 619 492 619 553 q 594 412 619 446 q 525 378 570 378 q 474 397 494 378 q 454 447 454 416 q 480 504 454 475 q 505 550 505 533 q 489 580 505 568 q 446 591 472 591 q 320 502 370 591 q 269 286 269 412 l 269 71 q 280 43 269 54 q 309 32 292 32 l 382 32 q 399 16 399 32 q 382 0 399 0 l 60 0 q 45 17 44 0 q 60 32 45 33 l 90 32 q 118 43 107 32 q 129 71 129 54 l 129 555 q 118 584 129 572 q 90 595 107 595 l 60 595 q 45 610 44 595 q 60 627 45 627 l 269 627 l 269 447 q 353 589 297 541 q 475 636 408 636 z "},"Ś":{"ha":783,"x_min":61,"x_max":715,"o":"m 334 985 q 311 984 320 975 q 313 1006 301 993 l 473 1192 q 536 1206 504 1227 q 551 1157 563 1186 q 536 1137 547 1146 l 334 985 m 363 -11 q 148 52 235 -11 q 61 201 61 114 q 83 267 61 243 q 135 290 104 290 q 181 274 161 290 q 201 227 201 257 q 177 174 201 201 q 153 131 153 146 q 216 54 153 86 q 347 22 279 22 q 512 72 446 22 q 579 210 579 121 q 552 293 579 258 q 481 350 525 328 q 384 392 437 372 q 278 433 330 411 q 181 486 225 456 q 110 565 138 515 q 82 679 82 614 q 169 859 82 791 q 400 926 256 926 q 608 868 521 926 q 696 726 696 810 q 674 660 696 685 q 623 635 653 635 q 576 652 596 635 q 555 700 555 669 q 580 752 555 726 q 604 793 604 778 q 541 864 604 836 q 410 893 478 893 q 332 885 368 893 q 264 858 296 876 q 215 805 233 839 q 197 725 197 771 q 226 649 197 682 q 300 594 254 615 q 401 553 346 572 q 512 509 457 533 q 613 454 567 485 q 687 372 659 422 q 715 253 715 321 q 693 158 715 204 q 628 74 671 113 q 517 12 586 35 q 363 -11 449 -11 z "},"ś":{"ha":690,"x_min":61,"x_max":629,"o":"m 323 785 q 301 784 310 775 q 302 806 292 793 l 463 991 q 525 1006 493 1027 q 542 957 553 986 q 525 937 538 946 l 323 785 m 368 607 q 395 521 368 562 q 460 445 422 479 q 537 374 498 410 q 602 293 575 339 q 629 196 629 248 q 544 45 629 100 q 335 -11 458 -11 q 140 43 220 -11 q 61 191 61 97 q 80 248 61 227 q 123 272 98 269 l 302 587 q 347 676 315 626 q 378 704 366 704 q 390 700 386 704 q 393 689 395 696 q 386 674 392 685 q 378 658 380 663 q 374 644 376 653 q 370 626 371 635 q 368 607 368 616 m 318 21 q 452 60 407 21 q 497 163 497 98 q 476 229 497 196 q 424 290 454 261 q 362 350 393 319 q 310 420 332 380 q 288 503 289 460 l 155 265 q 191 214 190 254 q 165 164 191 191 q 139 119 139 138 q 193 50 139 79 q 318 21 246 21 z "},"Ş":{"ha":783,"x_min":61,"x_max":715,"o":"m 715 253 q 694 160 715 205 q 632 77 672 115 q 525 15 591 39 q 376 -11 458 -9 l 363 -86 q 470 -123 433 -93 q 507 -203 507 -153 q 459 -296 507 -261 q 346 -332 411 -332 q 245 -306 288 -332 q 222 -273 222 -292 q 239 -260 222 -260 q 270 -275 241 -260 q 330 -290 298 -290 q 393 -267 368 -290 q 418 -205 418 -243 q 392 -144 418 -171 q 319 -114 367 -117 l 340 -11 q 141 56 221 -5 q 61 201 61 118 q 83 267 61 243 q 135 290 104 290 q 181 274 161 290 q 201 227 201 257 q 177 174 201 201 q 153 131 153 146 q 216 54 153 86 q 347 22 279 22 q 512 72 446 22 q 579 210 579 121 q 552 293 579 258 q 481 350 525 328 q 384 392 437 372 q 278 433 330 411 q 181 486 225 456 q 110 565 138 515 q 82 679 82 614 q 169 859 82 791 q 400 926 256 926 q 608 868 521 926 q 696 726 696 810 q 674 660 696 685 q 623 635 653 635 q 576 652 596 635 q 555 700 555 669 q 580 752 555 726 q 604 793 604 778 q 541 864 604 836 q 410 893 478 893 q 332 885 368 893 q 264 858 296 876 q 215 805 233 839 q 197 725 197 771 q 226 649 197 682 q 300 594 254 615 q 401 553 346 572 q 512 509 457 533 q 613 454 567 485 q 687 372 659 422 q 715 253 715 321 z "},"ş":{"ha":690,"x_min":61,"x_max":629,"o":"m 629 196 q 549 48 629 103 q 350 -11 469 -7 l 336 -83 q 444 -121 407 -90 q 481 -200 481 -151 q 433 -294 481 -258 q 319 -329 385 -329 q 220 -304 261 -329 q 196 -272 196 -289 q 212 -257 196 -256 q 243 -272 215 -257 q 304 -288 272 -288 q 367 -264 342 -288 q 392 -204 392 -240 q 366 -142 392 -168 q 293 -113 340 -115 l 314 -11 q 133 48 205 -5 q 61 191 61 102 q 80 248 61 227 q 123 272 98 269 l 302 587 q 347 676 315 626 q 378 704 366 704 q 390 700 386 704 q 393 689 395 696 q 386 674 392 685 q 378 658 380 663 q 374 644 376 653 q 370 626 371 635 q 368 606 368 616 q 395 521 368 563 q 460 445 422 479 q 537 374 498 410 q 602 293 575 339 q 629 196 629 248 m 139 119 q 192 50 139 79 q 318 21 245 21 q 452 60 407 21 q 497 163 497 98 q 476 229 497 196 q 424 290 454 261 q 362 350 393 319 q 310 420 332 380 q 288 503 289 460 l 155 265 q 191 214 190 254 q 165 164 191 191 q 139 119 139 138 z "},"Š":{"ha":783,"x_min":61,"x_max":715,"o":"m 541 1186 l 436 1006 q 385 973 416 972 q 334 1006 353 974 l 229 1186 q 228 1204 222 1196 q 244 1213 233 1213 q 262 1204 254 1213 l 385 1061 l 507 1204 q 533 1211 518 1218 q 541 1186 549 1204 m 363 -11 q 148 52 235 -11 q 61 201 61 114 q 83 267 61 243 q 135 290 104 290 q 181 274 161 290 q 201 227 201 257 q 177 174 201 201 q 153 131 153 146 q 216 54 153 86 q 347 22 279 22 q 512 72 446 22 q 579 210 579 121 q 552 293 579 258 q 481 350 525 328 q 384 392 437 372 q 278 433 330 411 q 181 486 225 456 q 110 565 138 515 q 82 679 82 614 q 169 859 82 791 q 400 926 256 926 q 608 868 521 926 q 696 726 696 810 q 674 660 696 685 q 623 635 653 635 q 576 652 596 635 q 555 700 555 669 q 580 752 555 726 q 604 793 604 778 q 541 864 604 836 q 410 893 478 893 q 332 885 368 893 q 264 858 296 876 q 215 805 233 839 q 197 725 197 771 q 226 649 197 682 q 300 594 254 615 q 401 553 346 572 q 512 509 457 533 q 613 454 567 485 q 687 372 659 422 q 715 253 715 321 q 693 158 715 204 q 628 74 671 113 q 517 12 586 35 q 363 -11 449 -11 z "},"š":{"ha":690,"x_min":61,"x_max":629,"o":"m 518 987 l 412 808 q 361 775 393 775 q 311 808 329 775 l 205 987 q 205 1007 200 998 q 221 1015 211 1015 q 240 1007 231 1015 l 363 864 l 484 1007 q 510 1013 494 1021 q 518 987 526 1006 m 368 606 q 395 521 368 563 q 460 445 422 479 q 537 374 498 410 q 602 293 575 339 q 629 196 629 248 q 544 45 629 100 q 335 -11 458 -11 q 140 43 220 -11 q 61 191 61 97 q 80 248 61 227 q 123 272 98 269 l 302 587 q 347 676 315 626 q 378 704 366 704 q 390 700 386 704 q 393 689 395 696 q 386 674 392 685 q 378 658 380 663 q 374 644 376 653 q 370 626 371 635 q 368 606 368 616 m 318 21 q 452 60 407 21 q 497 163 497 98 q 476 229 497 196 q 424 290 454 261 q 362 350 393 319 q 310 420 332 380 q 288 503 289 460 l 155 265 q 191 214 190 254 q 165 164 191 191 q 139 119 139 138 q 193 50 139 79 q 318 21 246 21 z "},"Ţ":{"ha":798,"x_min":25,"x_max":774,"o":"m 25 916 l 774 916 l 774 671 q 757 656 774 655 q 742 671 741 656 l 742 711 q 697 835 742 787 q 571 884 653 884 l 517 884 q 489 873 500 884 q 478 848 478 863 l 478 68 q 489 42 478 52 q 517 32 500 32 l 547 32 q 564 17 564 32 q 547 0 564 0 l 421 0 l 404 -83 q 512 -121 475 -90 q 550 -200 550 -151 q 502 -294 550 -258 q 387 -329 453 -329 q 289 -304 329 -329 q 265 -272 265 -289 q 281 -257 265 -256 q 313 -272 285 -257 q 372 -288 340 -288 q 435 -264 410 -288 q 460 -204 460 -240 q 435 -142 460 -168 q 361 -113 410 -115 l 385 0 l 252 0 q 235 17 235 0 q 252 32 235 33 l 282 32 q 310 42 299 32 q 321 66 321 53 l 321 847 q 310 873 321 863 q 282 884 298 884 l 241 884 q 103 834 151 884 q 56 696 56 785 l 56 671 q 40 656 56 655 q 25 671 24 656 l 25 916 z "},"ţ":{"ha":548,"x_min":43,"x_max":524,"o":"m 510 92 q 343 -11 456 -8 l 329 -83 q 436 -121 398 -90 q 473 -200 473 -151 q 426 -294 473 -258 q 311 -329 378 -329 q 212 -304 254 -329 q 189 -272 189 -289 q 205 -257 189 -256 q 237 -272 208 -257 q 297 -288 265 -288 q 359 -264 334 -288 q 383 -204 383 -240 q 358 -142 383 -168 q 285 -113 334 -115 l 307 -9 q 176 50 224 -1 q 129 183 129 102 l 129 595 l 60 595 q 43 611 43 595 q 60 627 43 627 l 69 627 q 188 678 138 627 q 237 819 237 729 q 254 836 237 836 q 269 819 270 836 l 269 627 l 479 627 q 494 610 495 627 q 479 595 494 594 l 269 595 l 269 183 q 298 80 269 118 q 376 43 326 43 q 493 122 456 43 q 509 139 501 139 q 524 123 524 139 q 510 92 524 114 z "},"Ť":{"ha":798,"x_min":25,"x_max":774,"o":"m 557 1161 l 452 981 q 400 949 432 949 q 350 981 368 949 l 244 1161 q 244 1180 239 1172 q 260 1189 250 1189 q 279 1179 269 1189 l 401 1036 l 522 1179 q 549 1186 533 1193 q 557 1161 565 1179 m 774 916 l 774 671 q 757 656 774 655 q 742 671 741 656 l 742 710 q 697 835 742 787 q 571 884 653 884 l 517 884 q 489 873 500 884 q 478 848 478 863 l 478 68 q 489 42 478 52 q 517 32 500 32 l 547 32 q 564 17 564 32 q 547 0 564 0 l 252 0 q 235 17 235 0 q 252 32 235 33 l 282 32 q 310 42 299 32 q 321 66 321 53 l 321 847 q 310 873 321 863 q 282 884 298 884 l 241 884 q 103 834 151 884 q 56 696 56 785 l 56 671 q 40 656 56 655 q 25 671 24 656 l 25 916 l 774 916 z "},"ť":{"ha":652,"x_min":43,"x_max":653,"o":"m 568 857 q 519 877 541 857 q 498 925 498 896 q 521 977 498 957 q 572 997 543 997 q 631 973 608 997 q 653 904 653 949 q 631 808 653 861 q 579 719 608 754 q 532 684 550 684 q 522 690 525 684 q 525 703 519 696 q 610 876 594 770 q 568 857 595 857 m 509 139 q 524 123 524 139 q 510 92 524 114 q 336 -11 453 -12 q 185 42 241 -11 q 129 183 129 94 l 129 595 l 60 595 q 43 611 43 595 q 60 627 43 627 l 69 627 q 188 678 138 627 q 237 819 237 729 q 253 836 237 836 q 269 819 270 836 l 269 627 l 479 627 q 494 610 495 627 q 479 595 494 594 l 269 595 l 269 183 q 298 80 269 118 q 376 43 326 43 q 493 122 456 43 q 509 139 502 139 z "},"Ŧ":{"ha":798,"x_min":25,"x_max":774,"o":"m 25 916 l 774 916 l 774 671 q 757 656 774 655 q 742 671 741 656 l 742 710 q 697 835 742 787 q 571 884 653 884 l 517 884 q 489 873 500 884 q 478 848 478 863 l 478 539 l 636 539 q 653 522 653 539 q 636 507 653 507 l 478 507 l 478 68 q 489 42 478 52 q 517 32 500 32 l 547 32 q 564 17 564 32 q 547 0 564 0 l 252 0 q 235 17 235 0 q 252 32 235 33 l 282 32 q 310 42 299 32 q 321 66 321 53 l 321 507 l 163 507 q 147 524 147 507 q 163 539 147 539 l 321 539 l 321 847 q 310 873 321 863 q 282 884 298 884 l 241 884 q 103 834 151 884 q 56 696 56 785 l 56 671 q 40 656 56 655 q 25 671 24 656 l 25 916 z "},"ŧ":{"ha":548,"x_min":43,"x_max":524,"o":"m 509 139 q 524 123 524 139 q 510 92 524 114 q 336 -11 453 -12 q 185 42 241 -11 q 129 182 129 94 l 129 406 l 60 406 q 43 422 43 406 q 60 437 43 438 l 129 437 l 129 595 l 60 595 q 43 611 43 595 q 60 627 43 627 l 69 627 q 188 678 138 627 q 237 819 237 729 q 254 836 237 836 q 269 819 270 836 l 269 627 l 479 627 q 494 610 495 627 q 479 595 494 594 l 269 595 l 269 437 l 479 437 q 494 421 495 437 q 479 406 494 406 l 269 406 l 269 182 q 298 80 269 118 q 376 43 326 43 q 493 122 456 43 q 509 139 502 139 z "},"Ũ":{"ha":935,"x_min":37,"x_max":897,"o":"m 659 979 q 573 996 616 979 q 503 1033 530 1013 q 439 1069 475 1053 q 371 1086 403 1086 q 302 1063 331 1086 q 273 1000 273 1039 q 258 982 273 982 q 247 987 252 982 q 241 1000 241 993 q 288 1111 241 1069 q 407 1152 334 1152 q 490 1135 448 1152 q 560 1098 532 1118 q 625 1060 589 1078 q 692 1043 661 1043 q 760 1065 732 1043 q 789 1129 789 1088 q 804 1149 789 1149 q 821 1128 821 1149 q 775 1020 821 1061 q 659 979 730 979 m 880 916 q 897 900 897 916 q 880 884 897 883 l 851 884 q 822 872 833 884 q 811 846 811 861 l 811 334 q 785 174 811 242 q 712 66 760 106 q 606 8 665 26 q 475 -11 547 -11 q 375 -1 423 -11 q 280 33 328 8 q 199 97 233 58 q 144 197 165 135 q 123 338 123 258 l 123 846 q 113 872 123 861 q 85 884 102 884 l 54 884 q 37 899 37 884 q 54 916 37 916 l 350 916 q 367 899 367 916 q 350 884 367 883 l 319 884 q 292 872 302 884 q 281 846 281 861 l 281 318 q 345 104 281 172 q 517 36 408 36 q 703 108 631 36 q 775 326 775 180 l 775 846 q 764 872 775 861 q 736 884 753 884 l 705 884 q 689 900 688 884 q 705 916 689 916 l 880 916 z "},"ũ":{"ha":821,"x_min":45,"x_max":787,"o":"m 526 783 q 441 800 484 783 q 371 838 399 817 q 307 875 343 859 q 239 892 271 892 q 170 868 199 892 q 142 806 142 844 q 126 787 142 787 q 115 792 119 787 q 110 806 110 798 q 156 915 110 873 q 275 957 201 957 q 358 940 317 957 q 429 902 400 922 q 493 865 457 882 q 559 848 529 848 q 628 870 600 848 q 657 933 657 892 q 672 953 657 953 q 690 933 690 953 q 644 825 690 867 q 526 783 598 783 m 771 32 q 787 17 788 32 q 771 0 787 0 l 561 0 l 561 163 q 470 36 530 83 q 325 -11 410 -11 q 181 41 233 -11 q 129 189 129 93 l 129 555 q 118 584 129 572 q 90 595 107 595 l 60 595 q 45 610 44 595 q 60 627 45 627 l 269 627 l 269 205 q 300 85 269 122 q 380 47 332 47 q 512 125 463 47 q 561 317 561 203 l 561 555 q 550 584 561 572 q 522 595 539 595 l 492 595 q 475 610 475 595 q 492 627 475 627 l 701 627 l 701 71 q 712 43 701 54 q 741 32 724 32 l 771 32 z "},"Ū":{"ha":935,"x_min":37,"x_max":897,"o":"m 340 1003 q 326 1008 331 1003 q 321 1019 321 1013 q 340 1036 321 1036 l 729 1036 q 746 1019 746 1036 q 729 1003 746 1002 l 340 1003 m 880 916 q 897 900 897 916 q 880 884 897 883 l 851 884 q 822 872 833 884 q 811 846 811 861 l 811 334 q 785 174 811 242 q 712 66 760 106 q 606 8 665 26 q 475 -11 547 -11 q 375 -1 423 -11 q 280 33 328 8 q 199 97 233 58 q 144 197 165 135 q 123 338 123 258 l 123 846 q 113 872 123 861 q 85 884 102 884 l 54 884 q 37 899 37 884 q 54 916 37 916 l 350 916 q 367 899 367 916 q 350 884 367 883 l 321 884 q 292 872 302 884 q 281 846 281 861 l 281 318 q 345 104 281 172 q 517 36 408 36 q 703 108 631 36 q 775 326 775 180 l 775 846 q 764 872 775 861 q 736 884 753 884 l 705 884 q 689 900 688 884 q 705 916 689 916 l 880 916 z "},"ū":{"ha":821,"x_min":45,"x_max":787,"o":"m 208 800 q 194 806 199 800 q 189 818 189 811 q 208 835 189 835 l 597 835 q 614 817 614 835 q 597 800 614 800 l 208 800 m 771 32 q 787 17 788 32 q 771 0 787 0 l 561 0 l 561 163 q 470 36 530 83 q 325 -11 410 -11 q 181 41 233 -11 q 129 189 129 93 l 129 555 q 118 584 129 572 q 90 595 107 595 l 60 595 q 45 610 44 595 q 60 627 45 627 l 269 627 l 269 205 q 300 85 269 122 q 380 47 332 47 q 512 125 463 47 q 561 317 561 203 l 561 555 q 550 584 561 572 q 522 595 539 595 l 492 595 q 475 610 475 595 q 492 627 475 627 l 701 627 l 701 71 q 712 43 701 54 q 741 32 724 32 l 771 32 z "},"Ů":{"ha":935,"x_min":37,"x_max":897,"o":"m 517 974 q 414 1016 457 974 q 371 1118 371 1059 q 414 1220 371 1178 q 517 1263 457 1263 q 620 1220 576 1263 q 663 1118 663 1178 q 620 1017 663 1060 q 517 974 576 974 m 517 1010 q 593 1042 562 1010 q 624 1118 624 1074 q 592 1195 624 1163 q 517 1226 561 1226 q 441 1194 472 1226 q 410 1118 410 1162 q 441 1042 410 1074 q 517 1010 472 1010 m 880 916 q 897 900 897 916 q 880 884 897 883 l 851 884 q 822 872 833 884 q 811 846 811 861 l 811 334 q 785 174 811 242 q 712 66 760 106 q 606 8 665 26 q 475 -11 547 -11 q 375 -1 423 -11 q 280 33 328 8 q 199 97 233 58 q 144 197 165 135 q 123 338 123 258 l 123 846 q 113 872 123 861 q 85 884 102 884 l 54 884 q 37 899 37 884 q 54 916 37 916 l 350 916 q 367 899 367 916 q 350 884 367 883 l 321 884 q 292 872 302 884 q 281 846 281 861 l 281 318 q 345 104 281 172 q 517 36 408 36 q 703 108 631 36 q 775 326 775 180 l 775 846 q 764 872 775 861 q 736 884 753 884 l 705 884 q 689 900 688 884 q 705 916 689 916 l 880 916 z "},"ů":{"ha":821,"x_min":45,"x_max":787,"o":"m 400 760 q 296 802 339 760 q 253 904 253 844 q 297 1006 253 964 q 400 1048 340 1048 q 502 1006 460 1048 q 545 904 545 964 q 502 803 545 846 q 400 760 460 760 m 400 796 q 474 828 443 796 q 505 904 505 860 q 474 981 505 949 q 400 1013 443 1013 q 324 981 355 1013 q 293 904 293 949 q 324 828 293 859 q 400 796 355 796 m 771 32 q 787 17 788 32 q 771 0 787 0 l 561 0 l 561 163 q 470 36 530 83 q 325 -11 410 -11 q 181 41 233 -11 q 129 189 129 93 l 129 555 q 118 584 129 572 q 90 595 107 595 l 60 595 q 45 610 44 595 q 60 627 45 627 l 269 627 l 269 205 q 300 85 269 122 q 380 47 332 47 q 512 125 463 47 q 561 317 561 203 l 561 555 q 550 584 561 572 q 522 595 539 595 l 492 595 q 475 610 475 595 q 492 627 475 627 l 701 627 l 701 71 q 712 43 701 54 q 741 32 724 32 l 771 32 z "},"Ű":{"ha":935,"x_min":37,"x_max":897,"o":"m 399 983 q 377 983 387 974 q 379 1004 368 991 l 539 1190 q 602 1204 570 1226 q 618 1156 629 1185 q 602 1136 612 1145 l 399 983 m 627 983 q 605 983 614 974 q 607 1004 596 991 l 766 1190 q 829 1204 797 1226 q 846 1156 857 1185 q 829 1136 840 1145 l 627 983 m 880 916 q 897 900 897 916 q 880 884 897 883 l 851 884 q 822 872 833 884 q 811 846 811 861 l 811 334 q 785 174 811 242 q 712 66 760 106 q 606 8 665 26 q 475 -11 547 -11 q 375 -1 422 -11 q 280 33 328 8 q 199 97 233 58 q 144 197 165 135 q 123 338 123 258 l 123 846 q 113 872 123 861 q 85 884 102 884 l 54 884 q 37 899 37 884 q 54 916 37 916 l 350 916 q 367 899 367 916 q 350 884 367 883 l 319 884 q 292 872 302 884 q 281 846 281 861 l 281 318 q 345 104 281 172 q 517 36 408 36 q 703 108 631 36 q 775 326 775 180 l 775 846 q 764 872 775 861 q 736 884 753 884 l 705 884 q 689 900 688 884 q 705 916 689 916 l 880 916 z "},"ű":{"ha":821,"x_min":45,"x_max":787,"o":"m 211 785 q 188 784 197 775 q 191 806 179 793 l 351 991 q 414 1006 380 1027 q 429 957 440 986 q 412 937 425 946 l 211 785 m 439 785 q 416 784 425 775 q 418 806 407 793 l 579 991 q 642 1006 608 1027 q 657 957 668 986 q 640 937 653 946 l 439 785 m 771 32 q 787 17 788 32 q 771 0 787 0 l 561 0 l 561 163 q 470 36 530 83 q 325 -11 410 -11 q 181 41 233 -11 q 129 189 129 93 l 129 555 q 118 584 129 572 q 90 595 107 595 l 60 595 q 45 610 44 595 q 60 627 45 627 l 269 627 l 269 205 q 300 85 269 122 q 380 47 332 47 q 512 125 463 47 q 561 317 561 203 l 561 555 q 550 584 561 572 q 522 595 539 595 l 492 595 q 475 610 475 595 q 492 627 475 627 l 701 627 l 701 71 q 712 43 701 54 q 741 32 724 32 l 771 32 z "},"Ų":{"ha":935,"x_min":37,"x_max":897,"o":"m 880 916 q 897 900 897 916 q 880 884 897 883 l 851 884 q 822 872 833 884 q 811 846 811 861 l 811 334 q 747 104 811 186 q 574 -1 684 22 q 479 -203 479 -72 q 557 -332 479 -332 q 642 -281 611 -332 q 654 -273 647 -274 q 665 -286 665 -273 q 663 -296 665 -290 q 542 -359 628 -359 q 427 -320 470 -359 q 383 -215 383 -281 q 421 -105 383 -158 q 524 -9 460 -52 q 475 -11 500 -11 q 375 -1 423 -11 q 280 33 328 8 q 199 97 233 58 q 144 197 165 135 q 123 338 123 258 l 123 846 q 113 872 123 861 q 85 884 102 884 l 54 884 q 37 899 37 884 q 54 916 37 916 l 350 916 q 367 899 367 916 q 350 884 367 883 l 321 884 q 292 872 302 884 q 281 846 281 861 l 281 318 q 345 104 281 172 q 517 36 408 36 q 703 108 631 36 q 775 326 775 180 l 775 846 q 764 872 775 861 q 736 884 753 884 l 705 884 q 689 900 688 884 q 705 916 689 916 l 880 916 z "},"ų":{"ha":821,"x_min":45,"x_max":787,"o":"m 778 -273 q 787 -286 789 -273 q 785 -296 787 -290 q 665 -359 751 -359 q 549 -320 591 -359 q 507 -215 507 -281 q 549 -99 507 -155 q 661 0 591 -43 l 561 0 l 561 163 q 470 36 530 83 q 325 -11 410 -11 q 181 41 233 -11 q 129 189 129 93 l 129 555 q 118 584 129 572 q 90 595 107 595 l 60 595 q 45 610 44 595 q 60 627 45 627 l 269 627 l 269 205 q 300 85 269 122 q 380 47 332 47 q 512 125 463 47 q 561 317 561 203 l 561 555 q 550 584 561 572 q 522 595 539 595 l 492 595 q 475 610 475 595 q 492 627 475 627 l 701 627 l 701 71 q 712 43 701 54 q 741 32 724 32 l 771 32 q 787 17 788 32 q 771 0 787 0 l 699 0 q 603 -203 603 -71 q 681 -332 603 -332 q 765 -281 734 -332 q 778 -273 770 -273 z "},"Ŵ":{"ha":1311,"x_min":5,"x_max":1305,"o":"m 882 991 q 875 966 890 973 q 847 974 860 960 l 726 1117 l 604 974 q 586 964 597 964 q 570 972 574 964 q 571 991 566 981 l 675 1173 q 726 1204 694 1204 q 777 1173 758 1204 l 882 991 m 1291 916 q 1305 899 1306 916 q 1291 884 1305 883 l 1251 884 q 1197 846 1210 884 l 930 -3 l 888 -3 l 656 665 l 449 -3 l 407 -3 l 111 846 q 62 884 98 883 l 21 884 q 5 900 5 884 q 21 916 5 916 l 366 916 q 382 899 382 916 q 366 884 382 883 l 309 884 q 282 873 290 884 q 279 846 273 863 l 488 224 l 701 916 l 737 916 l 968 227 l 1161 846 q 1158 872 1166 861 q 1133 884 1150 884 l 1075 884 q 1059 900 1058 884 q 1075 916 1059 916 l 1291 916 z "},"ŵ":{"ha":991,"x_min":5,"x_max":986,"o":"m 699 800 q 691 775 707 782 q 665 782 676 768 l 543 925 l 422 782 q 403 772 414 772 q 387 781 392 772 q 387 800 382 789 l 492 981 q 543 1013 511 1013 q 595 981 575 1013 l 699 800 m 971 627 q 986 610 987 627 q 971 595 986 594 l 939 595 q 890 562 901 595 l 697 0 l 656 0 l 496 432 l 355 0 l 314 0 l 98 557 q 50 595 85 594 l 22 595 q 5 611 5 595 q 22 627 5 627 l 318 627 q 335 610 335 627 q 318 595 335 594 l 269 595 q 239 570 239 595 q 240 557 239 563 l 383 183 l 528 627 l 561 627 l 726 182 l 854 557 q 857 571 857 564 q 827 595 857 595 l 772 595 q 757 611 757 595 q 772 627 757 627 l 971 627 z "},"Ŷ":{"ha":836,"x_min":4,"x_max":833,"o":"m 628 991 q 621 966 636 973 q 595 974 606 960 l 472 1117 l 351 974 q 332 964 343 964 q 316 972 321 964 q 317 991 311 981 l 422 1173 q 472 1204 441 1204 q 524 1173 504 1204 l 628 991 m 817 916 q 833 900 833 916 q 817 884 833 883 l 790 884 q 733 847 751 884 l 504 410 l 504 69 q 515 43 504 54 q 543 32 526 32 l 574 32 q 590 17 591 32 q 574 0 590 0 l 278 0 q 261 17 261 0 q 278 32 261 33 l 307 32 q 336 43 326 32 q 347 69 347 54 l 347 374 l 94 847 q 41 884 75 883 l 20 884 q 4 900 4 884 q 20 916 4 916 l 329 916 q 345 900 345 916 q 329 884 345 883 l 298 884 q 272 874 279 884 q 273 847 265 864 l 484 444 l 692 847 q 691 872 699 861 q 664 884 684 884 l 639 884 q 624 900 623 884 q 639 916 624 916 l 817 916 z "},"ŷ":{"ha":808,"x_min":45,"x_max":701,"o":"m 570 800 q 563 775 578 782 q 534 782 547 768 l 414 925 l 292 782 q 273 772 285 772 q 257 781 261 772 q 258 800 253 789 l 363 981 q 414 1013 382 1013 q 464 981 446 1013 l 570 800 m 492 627 l 701 627 l 701 -41 q 357 -395 701 -394 q 160 -334 235 -395 q 85 -183 85 -273 q 109 -116 85 -140 q 165 -92 134 -92 q 213 -110 193 -92 q 232 -160 232 -127 q 208 -213 232 -188 q 184 -260 184 -237 q 228 -329 184 -296 q 349 -363 271 -363 q 508 -291 454 -363 q 561 -94 561 -220 l 561 163 q 470 36 530 83 q 325 -11 410 -11 q 181 41 233 -11 q 129 189 129 93 l 129 555 q 118 584 129 572 q 90 595 107 595 l 60 595 q 45 610 44 595 q 60 627 45 627 l 269 627 l 269 205 q 300 85 269 122 q 380 47 332 47 q 512 125 463 47 q 561 317 561 203 l 561 555 q 550 584 561 572 q 522 595 539 595 l 492 595 q 475 610 475 595 q 492 627 475 627 z "},"Ÿ":{"ha":836,"x_min":4,"x_max":833,"o":"m 279 1042 q 298 1088 279 1069 q 345 1107 317 1107 q 390 1088 371 1107 q 408 1042 408 1069 q 390 997 408 1015 q 345 978 371 978 q 298 997 317 978 q 279 1042 279 1015 m 521 1042 q 539 1088 521 1069 q 585 1107 558 1107 q 631 1088 612 1107 q 650 1042 650 1069 q 631 997 650 1015 q 585 978 612 978 q 539 997 558 978 q 521 1042 521 1015 m 817 916 q 833 900 833 916 q 817 884 833 883 l 790 884 q 733 847 751 884 l 504 410 l 504 69 q 515 43 504 54 q 543 32 526 32 l 574 32 q 590 17 591 32 q 574 0 590 0 l 278 0 q 261 17 261 0 q 278 32 261 33 l 307 32 q 336 43 326 32 q 347 69 347 54 l 347 374 l 94 847 q 41 884 75 883 l 20 884 q 4 900 4 884 q 20 916 4 916 l 329 916 q 345 900 345 916 q 329 884 345 883 l 298 884 q 272 874 279 884 q 273 847 265 864 l 484 444 l 692 847 q 691 872 699 861 q 664 884 684 884 l 639 884 q 624 900 623 884 q 639 916 624 916 l 817 916 z "},"Ź":{"ha":842,"x_min":69,"x_max":770,"o":"m 378 985 q 355 984 364 975 q 357 1006 346 993 l 517 1192 q 581 1206 547 1227 q 596 1157 607 1186 q 579 1137 592 1146 l 378 985 m 754 260 q 770 244 770 260 l 770 0 l 69 0 l 69 39 l 578 884 l 309 884 q 170 834 218 884 q 122 696 122 785 l 122 671 q 106 656 122 655 q 90 671 90 656 l 90 916 l 762 916 l 762 884 l 249 32 l 567 32 q 693 80 649 32 q 737 205 737 129 l 737 244 q 754 260 737 260 z "},"ź":{"ha":729,"x_min":77,"x_max":637,"o":"m 321 785 q 299 784 307 775 q 300 806 290 793 l 461 991 q 524 1006 492 1027 q 539 957 551 986 q 524 937 535 946 l 321 785 m 637 627 l 637 596 l 232 32 l 435 32 q 560 87 514 32 q 606 215 606 142 l 606 237 q 621 253 606 253 q 637 237 637 253 l 637 0 l 77 0 l 77 39 l 475 595 l 290 595 q 165 540 211 595 q 119 411 119 485 l 119 389 q 103 374 119 373 q 87 389 87 374 l 87 627 l 637 627 z "},"Ż":{"ha":842,"x_min":69,"x_max":770,"o":"m 427 978 q 374 999 396 978 q 353 1050 353 1021 q 374 1102 353 1080 q 427 1124 396 1124 q 478 1102 457 1124 q 500 1050 500 1080 q 478 999 500 1021 q 427 978 457 978 m 754 260 q 770 244 770 260 l 770 0 l 69 0 l 69 39 l 578 884 l 309 884 q 170 834 218 884 q 122 696 122 785 l 122 671 q 106 656 122 655 q 90 671 90 656 l 90 916 l 762 916 l 762 884 l 249 32 l 567 32 q 693 80 649 32 q 737 205 737 129 l 737 244 q 754 260 737 260 z "},"ż":{"ha":729,"x_min":77,"x_max":637,"o":"m 285 856 q 308 912 285 889 q 366 935 332 935 q 420 911 397 935 q 443 856 443 888 q 420 800 443 824 q 366 777 397 777 q 309 800 332 777 q 285 856 285 823 m 637 627 l 637 596 l 232 32 l 435 32 q 560 87 514 32 q 606 215 606 142 l 606 237 q 621 253 606 253 q 637 237 637 253 l 637 0 l 77 0 l 77 39 l 475 595 l 290 595 q 165 540 211 595 q 119 411 119 485 l 119 389 q 103 374 119 373 q 87 389 87 374 l 87 627 l 637 627 z "},"Ž":{"ha":842,"x_min":69,"x_max":770,"o":"m 378 1006 l 273 1186 q 272 1204 267 1196 q 288 1213 278 1213 q 307 1204 298 1213 l 429 1061 l 550 1204 q 577 1211 562 1218 q 585 1186 593 1204 l 479 1006 q 429 973 461 972 q 378 1006 397 974 m 754 260 q 770 244 770 260 l 770 0 l 69 0 l 69 39 l 578 884 l 309 884 q 170 834 218 884 q 122 696 122 785 l 122 671 q 106 656 122 655 q 90 671 90 656 l 90 916 l 762 916 l 762 884 l 249 32 l 567 32 q 693 80 649 32 q 737 205 737 129 l 737 244 q 754 260 737 260 z "},"ž":{"ha":729,"x_min":77,"x_max":637,"o":"m 515 987 l 411 808 q 359 775 391 775 q 309 808 328 775 l 204 987 q 203 1007 197 998 q 219 1015 208 1015 q 237 1007 229 1015 l 359 864 l 481 1007 q 508 1013 493 1021 q 515 987 524 1006 m 637 627 l 637 596 l 232 32 l 435 32 q 560 87 514 32 q 606 215 606 142 l 606 237 q 621 253 606 253 q 637 237 637 253 l 637 0 l 77 0 l 77 39 l 475 595 l 290 595 q 165 540 211 595 q 119 411 119 485 l 119 389 q 103 374 119 373 q 87 389 87 374 l 87 627 l 637 627 z "},"ƒ":{"ha":602,"x_min":-144,"x_max":692,"o":"m 521 1023 q 642 990 593 1023 q 692 899 692 957 q 666 821 692 850 q 600 793 640 793 q 562 806 578 793 q 546 843 546 819 q 561 883 546 867 q 590 912 575 899 q 604 943 604 925 q 583 979 604 964 q 532 993 561 993 q 463 967 494 993 q 425 890 432 942 l 387 627 l 509 627 q 525 610 526 627 q 509 595 525 594 l 382 595 l 271 -193 q 186 -337 258 -288 q 26 -387 114 -387 q -95 -354 -45 -387 q -144 -262 -144 -321 q -119 -184 -144 -212 q -53 -155 -93 -155 q -15 -169 -31 -155 q 1 -205 1 -183 q -13 -247 1 -231 q -42 -276 -28 -262 q -56 -307 -56 -289 q -35 -342 -56 -328 q 16 -357 -14 -357 q 84 -331 53 -357 q 123 -254 115 -306 l 243 595 l 171 595 q 155 610 155 595 q 171 627 155 627 l 248 627 l 275 829 q 361 974 289 924 q 521 1023 433 1023 z "},"Ǫ":{"ha":1019,"x_min":66,"x_max":953,"o":"m 614 -1 q 518 -203 518 -72 q 596 -332 518 -332 q 681 -281 649 -332 q 693 -273 685 -274 q 704 -286 704 -273 q 701 -296 704 -290 q 581 -359 667 -359 q 466 -320 509 -359 q 422 -215 422 -281 q 460 -105 422 -158 q 562 -8 498 -52 q 510 -11 537 -11 q 274 52 375 -11 q 119 221 172 114 q 66 461 66 328 q 187 795 66 664 q 510 926 307 926 q 833 795 713 926 q 953 461 953 664 q 862 158 953 285 q 614 -1 770 32 m 252 628 q 245 590 252 628 q 237 461 237 553 q 252 293 237 370 q 297 154 267 216 q 382 56 328 92 q 510 21 436 21 q 637 56 583 21 q 723 154 692 92 q 768 293 754 216 q 782 461 782 370 q 768 628 782 553 q 723 764 754 703 q 637 859 692 825 q 510 893 583 893 q 382 859 436 893 q 297 764 328 825 q 252 628 267 703 z "},"ǫ":{"ha":766,"x_min":61,"x_max":705,"o":"m 472 -3 q 379 -203 379 -72 q 457 -332 379 -332 q 541 -281 510 -332 q 553 -273 546 -274 q 564 -286 564 -273 q 561 -296 564 -290 q 441 -359 526 -359 q 326 -320 368 -359 q 283 -215 283 -281 q 321 -105 283 -158 q 422 -9 358 -52 q 383 -11 403 -11 q 150 77 239 -11 q 61 315 61 164 q 149 547 61 457 q 383 637 236 637 q 616 553 528 637 q 705 315 705 469 q 644 105 705 188 q 472 -3 582 22 m 382 20 q 513 96 465 20 q 561 314 561 172 q 513 532 561 457 q 383 607 465 607 q 254 532 302 607 q 205 314 205 457 q 252 100 205 180 q 382 20 298 20 z "},"Ǽ":{"ha":1348,"x_min":5,"x_max":1240,"o":"m 882 985 q 860 984 869 975 q 863 1006 851 993 l 1022 1192 q 1084 1206 1053 1227 q 1101 1157 1112 1186 q 1084 1137 1096 1146 l 882 985 m 696 916 l 1238 916 l 1238 671 q 1221 656 1238 655 q 1206 671 1205 656 l 1206 710 q 1161 835 1206 787 q 1035 884 1117 884 l 829 884 q 801 872 812 884 q 790 846 790 861 l 790 500 l 879 500 q 985 527 957 500 q 1013 614 1013 554 l 1013 624 q 1017 635 1013 631 q 1029 639 1022 639 q 1040 635 1036 639 q 1044 624 1044 631 l 1044 343 q 1040 332 1044 336 q 1029 328 1036 328 q 1013 346 1013 328 l 1013 355 q 985 440 1013 414 q 879 467 957 467 l 790 467 l 790 69 q 801 43 790 54 q 829 32 811 32 l 1039 32 q 1164 87 1118 32 q 1210 215 1210 142 l 1210 237 q 1225 253 1210 253 q 1240 237 1240 253 l 1240 0 l 562 0 q 547 17 547 0 q 562 32 547 33 l 593 32 q 622 43 611 32 q 632 69 632 54 l 632 288 l 302 288 l 160 81 q 158 47 148 62 q 189 32 168 32 l 243 32 q 255 27 250 32 q 260 16 260 22 q 255 4 260 9 q 243 0 250 0 l 21 0 q 10 4 14 0 q 5 16 5 8 q 9 27 5 22 q 21 32 14 32 l 47 32 q 87 43 73 32 q 118 81 102 54 l 696 916 m 632 318 l 632 762 l 325 318 l 632 318 z "},"ǽ":{"ha":1162,"x_min":50,"x_max":1096,"o":"m 539 785 q 518 784 527 775 q 519 806 509 793 l 679 991 q 742 1006 709 1027 q 758 957 770 986 q 742 937 753 946 l 539 785 m 798 637 q 1017 558 938 637 q 1096 339 1096 478 q 1089 320 1096 326 q 1065 314 1082 314 l 625 314 q 678 110 625 189 q 836 31 730 31 q 976 77 921 31 q 1054 186 1031 123 q 1071 200 1059 199 q 1083 183 1084 200 q 1072 148 1082 170 q 1040 98 1063 126 q 989 46 1018 69 q 915 6 961 22 q 815 -11 868 -11 q 611 44 699 -11 q 493 210 524 100 q 408 50 472 110 q 243 -11 345 -11 q 103 38 155 -11 q 50 155 50 87 q 322 338 50 323 l 479 346 l 479 460 q 428 568 479 529 q 310 607 376 607 q 197 581 243 607 q 151 521 151 555 q 175 483 151 505 q 199 433 199 460 q 180 391 199 407 q 138 375 161 375 q 90 396 110 375 q 71 460 71 418 q 137 586 71 535 q 326 637 204 637 q 568 551 498 637 q 798 637 653 637 m 627 343 l 954 343 q 911 543 953 477 q 794 608 869 608 q 675 538 720 608 q 627 343 631 468 m 313 49 q 434 120 388 49 q 479 318 479 191 l 334 310 q 232 270 264 307 q 199 176 199 232 q 229 81 199 114 q 313 49 258 49 z "},"Ǿ":{"ha":1019,"x_min":66,"x_max":953,"o":"m 443 985 q 420 984 429 975 q 422 1006 411 993 l 583 1192 q 646 1206 612 1227 q 661 1157 672 1186 q 644 1137 657 1146 l 443 985 m 614 916 q 862 759 772 884 q 953 461 953 635 q 900 221 953 328 q 746 52 847 114 q 510 -11 644 -11 q 419 -4 463 -11 l 403 -82 l 371 -82 l 389 3 q 153 165 239 40 q 66 461 66 290 q 187 795 66 664 q 510 926 307 926 q 582 921 547 926 l 600 1010 l 633 1010 l 614 916 m 237 461 q 276 201 237 311 q 399 47 315 92 l 575 886 q 510 893 545 893 q 382 859 436 893 q 297 764 328 825 q 252 628 267 703 q 237 461 237 553 m 510 22 q 638 57 584 22 q 723 154 692 92 q 768 293 754 216 q 782 461 782 370 q 740 727 782 616 q 606 875 697 838 l 428 35 q 510 22 465 22 z "},"ǿ":{"ha":766,"x_min":61,"x_max":705,"o":"m 354 785 q 331 784 340 775 q 334 806 322 793 l 493 991 q 555 1006 524 1027 q 572 957 583 986 q 555 937 568 946 l 354 785 m 503 621 q 651 512 597 590 q 705 315 705 433 q 618 76 705 163 q 383 -11 530 -11 q 294 -1 337 -11 l 268 -82 l 236 -82 l 265 7 q 115 118 170 37 q 61 315 61 199 q 149 547 61 457 q 383 637 236 637 q 472 629 431 637 l 498 707 l 532 707 l 503 621 m 205 314 q 283 60 205 136 l 458 587 q 383 607 425 607 q 254 532 302 607 q 205 314 205 457 m 382 20 q 513 96 465 20 q 561 314 561 172 q 485 567 561 494 l 309 40 q 382 20 342 20 z "},"Ș":{"ha":783,"x_min":61,"x_max":715,"o":"m 363 -11 q 148 52 235 -11 q 61 201 61 114 q 83 267 61 243 q 135 290 104 290 q 181 274 161 290 q 201 227 201 257 q 177 174 201 201 q 153 131 153 146 q 216 54 153 86 q 347 22 279 22 q 512 72 446 22 q 579 210 579 121 q 552 293 579 258 q 481 350 525 328 q 384 392 437 372 q 278 433 330 411 q 181 486 225 456 q 110 565 138 515 q 82 679 82 614 q 169 859 82 791 q 400 926 256 926 q 608 868 521 926 q 696 726 696 810 q 674 660 696 685 q 623 635 653 635 q 576 652 596 635 q 555 700 555 669 q 580 752 555 726 q 604 793 604 778 q 541 864 604 836 q 410 893 478 893 q 332 885 368 893 q 264 858 296 876 q 215 805 233 839 q 197 725 197 771 q 226 649 197 682 q 300 594 254 615 q 401 553 346 572 q 512 509 457 533 q 613 454 567 485 q 687 372 659 422 q 715 253 715 321 q 693 158 715 204 q 628 74 671 113 q 517 12 586 35 q 363 -11 449 -11 m 358 -207 q 310 -188 330 -207 q 289 -138 289 -168 q 311 -87 289 -107 q 363 -66 334 -66 q 421 -90 399 -66 q 443 -160 443 -114 q 421 -256 443 -203 q 370 -345 399 -310 q 322 -380 340 -380 q 313 -374 315 -380 q 315 -361 310 -367 q 400 -187 385 -292 q 358 -207 385 -207 z "},"ș":{"ha":690,"x_min":61,"x_max":629,"o":"m 368 606 q 395 521 368 563 q 460 445 422 479 q 537 374 498 410 q 602 293 575 339 q 629 196 629 248 q 544 45 629 100 q 335 -11 458 -11 q 140 43 220 -11 q 61 191 61 97 q 80 248 61 227 q 123 272 98 269 l 302 587 q 347 676 315 626 q 378 704 366 704 q 390 700 386 704 q 393 689 395 696 q 386 674 392 685 q 378 658 380 663 q 374 644 376 653 q 370 626 371 635 q 368 606 368 616 m 318 21 q 452 60 407 21 q 497 163 497 98 q 476 229 497 196 q 424 290 454 261 q 362 350 393 319 q 310 420 332 380 q 288 503 289 460 l 155 265 q 191 214 190 254 q 165 164 191 191 q 139 119 139 138 q 193 50 139 79 q 318 21 246 21 m 332 -204 q 283 -185 304 -204 q 262 -136 262 -165 q 285 -84 262 -104 q 336 -64 307 -64 q 394 -88 372 -64 q 416 -157 416 -113 q 394 -253 416 -199 q 343 -342 372 -307 q 296 -378 314 -378 q 286 -372 289 -378 q 289 -358 283 -366 q 374 -184 358 -290 q 332 -204 358 -204 z "},"Ț":{"ha":798,"x_min":25,"x_max":774,"o":"m 774 916 l 774 671 q 757 656 774 655 q 742 671 741 656 l 742 710 q 697 835 742 787 q 571 884 653 884 l 517 884 q 489 873 500 884 q 478 848 478 863 l 478 68 q 489 42 478 52 q 517 32 500 32 l 547 32 q 564 17 564 32 q 547 0 564 0 l 252 0 q 235 17 235 0 q 252 32 235 33 l 282 32 q 310 42 299 32 q 321 66 321 53 l 321 847 q 310 873 321 863 q 282 884 298 884 l 241 884 q 103 834 151 884 q 56 696 56 785 l 56 671 q 40 656 56 655 q 25 671 24 656 l 25 916 l 774 916 m 401 -204 q 352 -185 372 -204 q 332 -136 332 -165 q 353 -84 332 -104 q 404 -64 375 -64 q 464 -88 441 -64 q 486 -157 486 -113 q 463 -253 486 -199 q 412 -342 440 -307 q 366 -378 383 -378 q 355 -372 359 -378 q 357 -358 351 -366 q 443 -184 427 -290 q 401 -204 428 -204 z "},"ț":{"ha":548,"x_min":43,"x_max":524,"o":"m 509 139 q 524 123 524 139 q 510 92 524 114 q 336 -11 453 -12 q 185 42 241 -11 q 129 182 129 94 l 129 595 l 60 595 q 43 611 43 595 q 60 627 43 627 l 69 627 q 188 678 138 627 q 237 819 237 729 q 254 836 237 836 q 269 819 270 836 l 269 627 l 479 627 q 494 610 495 627 q 479 595 494 594 l 269 595 l 269 182 q 298 80 269 118 q 376 43 326 43 q 493 122 456 43 q 509 139 502 139 m 325 -204 q 276 -185 296 -204 q 256 -136 256 -165 q 277 -84 256 -104 q 329 -64 298 -64 q 387 -88 365 -64 q 410 -157 410 -113 q 387 -253 410 -199 q 336 -342 364 -307 q 289 -378 307 -378 q 279 -372 282 -378 q 282 -358 277 -366 q 367 -184 351 -290 q 325 -204 351 -204 z "},"ˆ":{"ha":547,"x_min":138,"x_max":450,"o":"m 450 811 q 443 785 458 793 q 415 791 428 778 l 294 935 l 172 791 q 154 783 165 783 q 138 791 142 783 q 139 811 134 799 l 243 990 q 294 1023 262 1023 q 345 990 326 1023 l 450 811 z "},"ˇ":{"ha":505,"x_min":96,"x_max":407,"o":"m 407 997 l 302 817 q 251 785 283 785 q 201 817 220 785 l 96 997 q 96 1016 90 1008 q 111 1024 102 1025 q 131 1015 121 1023 l 252 872 l 374 1015 q 400 1022 385 1029 q 407 997 416 1015 z "},"˘":{"ha":477,"x_min":45,"x_max":431,"o":"m 390 990 l 431 990 q 374 858 431 912 q 237 803 317 803 q 101 858 157 803 q 45 990 45 913 l 83 990 q 129 882 83 926 q 237 838 174 838 q 346 882 301 838 q 390 990 390 926 z "},"˙":{"ha":387,"x_min":114,"x_max":272,"o":"m 114 903 q 137 958 114 935 q 193 982 160 982 q 249 958 227 982 q 272 903 272 935 q 249 846 272 869 q 193 823 227 823 q 137 846 160 823 q 114 903 114 869 z "},"˚":{"ha":426,"x_min":66,"x_max":359,"o":"m 214 760 q 110 802 154 760 q 66 904 66 844 q 110 1006 66 964 q 214 1048 154 1048 q 316 1006 273 1048 q 359 904 359 964 q 316 803 359 846 q 214 760 273 760 m 214 796 q 288 828 256 796 q 319 904 319 860 q 289 981 319 949 q 214 1013 258 1013 q 138 981 169 1013 q 107 904 107 949 q 138 828 107 859 q 214 796 169 796 z "}}}
